<?xml version="1.0" encoding="utf-8"?>
<!-- Generator: Adobe Illustrator 23.0.3, SVG Export Plug-In . SVG Version: 6.00 Build 0)  -->
<svg version="1.1" id="圖層_1" xmlns="http://www.w3.org/2000/svg" xmlns:xlink="http://www.w3.org/1999/xlink" x="0px" y="0px"
	 viewBox="0 0 48.8 12.8" style="enable-background:new 0 0 48.8 12.8;" xml:space="preserve">
<style type="text/css">
	.st0{fill:#003C88;}
</style>
<g id="组_19" transform="translate(14.252 10.092)">
	<path id="路径_72" class="st0" d="M-9.9-4.5h-1.8v-0.7h1.8V-4.5z M-2.7-5.8c0-0.5-0.2-1-0.5-1.4l-0.3-0.4c-0.6-0.5-1.3-0.8-2-0.8
		c-0.3,0-0.7,0-1,0.1c-0.9,0.2-1.4,1-1.7,1.9c0,0.2-0.1,0.6-0.1,0.6h1.1C-7.1-6.1-7-6.4-6.8-6.6C-6.5-7.1-6-7.5-5.4-7.4
		c0.2,0,0.3,0,0.5,0.1C-4.3-7-3.8-6.4-3.7-5.7L-2.7-5.8z M-4.2-3c0-0.1,0.1-0.2,0.1-0.4s-0.1-0.3-0.2-0.4C-4.4-3.9-4.6-4-4.7-4
		C-4.9-4-5-4-5-3.9c-0.2,0.2-0.2,0.3-0.3,0.5c0.1,0.2,0,0.4,0.2,0.5C-5-2.7-4.9-2.7-4.8-2.7C-4.5-2.7-4.3-2.8-4.2-3L-4.2-3z
		 M-7.1-3.4c-0.1-0.3-0.3-0.5-0.6-0.4c-0.2,0-0.4,0.2-0.5,0.4c0,0.1-0.1,0.2-0.1,0.3s0.1,0.3,0.1,0.4C-8-2.6-7.8-2.5-7.6-2.5
		c0.1,0,0.2,0,0.2,0C-7.2-2.6-7-2.8-7-3.1C-7.1-3.2-7.1-3.3-7.1-3.4L-7.1-3.4z M-5.7-4.6v-0.5h-2.5v0.6h1.4v1.9l-0.1,0.4
		C-7.1-1.5-7.6-1-8.2-0.8V1c0.6-0.4,1-1,1.3-1.8h0.1V1h1.1L-5.7-4.6z M-8.7-7.5h-1.4v-0.8h-1.1v0.8h-1.5v0.7h1.5V-6h-1.5v2.7
		l0.1,0.7c0.3,0.5,0.8,0.8,1.4,0.9V-1h-1.5v0.7h1.5V1h1.2v-1.5h1.4v-0.7H-10v-0.7c0.3-0.2,0.3,0.1,1-0.5c0.1-0.2,0.2-0.6,0.3-1V-6
		h-1.4v-0.8h1.4V-7.5z M-9.9-3.7c0,0.1,0,0.1,0,0.2c0,0.2-0.1,0.4-0.2,0.5c-0.2,0.3-0.4,0.4-0.9,0.4c-0.3-0.1-0.5-0.3-0.6-0.5
		c0-0.2-0.1-0.4-0.1-0.6C-11.7-3.7-9.9-3.7-9.9-3.7z M-2.7-4.6v-0.5h-2.5v0.6h1.4v1.9l-0.1,0.4C-4.1-1.5-4.6-1-5.2-0.8V1
		c0.6-0.4,1.1-1,1.3-1.8h0.1V1h1.1L-2.7-4.6z"/>
	<path id="路径_73" class="st0" d="M2.2-7.1h1.9v0.7H2.2v0.9C3-5.2,4-3.9,4-3v4.1H2.9v-4.5c0-0.5-0.3-0.9-0.7-1c0,0,0,0.5,0,0.9
		c0,0.2,0,0.4,0,0.5v4.2H1.1v-1.3v-4.2C0.9-4.3,0.8-4.1,0.7-4C0.3-3.7,0.3-3.7,0.3-3v4.1h-1v-4c0-0.9,0.5-1.7,1.3-2.2
		c0.5-0.3,0-0.2,0.5-0.3v-0.9h-1.8V-7h1.8v-1.3h1.2L2.2-7.1z M7.6-7h1.9v0.7H7.6v0.9C8.4-5.2,9.4-3.9,9.4-3v4.1H8.3v-4.5
		c0-0.5-0.3-0.9-0.7-1c0,0,0,0.5,0,0.9c0,0.2,0,0.4,0,0.5v4.2H6.4v-1.3v-4.2C6.2-4.4,6.1-4.2,6-4.1C5.7-3.7,5.7-3.7,5.7-3v4.1h-1v-4
		c0-0.9,0.5-1.7,1.3-2.2c0.5-0.3,0-0.2,0.5-0.3v-0.9H4.6V-7h1.8v-1.3h1.2L7.6-7z"/>
	<path id="路径_74" class="st0" d="M17.1-6.4v1.5H18c1,0,1.3,0,1.7-0.3C19.9-5.4,20-5.7,20-6.7v-1.4h1.2v0.3
		c0,1.5,0.1,2.4-0.7,3.2C20.2-4.3,19.8-4,18.8-4H17v4.4h1.7l0.4-0.1C19.7,0.1,20-0.2,20-0.6v-0.7v-1.9h1.2v1.6
		c0,1.8-0.4,2.3-1.4,2.7c-0.4,0.1-0.8,0.2-1.2,0.1h-4.1c-0.5,0-0.9,0-1.4-0.1c-0.8-0.2-1.4-0.9-1.6-1.8c-0.1-0.6-0.1-1.2-0.1-1.8
		v-0.8h1.2v1c0,0.4,0,0.8,0,1.1c0,0.2,0,0.7,0.3,1c0.2,0.2,0.3,0.3,1,0.4h1.7v-4.4h-2.1c-0.7,0-1.3-0.3-1.7-0.8
		c-0.5-0.7-0.5-2.2-0.5-3.3h1.2v1.5c0,0.8,0.1,1,0.3,1.3s0.5,0.5,1,0.5h1.8v-3.6h1.3L17.1-6.4L17.1-6.4z"/>
	<path id="路径_75" class="st0" d="M33.8,0.7V1c-0.5,0-1.1-0.2-1.5-0.5c-0.2-0.2-0.3-0.3-0.5-0.4c-0.7,0.6-1.6,0.9-2.5,1V0.5
		c0.4-0.1,0.9-0.2,1.2-0.4c0.3-0.2,0.6-0.3,0.6-0.6c-0.2-0.3-0.4-0.7-0.5-1c-0.2-0.5-0.4-1.1-0.5-2.6v-0.4h1.2v0.4
		c0,0.1,0,0.3,0,0.4c0,1,0.2,1.9,0.4,2h0.1c0.3-0.2,0.3-1.4,0.3-2.8v-0.7h-2.7v1.7c0,0.9,0,1.9-0.1,2.8c-0.2,1-1,1.8-1.7,1.8h-0.3
		V0.3c0.4-0.1,0.7-0.5,0.8-1c0.1-0.8,0.1-1.6,0.1-2.5V-4v-1.1c0-1.1,0-3.4,0-3.4h5.3v0.8h-4.1v1.6h3.9c0,0.7,0,1.9,0,1.9
		s0,0.7,0,0.9v0.4c-0.1,0.7-0.3,1.4-0.7,2c-0.1,0.1-0.2,0.2-0.2,0.3c0.3,0.5,0.8,0.8,1.4,1V0.7z M27.8-4.2h-2.5v0.5h2.5V-3h-0.6v4
		H26V0.3v-1.4v-1.6V-3h-0.7c0,0.5,0,0.7-0.1,1.4c0,0.4-0.1,0.7-0.1,1.1c-0.2,0.6-0.5,1.4-1.4,1.6c-0.2,0-0.3,0-0.5,0.1V0.3
		C23.8,0.2,23.9,0,24-0.8c0.1-0.5,0.1-1.1,0.1-1.6c0-1.7,0-1.6,0-4.6v-1.4h1.2v3.5H26v-3.5h1.3v3.5h0.5V-4.2L27.8-4.2z"/>
</g>
</svg>
