<?xml version="1.0" encoding="utf-8"?>
<!-- Generator: Adobe Illustrator 23.0.3, SVG Export Plug-In . SVG Version: 6.00 Build 0)  -->
<svg version="1.1" id="圖層_1" xmlns="http://www.w3.org/2000/svg" xmlns:xlink="http://www.w3.org/1999/xlink" x="0px" y="0px"
	 viewBox="0 0 125.5 56.7" style="enable-background:new 0 0 125.5 56.7;" xml:space="preserve">
<style type="text/css">
	.st0{fill:#FFFFFF;}
	.st1{fill:#DE3F2E;}
	.st2{font-family:'PingFangTC-Regular-B5pc-H';}
	.st3{font-size:30px;}
</style>
<g id="组_132" transform="translate(-326 -252)">
	<circle id="椭圆_14" class="st0" cx="354.5" cy="280.6" r="26.6"/>
	<g id="组_131" transform="translate(-1)">
		<path id="路径_226" class="st1" d="M355.3,252.8c15.3,0,27.6,12.3,27.7,27.6l0,0c0.1,15.2-12.2,27.6-27.4,27.6
			c-0.1,0-0.1,0-0.2,0c-15.1,0.1-27.5-12-27.7-27.2c0-0.2,0-0.3,0-0.5c-0.1-15.2,12.2-27.6,27.4-27.6
			C355.2,252.8,355.3,252.8,355.3,252.8z M355.3,296L355.3,296c3.4,0,6.9,0,10.3,0c3,0,5.4-2.5,5.4-5.5s-2.4-5.4-5.4-5.5
			c-6.8,0-13.6,0-20.5,0c-0.3,0-0.5,0-0.8,0c-2.9,0.4-4.9,3-4.7,5.9c0.3,2.8,2.7,5,5.5,5C348.6,296.1,351.9,296,355.3,296z
			 M355.3,264.8L355.3,264.8h-3.5c-1,0-1.4,0.3-1.4,1.4c0,2,0,3.9,0,5.9c0,0.8-0.3,1.1-1.2,1.1c-0.8,0-1.7,0-2.5,0
			c-0.2,0-0.5,0.1-0.7,0.2c0.1,0.2,0.2,0.4,0.3,0.6c2.7,2.7,5.5,5.4,8.2,8.1c0.3,0.4,0.9,0.5,1.3,0.2c0.1-0.1,0.1-0.1,0.2-0.2
			c2.7-2.7,5.5-5.5,8.2-8.2c0.1-0.2,0.2-0.4,0.3-0.6c-0.2-0.1-0.4-0.2-0.6-0.2c-0.8,0-1.7,0-2.5,0c-0.9,0-1.2-0.3-1.2-1.2
			c0-2,0-4,0-6c0.1-0.6-0.3-1.1-0.9-1.2c-0.1,0-0.2,0-0.3,0C357.8,264.8,356.5,264.8,355.3,264.8L355.3,264.8z"/>
		<path id="路径_227" class="st1" d="M362.3,290.4c-0.1-1.7,1.3-3.1,3-3.2c0.1,0,0.1,0,0.2,0c1.7,0,3.1,1.3,3.1,3v0.1
			c0.1,1.7-1.2,3.1-2.9,3.2c-0.1,0-0.2,0-0.3,0c-1.7,0-3.1-1.3-3.1-3C362.3,290.4,362.3,290.4,362.3,290.4z"/>
	</g>
</g>
<text transform="matrix(1 0 0 1 62.429 38.7697)" class="st2 st3">下載</text>
</svg>
