<?xml version="1.0" encoding="utf-8"?>
<!-- Generator: Adobe Illustrator 23.0.3, SVG Export Plug-In . SVG Version: 6.00 Build 0)  -->
<svg version="1.1" id="圖層_1" xmlns="http://www.w3.org/2000/svg" xmlns:xlink="http://www.w3.org/1999/xlink" x="0px" y="0px"
	 viewBox="0 0 10.5 13.9" style="enable-background:new 0 0 10.5 13.9;" xml:space="preserve">
<style type="text/css">
	.st0{fill:#FFFFFF;}
</style>
<path class="st0" d="M6.6,6.8C5.8,7.6,5.1,8.4,4.3,9.2c-0.7,0.7-1.4,1.4-2.1,2.1S1.8,13,2.6,13.4c0.5,0.2,1,0.1,1.5-0.3
	c1.3-1.3,2.6-2.6,3.9-3.9c0.4-0.4,0.9-0.8,1.4-1.3c0.6-0.5,0.5-1.5,0-2C9.2,5.8,9.1,5.6,8.9,5.5C7.3,3.9,5.7,2.3,4.1,0.7
	C3.8,0.4,3.4,0.2,2.9,0.3S2,0.7,1.9,1.2c-0.2,0.5,0,1,0.4,1.4C3.7,4,5.1,5.4,6.4,6.7C6.5,6.7,6.5,6.7,6.6,6.8z"/>
</svg>
