<?xml version="1.0" encoding="utf-8"?>
<!-- Generator: Adobe Illustrator 23.0.3, SVG Export Plug-In . SVG Version: 6.00 Build 0)  -->
<svg version="1.1" id="圖層_1" xmlns="http://www.w3.org/2000/svg" xmlns:xlink="http://www.w3.org/1999/xlink" x="0px" y="0px"
	 viewBox="0 0 93.5 99.2" style="enable-background:new 0 0 93.5 99.2;" xml:space="preserve">
<style type="text/css">
	.st0{fill:#389ED0;}
	.st1{fill:#FFFFFF;}
	.st2{enable-background:new    ;}
	.st3{fill:#F7F7F7;}
</style>
<path id="路径_132_5_" class="st0" d="M4.6,31.5v36.2c0,3.9,2.1,7.5,5.4,9.4l31.3,18.1c3.4,1.9,7.5,1.9,10.9,0l31.3-18.1
	c3.4-1.9,5.4-5.5,5.4-9.4V31.5c0-3.9-2.1-7.5-5.4-9.4L52.2,4c-3.4-1.9-7.5-1.9-10.9,0L10,22.1C6.7,24.1,4.6,27.6,4.6,31.5z"/>
<g>
	<g id="Award_5_" transform="translate(26.866 14.688)">
		<path id="路径_133_5_" class="st1" d="M19.9,10.4c-6.1,0-11,4.9-11,11c0,6.1,4.9,11,11,11c6.1,0,11-4.9,11-11l0,0
			C30.9,15.3,26,10.4,19.9,10.4z M27.6,20.7l-2.7,2.9l0.5,4c0.1,0.5-0.1,0.9-0.5,1.2C24.6,29,24.4,29,24.1,29c-0.2,0-0.4,0-0.5-0.1
			l-3.6-1.7l-3.6,1.7c-0.4,0.2-0.9,0.1-1.3-0.1c-0.4-0.3-0.6-0.7-0.5-1.2l0.5-4l-2.7-2.9c-0.5-0.5-0.5-1.3,0.1-1.8
			c0.2-0.2,0.4-0.3,0.6-0.3l4-0.8l2-3.5c0.3-0.6,1.1-0.8,1.7-0.5c0.2,0.1,0.4,0.3,0.5,0.5l2,3.5l4,0.8c0.7,0.1,1.2,0.8,1,1.5
			C27.9,20.3,27.8,20.5,27.6,20.7L27.6,20.7z"/>
		<path id="路径_134_5_" class="st1" d="M22.6,36.3c0.1-0.1,0.2-0.1,0.3-0.2h0c0.1-0.1,0.2-0.1,0.3-0.1c0.2-0.1,0.5-0.2,0.7-0.2
			l0.1,0c0.1,0,0.1,0,0.2,0c0,0,0.1,0,0.1,0c0.1,0,0.2,0,0.4,0h0c0,0,0.1,0,0.1,0c0.1,0,0.3,0,0.4,0c0.1,0,0.3,0,0.4,0.1
			c0.1,0,0.2,0,0.3,0c0.1,0,0.2,0,0.3,0h0.1c0.5,0,0.9-0.1,1.3-0.3c0.2-0.1,0.3-0.2,0.5-0.3c0.1-0.1,0.1-0.1,0.2-0.2
			c0.1-0.1,0.2-0.2,0.3-0.3c0-0.1,0.1-0.1,0.1-0.2c0.1-0.1,0.1-0.2,0.2-0.2c0-0.1,0.1-0.2,0.1-0.2c0-0.1,0.1-0.2,0.1-0.3
			c0.1-0.3,0.2-0.5,0.3-0.7c0.1-0.2,0.2-0.3,0.3-0.4c0-0.1,0.1-0.1,0.2-0.2c0.1-0.1,0.1-0.1,0.2-0.2l0.2-0.2c0,0,0,0,0,0
			c0,0,0.1-0.1,0.1-0.1c0,0,0,0,0,0c0.4-0.4,1-0.7,1.5-0.9c1.2-0.4,2.1-1.6,2.1-2.8c0-0.2,0-0.4-0.1-0.6c-0.3-1.4,0.1-2.8,1-3.8
			c0,0,0,0,0,0c1-1.1,1-2.9,0-4c-0.9-1-1.3-2.4-1-3.8c0-0.2,0.1-0.4,0.1-0.6c0-1.3-0.8-2.4-2.1-2.8c-1.3-0.4-2.3-1.5-2.8-2.8
			c-0.1-0.3-0.3-0.6-0.5-0.9c-0.6-0.7-1.4-1.1-2.4-1.1c-0.2,0-0.4,0-0.6,0.1c-1.4,0.3-2.8-0.1-3.8-1c-1.1-1-2.9-1-4,0
			c0,0-0.1,0-0.1,0.1c-1,0.9-2.4,1.2-3.7,1c-0.2,0-0.4-0.1-0.6-0.1c-0.9,0-1.8,0.4-2.4,1.1c-0.2,0.3-0.4,0.6-0.5,0.9
			C10.2,11,9.2,12,7.9,12.4c-1.2,0.4-2.1,1.6-2.1,2.8c0,0.2,0,0.4,0.1,0.6c0.3,1.4-0.1,2.8-1,3.8c-1,1.1-1,2.9,0,4
			c0.9,1,1.3,2.4,1,3.8c0,0.2-0.1,0.4-0.1,0.6c0,1.3,0.8,2.4,2.1,2.8c0.6,0.2,1.2,0.5,1.6,1c0,0,0,0,0,0c0.1,0.1,0.2,0.2,0.4,0.4
			c0.2,0.2,0.3,0.4,0.4,0.7c0.1,0.2,0.2,0.5,0.3,0.7c0.1,0.2,0.2,0.4,0.3,0.6c0,0.1,0.1,0.1,0.1,0.2c0,0.1,0.1,0.1,0.2,0.2
			c0,0.1,0.1,0.1,0.1,0.1c0,0,0.1,0.1,0.1,0.1c0,0,0.1,0.1,0.1,0.1c0.1,0.1,0.1,0.1,0.2,0.1c0.1,0.1,0.1,0.1,0.2,0.2
			c0.1,0,0.1,0.1,0.2,0.1c0,0,0,0,0,0c0.2,0.1,0.3,0.2,0.5,0.2c0.3,0.1,0.6,0.1,0.9,0.1h0c0.1,0,0.2,0,0.2,0c0.1,0,0.2,0,0.3,0
			c1.3-0.3,2.7,0.1,3.7,1l0,0h0c0,0,0,0,0,0c1.1,1,2.9,1,4,0c0,0,0,0,0,0c0.1-0.1,0.2-0.2,0.3-0.3C22.4,36.4,22.5,36.3,22.6,36.3z
			 M19.9,33.7c-6.8,0-12.3-5.5-12.3-12.3S13.1,9,19.9,9s12.3,5.5,12.3,12.3l0,0C32.2,28.2,26.7,33.7,19.9,33.7L19.9,33.7z"/>
		<path id="路径_135_5_" class="st1" d="M9.3,34.2c-0.2-0.6-0.6-1.2-1.2-1.5l-4,7.7c-0.2,0.3,0,0.8,0.3,0.9c0.1,0,0.2,0.1,0.2,0.1
			l4.2,0.3l2.6-4.9C10.5,36.2,9.7,35.3,9.3,34.2z"/>
		<path id="路径_136_5_" class="st1" d="M17,37.8C17,37.8,17,37.8,17,37.8c-0.6-0.5-1.3-0.8-2-0.8c-0.2,0-0.4,0-0.6,0.1
			c-0.5,0.1-1,0.1-1.6,0l-2.7,5.1l2.7,3.3c0.1,0.2,0.3,0.3,0.5,0.3c0,0,0,0,0.1,0c0.2,0,0.4-0.2,0.5-0.4l3.7-7.1
			C17.4,38.2,17.2,38,17,37.8L17,37.8z"/>
		<path id="路径_137_5_" class="st1" d="M26.3,37.2c-0.3,0-0.6,0-0.9-0.1c-0.2,0-0.4-0.1-0.6-0.1c-0.7,0-1.5,0.3-2,0.8
			c-0.2,0.2-0.4,0.3-0.7,0.5l3.7,7.1c0.1,0.2,0.3,0.3,0.5,0.4c0,0,0,0,0.1,0c0.2,0,0.4-0.1,0.5-0.3l2.6-3.2L27,37.1
			C26.7,37.2,26.5,37.2,26.3,37.2z"/>
		<path id="路径_138_5_" class="st1" d="M31.6,32.6c-0.6,0.4-1,0.9-1.2,1.5c-0.4,1.1-1.2,2-2.2,2.5l2.6,4.9l4.2-0.3
			c0.4,0,0.7-0.4,0.6-0.7c0-0.1,0-0.2-0.1-0.3L31.6,32.6z"/>
	</g>
	<g class="st2">
		<path class="st3" d="M32,69h-4.2v-1h1.6l-0.2-0.6c-0.1-0.2-0.2-0.4-0.3-0.6l1.1-0.1l0.1,0.2c0.1,0.3,0.3,0.7,0.4,1.2H32V69z
			 M28.2,69.8h3.7v0.9h-3.7V69.8z M28.2,71.5h3.7v0.9h-3.7V71.5z M28.2,73.4h3.6v4.1h-1V77h-1.6v0.7h-1V73.4z M30.8,74.3h-1.6v1.7
			h1.6V74.3z M36.2,72.9h2.8v1h-2.8v3.6h-1.1V74h-2.8v-1h2.8v-4.9h-2.6v-1h6.3v1h-2.6V72.9z M33.3,72.1c0-0.2-0.1-0.4-0.1-0.5
			c-0.2-1-0.4-1.8-0.7-2.5l1-0.3c0.2,0.6,0.4,1.1,0.5,1.4l0.4,1.6L33.3,72.1z M38.7,69c-0.3,1.2-0.6,2.3-1,3.2l-1-0.5
			c0.3-0.8,0.6-1.6,0.9-2.4c0-0.1,0.1-0.3,0.1-0.5L38.7,69z"/>
		<path class="st3" d="M41.4,74.2l-0.6-0.9c1.4-0.3,2.6-0.8,3.6-1.5H41V71h2.4l-0.2-0.4l-0.3-0.4l1.1-0.1l0.3,0.5l0.3,0.5h1.3v-1.2
			c-0.4,0-1.1,0-2,0l-1.1,0L42.5,69c1,0,2.2,0,3.6,0c1.7,0,2.9-0.1,3.7-0.2l0.4,0.8l-1.4,0.1l-2,0.1V71h1.4c0.3-0.4,0.5-0.8,0.6-1.1
			l1.1,0.2l-0.3,0.5c-0.1,0.1-0.2,0.3-0.3,0.4h2.4v0.9h-3.5c0.1,0.1,0.2,0.1,0.3,0.1c1,0.6,2.1,1,3.3,1.3l-0.5,0.9l-0.7-0.2v3.7h-1
			v-0.5h-6.6v0.5h-1V74L41.4,74.2z M42.2,68.4v1.5h-1.1v-2.5h4.6l-0.2-0.4l-0.2-0.3l1.2-0.1l0.3,0.4l0.2,0.4h4.5v2.4h-1.1v-1.4H42.2
			z M45.8,74.7V74h-2.7v0.7H45.8z M45.8,76.3v-0.8h-2.7v0.8H45.8z M43.7,73.2h2.1v-1.3h-0.1C45.2,72.3,44.6,72.8,43.7,73.2z
			 M46.9,71.9L46.9,71.9l-0.1,1.3H49c-0.1-0.1-0.3-0.1-0.4-0.2C48,72.6,47.4,72.3,46.9,71.9z M49.7,74.7V74h-2.8v0.7H49.7z
			 M49.7,76.3v-0.8h-2.8v0.8H49.7z"/>
		<path class="st3" d="M56.4,68.3v-1.8h1.1v6.7h-1.1v-2.6h-0.7V71c-0.1,0.9-0.5,1.7-1.2,2.4l-0.8-0.8c0.4-0.3,0.7-0.6,0.8-0.9
			c0.1-0.3,0.2-0.6,0.2-1h-0.9v-0.9h2.5v-0.7h-2.1v-2.3h1v1.5H56.4z M59.8,72.9l-0.1,0.5l-0.1,0.4h5.1v1h-4.2
			c0.9,0.9,2.3,1.5,4.2,1.8l-0.4,1.1c-2.2-0.3-3.9-1.3-5-2.8c-0.8,1.4-2.5,2.3-5.1,2.8l-0.5-1c2.1-0.2,3.6-0.8,4.5-1.8h-4.5v-1h4.8
			c0.1-0.3,0.1-0.5,0.1-0.7c0-0.2,0-0.3,0-0.3L59.8,72.9z M58.3,70.3l-0.5-0.8l0.7,0c0.3,0,0.6-0.1,0.7-0.1c0-0.1-0.1-0.1-0.1-0.1
			C59,69.1,59,69,58.9,68.9l-0.3-0.3l-0.5,0.2L57.5,68c1.3-0.3,2.3-0.8,3-1.4l1.1,0.2l-0.5,0.4h3.4v0.7C63.2,69.2,61.1,70,58.3,70.3
			z M63.7,69.3v1h1v0.9h-1v0.7v0.2c0,0.4-0.1,0.7-0.2,0.9c-0.1,0.2-0.5,0.3-0.9,0.3h-1.2l-0.3-1l1.1,0c0.3,0,0.4-0.1,0.4-0.4v-0.8
			h-4.9v-0.9h4.9v-1H63.7z M60.3,72.9c-0.2-0.3-0.4-0.5-0.6-0.6L59,71.8l0.6-0.6c0.6,0.4,1.1,0.7,1.3,1L60.3,72.9z M60.9,68.9
			l-0.5-0.5c-0.1-0.1-0.3-0.3-0.4-0.4c0,0-0.1,0-0.1-0.1l-0.6,0.3l0.1,0.1c0.1,0.1,0.2,0.2,0.2,0.3l0.3,0.5l0.4-0.1L60.9,68.9z
			 M60.8,67.9l0.5,0.4c0.2,0.2,0.3,0.3,0.4,0.4c0.7-0.2,1.3-0.5,1.6-0.8H60.8z"/>
	</g>
</g>
</svg>
