<?xml version="1.0" encoding="utf-8"?>
<!-- Generator: Adobe Illustrator 23.0.3, SVG Export Plug-In . SVG Version: 6.00 Build 0)  -->
<svg version="1.1" id="圖層_1" xmlns="http://www.w3.org/2000/svg" xmlns:xlink="http://www.w3.org/1999/xlink" x="0px" y="0px"
	 viewBox="0 0 93.5 99.2" style="enable-background:new 0 0 93.5 99.2;" xml:space="preserve">
<style type="text/css">
	.st0{fill:#DEAF37;}
	.st1{fill:#FFFFFF;}
	.st2{enable-background:new    ;}
	.st3{fill:#F7F7F7;}
</style>
<g>
	<path id="路径_132_3_" class="st0" d="M4.6,31.5v36.2c0,3.9,2.1,7.5,5.4,9.4l31.3,18.1c3.4,1.9,7.5,1.9,10.9,0l31.3-18.1
		c3.4-1.9,5.4-5.5,5.4-9.4V31.5c0-3.9-2.1-7.5-5.4-9.4L52.2,4c-3.4-1.9-7.5-1.9-10.9,0L10,22.1C6.7,24.1,4.6,27.6,4.6,31.5z"/>
	<g id="Award_3_" transform="translate(26.866 14.688)">
		<path id="路径_133_3_" class="st1" d="M19.9,9.4c-6.1,0-11,4.9-11,11c0,6.1,4.9,11,11,11c6.1,0,11-4.9,11-11l0,0
			C30.9,14.3,26,9.4,19.9,9.4z M27.6,19.7l-2.7,2.9l0.5,4c0.1,0.5-0.1,0.9-0.5,1.2C24.6,28,24.4,28,24.1,28c-0.2,0-0.4,0-0.5-0.1
			l-3.6-1.7l-3.6,1.7c-0.4,0.2-0.9,0.1-1.3-0.1c-0.4-0.3-0.6-0.7-0.5-1.2l0.5-4l-2.7-2.9c-0.5-0.5-0.5-1.3,0.1-1.8
			c0.2-0.2,0.4-0.3,0.6-0.3l4-0.8l2-3.5c0.3-0.6,1.1-0.8,1.7-0.5c0.2,0.1,0.4,0.3,0.5,0.5l2,3.5l4,0.8c0.7,0.1,1.2,0.8,1,1.5
			C27.9,19.3,27.8,19.5,27.6,19.7L27.6,19.7z"/>
		<path id="路径_134_3_" class="st1" d="M22.6,35.3c0.1-0.1,0.2-0.1,0.3-0.2h0c0.1-0.1,0.2-0.1,0.3-0.1c0.2-0.1,0.5-0.2,0.7-0.2
			l0.1,0c0.1,0,0.1,0,0.2,0c0,0,0.1,0,0.1,0c0.1,0,0.2,0,0.4,0h0c0,0,0.1,0,0.1,0c0.1,0,0.3,0,0.4,0c0.1,0,0.3,0,0.4,0.1
			c0.1,0,0.2,0,0.3,0c0.1,0,0.2,0,0.3,0h0.1c0.5,0,0.9-0.1,1.3-0.3c0.2-0.1,0.3-0.2,0.5-0.3c0.1-0.1,0.1-0.1,0.2-0.2
			c0.1-0.1,0.2-0.2,0.3-0.3c0-0.1,0.1-0.1,0.1-0.2c0.1-0.1,0.1-0.2,0.2-0.2c0-0.1,0.1-0.2,0.1-0.2c0-0.1,0.1-0.2,0.1-0.3
			c0.1-0.3,0.2-0.5,0.3-0.7c0.1-0.2,0.2-0.3,0.3-0.4c0-0.1,0.1-0.1,0.2-0.2c0.1-0.1,0.1-0.1,0.2-0.2l0.2-0.2c0,0,0,0,0,0
			c0,0,0.1-0.1,0.1-0.1c0,0,0,0,0,0c0.4-0.4,1-0.7,1.5-0.9c1.2-0.4,2.1-1.6,2.1-2.8c0-0.2,0-0.4-0.1-0.6c-0.3-1.4,0.1-2.8,1-3.8
			c0,0,0,0,0,0c1-1.1,1-2.9,0-4c-0.9-1-1.3-2.4-1-3.8c0-0.2,0.1-0.4,0.1-0.6c0-1.3-0.8-2.4-2.1-2.8c-1.3-0.4-2.3-1.5-2.8-2.8
			c-0.1-0.3-0.3-0.6-0.5-0.9c-0.6-0.7-1.4-1.1-2.4-1.1c-0.2,0-0.4,0-0.6,0.1c-1.4,0.3-2.8-0.1-3.8-1c-1.1-1-2.9-1-4,0
			c0,0-0.1,0-0.1,0.1c-1,0.9-2.4,1.2-3.7,1c-0.2,0-0.4-0.1-0.6-0.1c-0.9,0-1.8,0.4-2.4,1.1c-0.2,0.3-0.4,0.6-0.5,0.9
			C10.2,10,9.2,11,7.9,11.4c-1.2,0.4-2.1,1.6-2.1,2.8c0,0.2,0,0.4,0.1,0.6c0.3,1.4-0.1,2.8-1,3.8c-1,1.1-1,2.9,0,4
			c0.9,1,1.3,2.4,1,3.8c0,0.2-0.1,0.4-0.1,0.6c0,1.3,0.8,2.4,2.1,2.8c0.6,0.2,1.2,0.5,1.6,1c0,0,0,0,0,0c0.1,0.1,0.2,0.2,0.4,0.4
			c0.2,0.2,0.3,0.4,0.4,0.7c0.1,0.2,0.2,0.5,0.3,0.7c0.1,0.2,0.2,0.4,0.3,0.6c0,0.1,0.1,0.1,0.1,0.2c0,0.1,0.1,0.1,0.2,0.2
			c0,0.1,0.1,0.1,0.1,0.1c0,0,0.1,0.1,0.1,0.1c0,0,0.1,0.1,0.1,0.1c0.1,0.1,0.1,0.1,0.2,0.1c0.1,0.1,0.1,0.1,0.2,0.2
			c0.1,0,0.1,0.1,0.2,0.1c0,0,0,0,0,0c0.2,0.1,0.3,0.2,0.5,0.2c0.3,0.1,0.6,0.1,0.9,0.1h0c0.1,0,0.2,0,0.2,0c0.1,0,0.2,0,0.3,0
			c1.3-0.3,2.7,0.1,3.7,1l0,0h0c0,0,0,0,0,0c1.1,1,2.9,1,4,0c0,0,0,0,0,0c0.1-0.1,0.2-0.2,0.3-0.3C22.4,35.4,22.5,35.3,22.6,35.3z
			 M19.9,32.7c-6.8,0-12.3-5.5-12.3-12.3S13.1,8,19.9,8c6.8,0,12.3,5.5,12.3,12.3l0,0C32.2,27.2,26.7,32.7,19.9,32.7L19.9,32.7z"/>
		<path id="路径_135_3_" class="st1" d="M9.3,33.2c-0.2-0.6-0.6-1.2-1.2-1.5l-4,7.7c-0.2,0.3,0,0.8,0.3,0.9c0.1,0,0.2,0.1,0.2,0.1
			l4.2,0.3l2.6-4.9C10.5,35.2,9.7,34.3,9.3,33.2z"/>
		<path id="路径_136_3_" class="st1" d="M17,36.8C17,36.8,17,36.8,17,36.8c-0.6-0.5-1.3-0.8-2-0.8c-0.2,0-0.4,0-0.6,0.1
			c-0.5,0.1-1,0.1-1.6,0l-2.7,5.1l2.7,3.3c0.1,0.2,0.3,0.3,0.5,0.3c0,0,0,0,0.1,0c0.2,0,0.4-0.2,0.5-0.4l3.7-7.1
			C17.4,37.2,17.2,37,17,36.8L17,36.8z"/>
		<path id="路径_137_3_" class="st1" d="M26.3,36.2c-0.3,0-0.6,0-0.9-0.1c-0.2,0-0.4-0.1-0.6-0.1c-0.7,0-1.5,0.3-2,0.8
			c-0.2,0.2-0.4,0.3-0.7,0.5l3.7,7.1c0.1,0.2,0.3,0.3,0.5,0.4c0,0,0,0,0.1,0c0.2,0,0.4-0.1,0.5-0.3l2.6-3.2L27,36.1
			C26.7,36.2,26.5,36.2,26.3,36.2z"/>
		<path id="路径_138_3_" class="st1" d="M31.6,31.6c-0.6,0.4-1,0.9-1.2,1.5c-0.4,1.1-1.2,2-2.2,2.5l2.6,4.9l4.2-0.3
			c0.4,0,0.7-0.4,0.6-0.7c0-0.1,0-0.2-0.1-0.3L31.6,31.6z"/>
	</g>
	<g class="st2">
		<path class="st3" d="M36.1,65.3l1.2,0.4c-0.5,0.7-1,1.3-1.5,1.9c1.1-0.1,2.2-0.2,3.3-0.3c-0.2-0.2-0.4-0.3-0.6-0.5l0.8-0.7
			c0.9,0.7,1.7,1.5,2.3,2.2l-0.8,0.8c-0.2-0.3-0.5-0.6-0.8-0.9c-0.8,0.1-1.6,0.2-2.4,0.3c-0.1,0.3-0.2,0.6-0.4,0.9h5.5v1h-2.8
			c0.3,0.2,0.6,0.5,1,0.7c0.5,0.3,1.2,0.6,2.2,1l-0.7,0.9c-1.1-0.5-2-0.9-2.6-1.4c-0.5-0.3-0.9-0.7-1.2-1.1h-1.9
			c-0.1,0.2-0.3,0.3-0.4,0.4c-0.6,0.6-1.8,1.3-3.7,2.1l-0.6-1.1c1.3-0.4,2.3-0.9,3-1.4c0,0,0.1,0,0.1,0h-2.8v-1H36
			c0.2-0.2,0.3-0.5,0.4-0.8c-1,0.1-2,0.2-3,0.3l-0.1-1c0.4,0,0.8,0,1.1,0C35.1,67,35.7,66.2,36.1,65.3z M40.2,72.4l0.9,0.4
			c-0.8,0.9-1.6,1.6-2.4,2c-1.2,0.6-2.8,1.1-5,1.6L33,75.5c2.1-0.3,3.7-0.8,4.9-1.3C38.8,73.8,39.5,73.2,40.2,72.4z M37.6,70.6
			l0.7,0.5c-0.5,0.6-1.1,1.1-1.7,1.5c-0.6,0.4-1.5,0.7-2.7,1.1l-0.4-0.9c1-0.3,1.9-0.6,2.5-0.9C36.5,71.6,37,71.2,37.6,70.6z
			 M38.7,71.6l0.8,0.4c-0.6,0.7-1.4,1.3-2.2,1.8c-0.7,0.4-1.6,0.8-2.9,1.1l-0.6-0.8c1.1-0.3,2.1-0.6,2.8-1
			C37.3,72.8,38,72.3,38.7,71.6z"/>
		<path class="st3" d="M52.4,67.3v-1.8h1.1v6.7h-1.1v-2.6h-0.7V70c-0.1,0.9-0.5,1.7-1.2,2.4l-0.8-0.8c0.4-0.3,0.7-0.6,0.8-0.9
			c0.1-0.3,0.2-0.6,0.2-1h-0.9v-0.9h2.5v-0.7h-2.1v-2.3h1v1.5H52.4z M55.8,71.9l-0.1,0.5l-0.1,0.4h5.1v1h-4.2
			c0.9,0.9,2.3,1.5,4.2,1.8l-0.4,1.1c-2.2-0.3-3.9-1.3-5-2.8c-0.8,1.4-2.5,2.3-5.1,2.8l-0.5-1c2.1-0.2,3.6-0.8,4.5-1.8h-4.5v-1h4.8
			c0.1-0.3,0.1-0.5,0.1-0.7s0-0.3,0-0.3L55.8,71.9z M54.3,69.3l-0.5-0.8l0.7,0c0.3,0,0.6-0.1,0.7-0.1c0-0.1-0.1-0.1-0.1-0.1
			C55,68.1,55,68,54.9,67.9l-0.3-0.3l-0.5,0.2L53.5,67c1.3-0.3,2.3-0.8,3-1.4l1.1,0.2l-0.5,0.4h3.4v0.7C59.2,68.2,57.1,69,54.3,69.3
			z M59.7,68.3v1h1v0.9h-1v0.7v0.2c0,0.4-0.1,0.7-0.2,0.9c-0.1,0.2-0.5,0.3-0.9,0.3h-1.2l-0.3-1l1.1,0c0.3,0,0.4-0.1,0.4-0.4v-0.8
			h-4.9v-0.9h4.9v-1H59.7z M56.3,71.9c-0.2-0.3-0.4-0.5-0.6-0.6L55,70.8l0.6-0.6c0.6,0.4,1.1,0.7,1.3,1L56.3,71.9z M56.9,67.9
			l-0.5-0.5c-0.1-0.1-0.3-0.3-0.4-0.4c0,0-0.1,0-0.1-0.1l-0.6,0.3l0.1,0.1c0.1,0.1,0.2,0.2,0.2,0.3l0.3,0.5l0.4-0.1L56.9,67.9z
			 M56.8,66.9l0.5,0.4c0.2,0.2,0.3,0.3,0.4,0.4c0.7-0.2,1.3-0.5,1.6-0.8H56.8z"/>
	</g>
</g>
</svg>
