<?xml version="1.0" encoding="utf-8"?>
<!-- Generator: Adobe Illustrator 23.0.3, SVG Export Plug-In . SVG Version: 6.00 Build 0)  -->
<svg version="1.1" id="圖層_1" xmlns="http://www.w3.org/2000/svg" xmlns:xlink="http://www.w3.org/1999/xlink" x="0px" y="0px"
	 viewBox="0 0 28.3 28.3" style="enable-background:new 0 0 28.3 28.3;" xml:space="preserve">
<style type="text/css">
	.st0{fill:#434343;}
	.st1{fill:#FFFFFF;}
</style>
<g>
	<g>
		<circle class="st0" cx="14.1" cy="14.1" r="13.8"/>
	</g>
	<path class="st1" d="M14.2,13.4c0.8,0.8,1.5,1.5,2.3,2.3c0.7,0.7,1.4,1.4,2.1,2.1s1.7,0.4,2.1-0.4c0.2-0.5,0.1-1-0.3-1.5
		c-1.3-1.3-2.6-2.6-3.9-3.9c-0.5-0.5-0.9-0.9-1.3-1.4c-0.5-0.6-1.4-0.5-2,0c-0.1,0.2-0.3,0.3-0.4,0.5c-1.6,1.6-3.2,3.2-4.8,4.8
		c-0.3,0.3-0.5,0.7-0.4,1.2s0.4,0.9,0.9,1c0.5,0.2,1,0,1.4-0.4c1.4-1.4,2.8-2.8,4.1-4.1C14,13.5,14.1,13.5,14.2,13.4z"/>
</g>
</svg>
