<?xml version="1.0" encoding="utf-8"?>
<!-- Generator: Adobe Illustrator 23.0.3, SVG Export Plug-In . SVG Version: 6.00 Build 0)  -->
<svg version="1.1" id="圖層_1" xmlns="http://www.w3.org/2000/svg" xmlns:xlink="http://www.w3.org/1999/xlink" x="0px" y="0px"
	 viewBox="0 0 28.3 28.3" style="enable-background:new 0 0 28.3 28.3;" xml:space="preserve">
<style type="text/css">
	.st0{fill:#344C6F;}
	.st1{fill:#F4A57A;}
</style>
<g id="组_53" transform="translate(1021.665 -879.05)">
	<path id="路径_150" class="st0" d="M-995.1,902.8c-0.1-0.3-0.2-0.4-0.3-0.6c-0.9-2-1.8-4-2.7-6c-0.1-0.2-0.2-0.3-0.4-0.4
		c-1.3-0.6-2.6-1.2-3.8-1.8c-0.1,0-0.2-0.1-0.3-0.1l0.4-0.9l1.1,0.5c1.1,0.5,2.2,1,3.3,1.5c0.2,0.1,0.4,0.3,0.5,0.5
		c1.2,2.6,2.4,5.3,3.6,7.9c0.1,0.2,0.2,0.5,0,0.7c-0.2,0.2-0.5,0.1-0.7,0c-2-0.9-4-1.8-6-2.7c-0.2-0.1-0.4-0.1-0.5,0
		c-2,1.1-4,2.2-5.9,3.4c-0.3,0.2-0.6,0.2-0.8,0c-2-1.1-4-2.2-6-3.4c-0.2-0.1-0.4-0.1-0.5,0c-2,0.9-4,1.8-6,2.7
		c-0.1,0-0.1,0.1-0.2,0.1c-0.2,0-0.4,0-0.5-0.1c-0.2-0.1-0.2-0.4-0.1-0.6c0.3-0.7,0.6-1.4,1-2.1c0.9-2,1.8-3.9,2.7-5.9
		c0.1-0.2,0.3-0.4,0.5-0.5c1.4-0.6,2.8-1.2,4.1-1.8c0.1,0,0.2-0.1,0.3-0.1l0.4,0.9c-0.4,0.2-0.7,0.3-1.1,0.5c-1,0.5-2.1,0.9-3.1,1.4
		c-0.1,0.1-0.3,0.2-0.3,0.3c-1,2.2-2,4.3-2.9,6.5c0,0.1,0,0.1-0.1,0.2c0.1,0,0.2-0.1,0.3-0.1c1.6-0.7,3.2-1.4,4.8-2.2
		c0.2-0.1,0.3-0.2,0.3-0.4c0.5-1.3,1-2.6,1.5-3.9c0.1-0.2,0.2-0.3,0.3-0.4c0.2,0,0.3,0,0.5,0.1c0.1,0.2,0.1,0.3,0.1,0.5
		c-0.4,1-0.8,2-1.1,3c-0.1,0.3-0.2,0.6-0.3,0.9c0,0.1,0,0.2,0.1,0.3c1.8,1,3.5,2,5.4,3.1v-3.1h0.9v3.1c0.1-0.1,0.2-0.1,0.3-0.1
		c1.7-0.9,3.3-1.9,5-2.8c0.2-0.1,0.3-0.2,0.2-0.4c0,0,0-0.1,0-0.1c-0.5-1.2-1-2.5-1.4-3.8c-0.1-0.2,0-0.4,0.1-0.5
		c0.1-0.1,0.3-0.2,0.5-0.1c0.2,0.1,0.3,0.2,0.4,0.4c0.4,1,0.8,2,1.2,3c0.2,0.8,0.8,1.4,1.6,1.7c1.3,0.5,2.5,1.1,3.8,1.7
		C-995.4,902.6-995.3,902.7-995.1,902.8z"/>
	<path id="路径_151" class="st1" d="M-1007.4,881.5c2.8,0,5.2,2.2,5.6,5c0.1,1-0.1,2-0.5,3c-1.1,2.9-2.5,5.6-4,8.3
		c-0.2,0.4-0.4,0.7-0.6,1.1c-0.1,0.2-0.4,0.4-0.6,0.3c-0.1,0-0.2-0.1-0.3-0.3c-1.8-3-3.3-6.1-4.6-9.3c-0.3-0.7-0.5-1.5-0.5-2.3
		C-1013,884.1-1010.5,881.5-1007.4,881.5z"/>
	<path id="路径_152" class="st0" d="M-1007.4,884c1.7,0,3.1,1.4,3.1,3.1c-0.1,1.7-1.4,3.1-3.1,3.1c-1.7,0-3.1-1.4-3.1-3.2
		C-1010.5,885.4-1009.1,884-1007.4,884z M-1005.2,887.1c0-1.2-0.9-2.1-2-2.2c-0.1,0-0.1,0-0.2,0c-1.2,0-2.1,0.9-2.2,2
		c0,0.1,0,0.1,0,0.2c0,1.2,0.9,2.1,2,2.2c0.1,0,0.1,0,0.2,0c1.2,0,2.1-0.9,2.2-2C-1005.2,887.2-1005.2,887.2-1005.2,887.1z"/>
</g>
</svg>
