<?xml version="1.0" encoding="utf-8"?>
<!-- Generator: Adobe Illustrator 23.0.3, SVG Export Plug-In . SVG Version: 6.00 Build 0)  -->
<svg version="1.1" id="圖層_1" xmlns="http://www.w3.org/2000/svg" xmlns:xlink="http://www.w3.org/1999/xlink" x="0px" y="0px"
	 viewBox="0 0 800.3 373.9" style="enable-background:new 0 0 800.3 373.9;" xml:space="preserve">
<style type="text/css">
	.st0{enable-background:new    ;}
	.st1{fill:#FFFFFF;}
	.st2{fill:#F3C035;}
	.st3{fill:none;stroke:#FFFFFF;stroke-width:2;stroke-linecap:round;stroke-linejoin:round;}
	.st4{fill:#FFFFFF;stroke:#FFFFFF;stroke-linecap:round;stroke-linejoin:round;}
	.st5{fill:none;stroke:#FFFFFF;stroke-width:1.5;stroke-miterlimit:10;}
	.st6{fill:none;stroke:#FFFFFF;stroke-width:2;stroke-miterlimit:10;}
	.st7{fill:#FFFFFF;stroke:#FFFFFF;stroke-width:2;stroke-miterlimit:10;}
	.st8{fill:none;stroke:#FFFFFE;stroke-width:1.5;stroke-miterlimit:10;}
	.st9{opacity:0.996;fill:#FFFFFF;enable-background:new    ;}
	.st10{fill:#003C88;}
	.st11{fill:#C01A20;}
</style>
<g id="组_136" transform="translate(205 -39)">
	<g id="组_129" transform="translate(-71.927 -197)">
		<g class="st0">
			<path class="st1" d="M383.5,346.3h2.7v12h-2.7V346.3z"/>
			<path class="st1" d="M389,346.3h3.6l5.1,8.4h0v-8.4h2.7v12h-3.5l-5.3-8.6h0v8.6H389V346.3z"/>
			<path class="st1" d="M403.3,346.3h3.6l5.1,8.4h0v-8.4h2.7v12h-3.5l-5.3-8.6h0v8.6h-2.7V346.3z"/>
			<path class="st1" d="M416.9,352.4c0-1,0.2-1.8,0.5-2.6s0.8-1.4,1.4-2c0.6-0.5,1.3-1,2.1-1.3c0.8-0.3,1.7-0.4,2.6-0.4
				c0.9,0,1.8,0.1,2.6,0.4c0.8,0.3,1.5,0.7,2.1,1.3c0.6,0.5,1,1.2,1.4,2s0.5,1.7,0.5,2.6c0,1-0.2,1.8-0.5,2.6
				c-0.3,0.8-0.8,1.4-1.4,2s-1.3,1-2.1,1.3c-0.8,0.3-1.7,0.4-2.6,0.4c-0.9,0-1.8-0.1-2.6-0.4c-0.8-0.3-1.5-0.7-2.1-1.3s-1-1.2-1.4-2
				C417.1,354.2,416.9,353.3,416.9,352.4z M419.7,352.4c0,0.6,0.1,1.1,0.3,1.6c0.2,0.5,0.4,0.9,0.8,1.2s0.7,0.6,1.2,0.8
				c0.5,0.2,1,0.3,1.5,0.3c0.6,0,1.1-0.1,1.5-0.3c0.5-0.2,0.9-0.5,1.2-0.8c0.3-0.3,0.6-0.8,0.8-1.2c0.2-0.5,0.3-1,0.3-1.6
				c0-0.6-0.1-1.1-0.3-1.5c-0.2-0.5-0.4-0.9-0.8-1.2c-0.3-0.3-0.7-0.6-1.2-0.8c-0.5-0.2-1-0.3-1.5-0.3c-0.6,0-1.1,0.1-1.5,0.3
				c-0.5,0.2-0.9,0.5-1.2,0.8c-0.3,0.3-0.6,0.8-0.8,1.2C419.7,351.3,419.7,351.8,419.7,352.4z"/>
			<path class="st1" d="M430.9,346.3h3l3,7.9h0l3-7.9h2.8l-5,12h-2.1L430.9,346.3z"/>
			<path class="st1" d="M447.5,346.3h2.2l5.2,12h-3l-1-2.5h-4.7l-1,2.5h-2.9L447.5,346.3z M448.6,349.8l-1.5,3.7h2.9L448.6,349.8z"
				/>
			<path class="st1" d="M457.4,348.7h-3.4v-2.3h9.5v2.3H460v9.7h-2.7V348.7z"/>
			<path class="st1" d="M465.2,346.3h2.7v12h-2.7V346.3z"/>
			<path class="st1" d="M469.5,346.3h3l3,7.9h0l3-7.9h2.8l-5,12h-2.1L469.5,346.3z"/>
			<path class="st1" d="M483.2,346.3h8.2v2.4h-5.5v2.2h5.2v2.4h-5.2v2.4h5.8v2.4h-8.5V346.3z"/>
		</g>
		<g class="st0">
			<path class="st1" d="M391.4,369.5c-0.3-0.3-0.6-0.6-1-0.7c-0.4-0.2-0.8-0.3-1.3-0.3c-0.5,0-1,0.1-1.4,0.3
				c-0.4,0.2-0.8,0.5-1.1,0.8c-0.3,0.3-0.6,0.8-0.7,1.2c-0.2,0.5-0.3,1-0.3,1.5c0,0.6,0.1,1.1,0.3,1.6c0.2,0.5,0.4,0.9,0.7,1.2
				c0.3,0.3,0.7,0.6,1.1,0.8c0.4,0.2,0.9,0.3,1.3,0.3c0.5,0,1-0.1,1.4-0.3c0.4-0.2,0.8-0.5,1-1l2.2,1.6c-0.5,0.7-1.2,1.2-1.9,1.6
				c-0.8,0.3-1.6,0.5-2.4,0.5c-0.9,0-1.8-0.1-2.6-0.4c-0.8-0.3-1.5-0.7-2.1-1.3s-1-1.2-1.4-2c-0.3-0.8-0.5-1.7-0.5-2.6
				c0-1,0.2-1.8,0.5-2.6s0.8-1.4,1.4-2c0.6-0.5,1.3-1,2.1-1.3c0.8-0.3,1.7-0.4,2.6-0.4c0.3,0,0.7,0,1.1,0.1c0.4,0.1,0.7,0.2,1.1,0.3
				c0.4,0.1,0.7,0.3,1,0.5c0.3,0.2,0.6,0.5,0.9,0.8L391.4,369.5z"/>
			<path class="st1" d="M395.6,366.3h4.7c0.6,0,1.2,0.1,1.7,0.2s1,0.3,1.4,0.6c0.4,0.3,0.7,0.7,1,1.1c0.2,0.5,0.4,1.1,0.4,1.8
				c0,0.8-0.2,1.6-0.7,2.2c-0.4,0.6-1.1,1-1.9,1.1l3.1,5.1h-3.2l-2.5-4.8h-1.3v4.8h-2.7V366.3z M398.3,371.3h1.6c0.2,0,0.5,0,0.8,0
				c0.3,0,0.5-0.1,0.7-0.2c0.2-0.1,0.4-0.2,0.5-0.4c0.1-0.2,0.2-0.4,0.2-0.8c0-0.3-0.1-0.5-0.2-0.7c-0.1-0.2-0.3-0.3-0.5-0.4
				c-0.2-0.1-0.4-0.2-0.7-0.2c-0.2,0-0.5-0.1-0.7-0.1h-1.7V371.3z"/>
			<path class="st1" d="M406.4,372.4c0-1,0.2-1.8,0.5-2.6s0.8-1.4,1.4-2c0.6-0.5,1.3-1,2.1-1.3c0.8-0.3,1.7-0.4,2.6-0.4
				c0.9,0,1.8,0.1,2.6,0.4c0.8,0.3,1.5,0.7,2.1,1.3c0.6,0.5,1,1.2,1.4,2s0.5,1.7,0.5,2.6c0,1-0.2,1.8-0.5,2.6
				c-0.3,0.8-0.8,1.4-1.4,2s-1.3,1-2.1,1.3c-0.8,0.3-1.7,0.4-2.6,0.4c-0.9,0-1.8-0.1-2.6-0.4c-0.8-0.3-1.5-0.7-2.1-1.3s-1-1.2-1.4-2
				C406.6,374.2,406.4,373.3,406.4,372.4z M409.2,372.4c0,0.6,0.1,1.1,0.3,1.6c0.2,0.5,0.4,0.9,0.8,1.2s0.7,0.6,1.2,0.8
				c0.5,0.2,1,0.3,1.5,0.3c0.6,0,1.1-0.1,1.5-0.3c0.5-0.2,0.9-0.5,1.2-0.8c0.3-0.3,0.6-0.8,0.8-1.2c0.2-0.5,0.3-1,0.3-1.6
				c0-0.6-0.1-1.1-0.3-1.5c-0.2-0.5-0.4-0.9-0.8-1.2c-0.3-0.3-0.7-0.6-1.2-0.8c-0.5-0.2-1-0.3-1.5-0.3c-0.6,0-1.1,0.1-1.5,0.3
				c-0.5,0.2-0.9,0.5-1.2,0.8c-0.3,0.3-0.6,0.8-0.8,1.2C409.2,371.3,409.2,371.8,409.2,372.4z"/>
			<path class="st1" d="M427.6,369.3c-0.2-0.3-0.5-0.5-0.9-0.6c-0.4-0.1-0.7-0.2-1-0.2c-0.2,0-0.4,0-0.6,0.1c-0.2,0-0.4,0.1-0.6,0.2
				s-0.3,0.2-0.4,0.4c-0.1,0.2-0.2,0.4-0.2,0.6c0,0.4,0.1,0.6,0.4,0.8c0.3,0.2,0.6,0.4,1,0.5c0.4,0.1,0.9,0.3,1.3,0.4
				s0.9,0.3,1.3,0.6c0.4,0.2,0.8,0.6,1,1c0.3,0.4,0.4,1,0.4,1.7c0,0.7-0.1,1.3-0.4,1.8c-0.2,0.5-0.6,0.9-1,1.2
				c-0.4,0.3-0.9,0.6-1.5,0.7c-0.6,0.2-1.2,0.2-1.8,0.2c-0.8,0-1.5-0.1-2.2-0.4c-0.7-0.2-1.3-0.6-1.9-1.2l1.9-2.1
				c0.3,0.4,0.6,0.6,1,0.8c0.4,0.2,0.8,0.3,1.3,0.3c0.2,0,0.4,0,0.7-0.1s0.4-0.1,0.6-0.2c0.2-0.1,0.3-0.2,0.4-0.4
				c0.1-0.2,0.2-0.3,0.2-0.6c0-0.4-0.1-0.6-0.4-0.9c-0.3-0.2-0.6-0.4-1-0.5c-0.4-0.1-0.9-0.3-1.4-0.4c-0.5-0.1-0.9-0.3-1.4-0.6
				c-0.4-0.2-0.8-0.6-1-1c-0.3-0.4-0.4-0.9-0.4-1.6c0-0.6,0.1-1.2,0.4-1.7s0.6-0.9,1-1.2c0.4-0.3,0.9-0.6,1.5-0.7
				c0.6-0.2,1.1-0.2,1.7-0.2c0.7,0,1.3,0.1,2,0.3s1.2,0.5,1.7,1L427.6,369.3z"/>
			<path class="st1" d="M437.7,369.3c-0.2-0.3-0.5-0.5-0.9-0.6c-0.4-0.1-0.7-0.2-1-0.2c-0.2,0-0.4,0-0.6,0.1c-0.2,0-0.4,0.1-0.6,0.2
				c-0.2,0.1-0.3,0.2-0.4,0.4c-0.1,0.2-0.2,0.4-0.2,0.6c0,0.4,0.1,0.6,0.4,0.8c0.3,0.2,0.6,0.4,1,0.5c0.4,0.1,0.9,0.3,1.3,0.4
				c0.5,0.1,0.9,0.3,1.3,0.6s0.8,0.6,1,1c0.3,0.4,0.4,1,0.4,1.7c0,0.7-0.1,1.3-0.4,1.8c-0.2,0.5-0.6,0.9-1,1.2
				c-0.4,0.3-0.9,0.6-1.5,0.7c-0.6,0.2-1.2,0.2-1.8,0.2c-0.8,0-1.5-0.1-2.2-0.4c-0.7-0.2-1.3-0.6-1.9-1.2l1.9-2.1
				c0.3,0.4,0.6,0.6,1,0.8c0.4,0.2,0.8,0.3,1.3,0.3c0.2,0,0.4,0,0.7-0.1c0.2-0.1,0.4-0.1,0.6-0.2c0.2-0.1,0.3-0.2,0.4-0.4
				s0.2-0.3,0.2-0.6c0-0.4-0.1-0.6-0.4-0.9c-0.3-0.2-0.6-0.4-1-0.5s-0.9-0.3-1.4-0.4c-0.5-0.1-0.9-0.3-1.4-0.6c-0.4-0.2-0.8-0.6-1-1
				c-0.3-0.4-0.4-0.9-0.4-1.6c0-0.6,0.1-1.2,0.4-1.7c0.3-0.5,0.6-0.9,1-1.2c0.4-0.3,0.9-0.6,1.5-0.7c0.6-0.2,1.1-0.2,1.7-0.2
				c0.7,0,1.3,0.1,2,0.3s1.2,0.5,1.7,1L437.7,369.3z"/>
			<path class="st1" d="M445.4,375.2h-4.2v-2h4.2V375.2z"/>
			<path class="st1" d="M447.4,366.3h4c1,0,1.9,0.1,2.7,0.3s1.6,0.6,2.3,1c0.6,0.5,1.2,1.1,1.5,1.9s0.6,1.7,0.6,2.8
				c0,1-0.2,1.8-0.6,2.6s-0.9,1.4-1.5,1.9c-0.6,0.5-1.3,0.9-2.2,1.1c-0.8,0.3-1.7,0.4-2.6,0.4h-4.3V366.3z M450.1,375.9h1.4
				c0.6,0,1.2-0.1,1.7-0.2c0.5-0.1,1-0.3,1.4-0.6c0.4-0.3,0.7-0.7,0.9-1.1c0.2-0.5,0.3-1,0.3-1.7c0-0.6-0.1-1.1-0.3-1.5
				s-0.5-0.8-0.9-1.1c-0.4-0.3-0.8-0.5-1.3-0.6c-0.5-0.1-1-0.2-1.6-0.2h-1.6V375.9z"/>
			<path class="st1" d="M460.1,372.4c0-1,0.2-1.8,0.5-2.6s0.8-1.4,1.4-2c0.6-0.5,1.3-1,2.1-1.3c0.8-0.3,1.7-0.4,2.6-0.4
				s1.8,0.1,2.6,0.4c0.8,0.3,1.5,0.7,2.1,1.3c0.6,0.5,1,1.2,1.4,2c0.3,0.8,0.5,1.7,0.5,2.6c0,1-0.2,1.8-0.5,2.6
				c-0.3,0.8-0.8,1.4-1.4,2s-1.3,1-2.1,1.3c-0.8,0.3-1.7,0.4-2.6,0.4s-1.8-0.1-2.6-0.4c-0.8-0.3-1.5-0.7-2.1-1.3s-1-1.2-1.4-2
				C460.3,374.2,460.1,373.3,460.1,372.4z M462.9,372.4c0,0.6,0.1,1.1,0.3,1.6c0.2,0.5,0.4,0.9,0.8,1.2c0.3,0.3,0.7,0.6,1.2,0.8
				c0.5,0.2,1,0.3,1.5,0.3s1.1-0.1,1.5-0.3c0.5-0.2,0.9-0.5,1.2-0.8c0.3-0.3,0.6-0.8,0.8-1.2c0.2-0.5,0.3-1,0.3-1.6
				c0-0.6-0.1-1.1-0.3-1.5c-0.2-0.5-0.4-0.9-0.8-1.2c-0.3-0.3-0.7-0.6-1.2-0.8c-0.5-0.2-1-0.3-1.5-0.3s-1.1,0.1-1.5,0.3
				c-0.5,0.2-0.9,0.5-1.2,0.8c-0.3,0.3-0.6,0.8-0.8,1.2C463,371.3,462.9,371.8,462.9,372.4z"/>
			<path class="st1" d="M475.3,366.3h4l2.8,7.9h0l2.8-7.9h4v12h-2.7v-9.2h0l-3.2,9.2h-2l-3-9.2h0v9.2h-2.7V366.3z"/>
			<path class="st1" d="M495.8,366.3h2.2l5.2,12h-3l-1-2.5h-4.7l-1,2.5h-2.9L495.8,366.3z M496.8,369.8l-1.5,3.7h2.9L496.8,369.8z"
				/>
			<path class="st1" d="M504.8,366.3h2.7v12h-2.7V366.3z"/>
			<path class="st1" d="M510.3,366.3h3.6l5.1,8.4h0v-8.4h2.7v12h-3.5l-5.3-8.6h0v8.6h-2.7V366.3z"/>
		</g>
		<g class="st0">
			<path class="st1" d="M385.9,388.7h-3.4v-2.3h9.5v2.3h-3.4v9.7h-2.7V388.7z"/>
			<path class="st1" d="M393.8,386.3h8.2v2.4h-5.5v2.2h5.2v2.4h-5.2v2.4h5.8v2.4h-8.5V386.3z"/>
			<path class="st1" d="M408.8,386.3h2.2l5.2,12h-3l-1-2.5h-4.7l-1,2.5h-2.9L408.8,386.3z M409.8,389.8l-1.5,3.7h2.9L409.8,389.8z"
				/>
			<path class="st1" d="M425.7,389.5c-0.3-0.3-0.6-0.6-1-0.7c-0.4-0.2-0.8-0.3-1.3-0.3c-0.5,0-1,0.1-1.4,0.3
				c-0.4,0.2-0.8,0.5-1.1,0.8c-0.3,0.3-0.6,0.8-0.7,1.2c-0.2,0.5-0.3,1-0.3,1.5c0,0.6,0.1,1.1,0.3,1.6c0.2,0.5,0.4,0.9,0.7,1.2
				c0.3,0.3,0.7,0.6,1.1,0.8c0.4,0.2,0.9,0.3,1.3,0.3c0.5,0,1-0.1,1.4-0.3c0.4-0.2,0.8-0.5,1-1l2.2,1.6c-0.5,0.7-1.2,1.2-1.9,1.6
				c-0.8,0.3-1.6,0.5-2.4,0.5c-0.9,0-1.8-0.1-2.6-0.4c-0.8-0.3-1.5-0.7-2.1-1.3s-1-1.2-1.4-2c-0.3-0.8-0.5-1.7-0.5-2.6
				c0-1,0.2-1.8,0.5-2.6s0.8-1.4,1.4-2c0.6-0.5,1.3-1,2.1-1.3c0.8-0.3,1.7-0.4,2.6-0.4c0.3,0,0.7,0,1.1,0.1c0.4,0.1,0.7,0.2,1.1,0.3
				c0.4,0.1,0.7,0.3,1,0.5c0.3,0.2,0.6,0.5,0.9,0.8L425.7,389.5z"/>
			<path class="st1" d="M429.9,386.3h2.7v4.5h5.2v-4.5h2.7v12h-2.7v-5.2h-5.2v5.2h-2.7V386.3z"/>
			<path class="st1" d="M443.2,386.3h2.7v12h-2.7V386.3z"/>
			<path class="st1" d="M448.7,386.3h3.6l5.1,8.4h0v-8.4h2.7v12h-3.5l-5.3-8.6h0v8.6h-2.7V386.3z"/>
			<path class="st1" d="M473.9,397.5c-0.8,0.4-1.6,0.7-2.4,0.9c-0.8,0.2-1.7,0.3-2.6,0.3c-0.9,0-1.8-0.1-2.6-0.4
				c-0.8-0.3-1.5-0.7-2.1-1.3s-1-1.2-1.4-2c-0.3-0.8-0.5-1.7-0.5-2.6c0-1,0.2-1.8,0.5-2.6s0.8-1.4,1.4-2c0.6-0.5,1.3-1,2.1-1.3
				c0.8-0.3,1.7-0.4,2.6-0.4c1,0,1.8,0.1,2.7,0.3s1.5,0.6,2.1,1.2l-1.9,2c-0.4-0.4-0.8-0.7-1.2-0.9c-0.5-0.2-1-0.3-1.7-0.3
				c-0.6,0-1.1,0.1-1.5,0.3c-0.5,0.2-0.9,0.5-1.2,0.8c-0.3,0.3-0.6,0.8-0.8,1.2c-0.2,0.5-0.3,1-0.3,1.5c0,0.6,0.1,1.1,0.3,1.6
				c0.2,0.5,0.4,0.9,0.8,1.2c0.3,0.3,0.7,0.6,1.2,0.8c0.5,0.2,1,0.3,1.5,0.3c0.6,0,1.1-0.1,1.5-0.2c0.4-0.1,0.8-0.3,1-0.4v-2h-2.2
				v-2.4h4.7V397.5z"/>
			<path class="st1" d="M482.1,386.3h4.5c0.6,0,1.2,0.1,1.8,0.2c0.6,0.1,1,0.3,1.5,0.6s0.7,0.7,1,1.1c0.2,0.5,0.4,1.1,0.4,1.8
				c0,0.7-0.1,1.3-0.3,1.8c-0.2,0.5-0.5,0.9-0.9,1.1c-0.4,0.3-0.9,0.5-1.4,0.6c-0.5,0.1-1.1,0.2-1.8,0.2h-1.9v4.7h-2.7V386.3z
				 M484.8,391.4h1.8c0.2,0,0.5,0,0.7-0.1c0.2,0,0.4-0.1,0.6-0.2c0.2-0.1,0.3-0.3,0.4-0.4c0.1-0.2,0.2-0.4,0.2-0.7
				c0-0.3-0.1-0.6-0.2-0.7c-0.1-0.2-0.3-0.3-0.5-0.4c-0.2-0.1-0.5-0.2-0.7-0.2c-0.3,0-0.5,0-0.8,0h-1.4V391.4z"/>
			<path class="st1" d="M493.4,386.3h2.7v9.6h4.9v2.4h-7.6V386.3z"/>
			<path class="st1" d="M506.8,386.3h2.2l5.2,12h-3l-1-2.5h-4.7l-1,2.5h-2.9L506.8,386.3z M507.8,389.8l-1.5,3.7h2.9L507.8,389.8z"
				/>
			<path class="st1" d="M515.8,386.3h3.6l5.1,8.4h0v-8.4h2.7v12h-3.5l-5.3-8.6h0v8.6h-2.7V386.3z"/>
		</g>
		<path id="路径_194" class="st2" d="M-87.3,512.1c-29.2-45-37.7-102.3-13.3-153.8c17-35.5,46.6-63.4,83.1-78.3
			c18.3-7.4,38.6-11.6,58.5-10.8c22.8,0.9,44.5,9.8,67.3,10.4c28.4,0.8,50.2-15.9,77.4-19.8c22.5-3.2,45.5,4.4,64.3,17
			c34.3,22.9,56.1,63,56.5,103.8c0.4,34.5-13.6,67.8-32.5,96.9c-29.2,44.7-71.6,81.7-121.8,101.4s-108.1,21.4-158,1.1
			C-39.2,566.1-67.6,542.5-87.3,512.1z"/>
		<g class="st0">
			<path class="st1" d="M-13.6,373.3c-1.3,0.2-2.7-0.3-4.2-1.4c-1.5-1.1-3.6-3.2-6.4-6.4l-41.6,5.5c-4.4,0.6-7.4,0.9-8.9,1.1
				c-1.7,0-2.4-0.7-2.2-2.2c-0.2-2.8,0.4-4.3,1.7-4.7c1.5-0.4,4.8-0.5,10-0.3l14.4-23.9c1.5-2,3.4-2.5,5.8-1.4
				c2.2,1.1,2.5,3.2,0.8,6.4l-15,18.9l32.7-2.8c-4.6-6.3-7.6-10.6-8.9-13c-1.5-2.4-0.6-2.5,2.8-0.3c10.9,7.8,17.5,13.3,19.7,16.6
				S-10.8,371.5-13.6,373.3z M-21.9,401.1c-0.2,1.7-0.8,2.9-1.9,3.6c-1.1,0.9-2.3,1.4-3.6,1.4h-33.8c-2-0.2-3.4-0.8-4.2-1.9
				c-0.7-1.1-1-2.5-0.8-4.2v-18.9c0-1.7,0.6-2.9,1.9-3.6c1.3-0.7,2.7-1,4.2-0.8h33.3c1.7,0,2.9,0.6,3.6,1.7c0.9,1.1,1.4,2.6,1.4,4.4
				V401.1z M-27.4,403.3v-23.9h-33.3v23.9H-27.4z"/>
			<path class="st1" d="M14.6,376.7c-0.4,1.3-1.7,5.3-3.9,11.9c-2.2,6.5-3.7,10.6-4.4,12.5c-0.4,0.6-0.8,1-1.4,1.4
				c-0.6,0.4-1.2,0.6-1.9,0.8c-1.1-0.2-1.9-0.6-2.5-1.4c-0.6-0.9-0.8-1.8-0.8-2.5c0.7-2,1.6-4,2.5-5.8c0.7-2,1.6-4,2.5-5.8
				c0.2-0.7,0.6-1.7,1.1-2.8c0.4-1.1,0.9-2.2,1.7-3.3c0.4-1.5,0.7-2.8,1.1-3.9c0.4-0.9,0.7-1.7,1.1-2.2c0.2-0.4,0.6-0.7,1.1-1.1
				c0.4-0.4,0.7-0.6,1.1-0.6c0.6,0,1.1,0.3,1.7,0.8S14.4,375.9,14.6,376.7z M11.8,345.6c0,0.6-0.2,1.1-0.6,1.7
				c-0.2,0.6-0.6,1.1-1.1,1.7l-2.8-0.6c-0.4-0.6-0.6-1-0.8-1.4c-0.4-0.4-0.6-0.6-0.8-0.8c-0.6-0.6-1-1-1.4-1.4
				c-0.6-0.4-1-0.6-1.4-0.8c-0.9-0.9-1.7-1.8-2.2-2.5c-0.4-0.9-0.6-1.8-0.6-2.5c0-0.4,0.1-0.6,0.3-0.8c0.2-0.2,0.5-0.3,0.8-0.3h1.1
				c1.3,0,3.1,0.9,5.5,2.8C10.1,342.3,11.4,343.9,11.8,345.6z M11.2,366.1c-0.2,0.7-0.5,1.4-0.8,1.9c-0.6,0.4-1.2,0.6-1.9,0.8
				l-1.7-0.6c-0.7-0.6-1.4-1.1-1.9-1.7c-0.7-0.6-1.4-1.1-1.9-1.7c-0.9-0.9-1.7-1.8-2.2-2.5c-0.4-0.7-0.6-1.2-0.6-1.4
				c0-0.6,0.1-1,0.3-1.4c0.2-0.4,0.5-0.6,0.8-0.8c1.3,0,3.2,0.9,5.8,2.8C9.5,363.4,10.9,364.8,11.2,366.1z M68.4,362.2
				c-0.4,0.2-0.7,0.5-1.1,0.8c-0.4,0.4-0.7,0.6-1.1,0.8c-0.9-0.2-1.7-0.7-2.2-1.7c-0.6-0.9-0.9-1.7-1.1-2.2l-3.3,0.6v11.1
				c-0.4,0.6-0.7,1-1.1,1.4c-0.4,0.4-0.9,0.6-1.7,0.8c-0.7-0.2-1.4-0.5-1.9-0.8c-0.6-0.6-0.8-1.2-0.8-1.9v-10l-4.4,1.1
				c-0.4-0.2-0.7-0.4-1.1-0.6c-0.6-0.2-0.9-0.4-1.1-0.6h-0.6h-0.6H35.1l-1.7-1.1c0,0.7-0.2,1.4-0.6,1.9c-0.2,0.4-0.6,0.6-1.1,0.8
				c-0.9-0.2-1.7-0.5-2.2-0.8c-0.7-0.6-1.3-1.2-1.7-1.9l-3.9,0.6v11.1c-0.2,0.7-0.6,1.4-1.1,1.9c-0.6,0.4-1.1,0.6-1.7,0.8
				c-0.7-0.2-1.4-0.5-1.9-0.8c-0.6-0.6-0.8-1.2-0.8-1.9v-10.5l-6.1,0.6c-0.7,0-1.3-0.1-1.7-0.3c-0.4-0.2-0.6-0.6-0.6-1.4
				c0-1.1,0.4-1.8,1.1-2.2c0.7-0.6,1.5-0.7,2.2-0.6c1.1-0.2,2-0.5,2.8-0.8c0.9-0.6,1.7-1.2,2.2-1.9l1.7-1.7
				c-0.4-0.2-0.9-0.6-1.7-1.1c-0.7-0.6-1.5-1.1-2.2-1.7c-0.9-0.9-1.8-1.8-2.5-2.5c-0.6-0.7-0.8-1.4-0.8-1.9s0.2-1,0.6-1.4
				c0.4-0.2,0.9-0.3,1.7-0.3l2.2,0.6c0.4-1.7,1-3.2,1.9-4.7c0.7-1.7,2.1-2.5,4.2-2.5H24c0.2,0.2,0.5,0.6,0.8,1.1
				c0.4,0.4,0.6,0.9,0.8,1.7c-0.2,0.2-0.5,0.6-0.8,1.4c-0.6,0.6-1.2,1.2-1.9,1.9c-0.4,0.2-0.6,0.6-0.8,1.1c-0.4,0.4-0.6,0.7-0.8,1.1
				c-0.4,0.2-0.6,0.5-0.8,0.8c-0.2,0.2-0.3,0.5-0.3,0.8l2.8,2.2c0.7-0.9,1.4-1.8,1.9-2.5c0.4-0.7,1-1.4,1.9-1.9h0.6
				c0.2,0,0.6,0.1,1.4,0.3c0.6,0.2,1,0.5,1.4,0.8v2.2l-7.8,8.9h1.1l3.3-0.6v-0.6c-0.2-0.4-0.3-0.9-0.3-1.7c0-0.7,0.3-1.1,0.8-1.1
				c0.9,0,2,0.6,3.3,1.9c1.5,1.3,2.6,2.5,3.3,3.6l0.6-0.6h11.6c0.4,0,0.7,0,1.1,0l1.7-0.6h1.7l3.9-4.4c-0.4-0.4-0.9-0.8-1.7-1.4
				c-0.6-0.4-1.1-0.8-1.7-1.4c-0.9-0.9-1.7-1.8-2.2-2.5c-0.4-0.7-0.6-1.4-0.6-1.9c0-0.9,0.5-1.5,1.4-1.7c0.9-0.2,1.8-0.2,2.5,0
				c0-0.4,0.2-0.9,0.6-1.7c0.4-0.7,0.7-1.5,1.1-2.2c0.2-0.7,0.6-1.3,1.1-1.7c0.4-0.4,0.9-0.6,1.7-0.6c0.7,0,1.4,0.2,1.9,0.6
				c0.4,0.4,0.6,0.9,0.8,1.7l-0.6,2.2l-3.3,3.9l2.2,1.7c0.2-0.7,0.6-1.6,1.4-2.5c0.7-0.9,1.8-1.4,3.1-1.4c0.7,0,1.4,0.3,1.9,0.8
				c0.4,0.7,0.6,1.6,0.8,2.5l-0.6,1.7l-6.7,7.8l3.9-0.6V355c0-0.9,0.2-1.5,0.6-1.7c0.4-0.2,0.9-0.2,1.7,0c1.1,1.1,2.1,2.4,3.1,3.9
				C67.7,358.7,68.2,360.4,68.4,362.2z M17.9,366.7c-0.4,0.6-0.6,1.1-0.8,1.7c-0.4,0.6-0.6,1.1-0.8,1.7c-0.4,0.4-0.7,0.8-1.1,1.4
				c-0.4,0.4-0.7,0.8-1.1,1.4h-1.1c-0.4,0-0.7-0.1-1.1-0.3c-0.4-0.2-0.6-0.5-0.6-0.8c0-0.7,0.4-1.9,1.1-3.6c0.7-1.8,1.3-3.1,1.7-3.6
				l1.7-0.6c0.7,0,1.3,0.3,1.7,0.8C17.7,365.3,17.9,365.9,17.9,366.7z M66.7,395c-1.1,2.8-2.7,5.3-4.7,7.5c-1.8,2.2-4.5,3.4-8,3.6
				H43.4c-0.4,0-0.8-0.2-1.4-0.6c-0.6-0.2-0.8-0.6-0.8-1.1c0-0.4,0.2-0.6,0.6-0.8c0.4-0.4,0.9-0.6,1.7-0.8h6.7
				c0.7,0,1.4-0.1,1.9-0.3c0.7,0,1.4-0.1,1.9-0.3c0.4-0.6,0.7-1,1.1-1.4c0.4-0.6,0.7-1,1.1-1.4c0.4-0.9,0.8-1.8,1.4-2.8
				c0.4-0.9,1-1.8,1.9-2.8H21.2c-0.9-0.2-1.8-0.6-2.5-1.4c-0.6-0.9-0.8-1.8-0.8-2.5c0-1.8,0.6-3.4,1.9-4.7c1.3-1.3,2.9-1.9,4.7-1.9
				h34.9v-4.4H20.7l-1.7-0.6v-1.1l1.7-1.1h39.4c1.1,0,2.1,0.4,3.1,1.1c0.7,0.7,1.2,1.8,1.4,3.3c0,1.3-0.4,2.4-1.1,3.3
				c-0.6,0.9-1.5,1.7-2.8,2.2H25.7l-1.1,5H65c0.7,0.4,1.1,0.9,1.1,1.7C66.2,393.3,66.3,394.1,66.7,395z M31.8,369.5
				c-0.4,0.6-0.8,0.9-1.4,1.1c-0.4,0.4-0.8,0.6-1.4,0.6c-1.1-0.2-1.9-0.9-2.5-2.2c-0.6-1.3-0.8-2.4-0.8-3.3v-1.7
				c0.4-0.4,0.7-0.6,1.1-0.6c1.1,0,2.2,0.7,3.3,2.2C31,367.1,31.6,368.4,31.8,369.5z M47.8,347.8c0,0.2-0.2,0.5-0.6,0.8
				c-0.2,0.4-0.6,0.6-1.1,0.8H33.4l-1.1-1.1v-1.1l1.1-1.1h13.3c0.2,0,0.4,0.2,0.6,0.6C47.5,347.1,47.7,347.5,47.8,347.8z
				 M53.4,366.7l-2.8,5.5c-0.4,0.2-0.6,0.3-0.8,0.3c-0.4,0.2-0.6,0.3-0.8,0.3c-0.6,0-1-0.1-1.4-0.3c-0.4-0.2-0.6-0.5-0.8-0.8
				c-0.4,0.6-0.8,0.9-1.4,1.1c-0.4,0.4-0.8,0.6-1.4,0.6h-6.1c-1.1-0.2-2.2-0.6-3.3-1.4c-1.1-0.9-1.7-1.8-1.7-2.5
				c0-2.4,1-3.9,3.1-4.4c2-0.6,4-0.7,5.8-0.6c1.8,0,3.1,0.4,3.9,1.1c0.9,0.9,1.7,2.2,2.2,3.9c0.2-1.1,0.5-2.3,0.8-3.6
				c0.6-1.3,1.4-1.9,2.5-1.9c0.7,0,1.3,0.3,1.7,0.8C53.2,365.3,53.4,365.9,53.4,366.7z M46.7,353.9c-0.2,0.6-0.6,0.9-1.1,1.1
				c-0.6,0.4-0.9,0.6-1.1,0.6h-9.4l-1.7-0.6v-1.7l1.7-1.1h10c0.6,0,0.9,0.2,1.1,0.6C46.6,353.2,46.7,353.6,46.7,353.9z M46.7,341.2
				l-1.7,0.6h-10l-0.6-0.6v-1.7l0.6-0.6h10c0.2,0,0.4,0.1,0.6,0.3c0.2,0,0.4,0.1,0.6,0.3L46.7,341.2z M41.7,370.6v-3.3h-3.3v3.3
				H41.7z M68.9,371.1c-0.2,0.2-0.4,0.6-0.6,1.1c-0.2,0.4-0.4,0.7-0.6,1.1c-0.4,0-0.6,0.1-0.8,0.3c-0.4,0-0.6,0.1-0.8,0.3
				c-0.7-0.2-1.3-0.6-1.7-1.1c-0.6-0.6-0.9-1.1-1.1-1.7c-0.6-0.9-1-1.8-1.4-2.5c-0.4-0.7-0.6-1.4-0.8-1.9V365
				c0.2-0.4,0.5-0.6,0.8-0.8c0.4-0.2,0.8-0.3,1.4-0.3c0.9,0,2,0.9,3.3,2.8C68,368.4,68.7,369.8,68.9,371.1z"/>
			<path class="st1" d="M140.1,364.5c1.3,0,1.9,0.5,1.9,1.4c0,0.9-0.6,1.4-1.9,1.4h-32.2v34.9c-0.4,1.7-1.4,2.5-3.1,2.5
				c-1.8,0.2-2.9-0.6-3.1-2.5v-8.9c-9.2,3.5-15.4,6-18.6,7.5c-3.1,1.3-5.1,1.2-5.8-0.3c-0.4-1.7-0.1-3,0.8-3.9
				c1.1-0.7,3.1-1.5,5.8-2.2v-27.2h-5.5c-0.9,0-1.5-0.4-1.7-1.1c-0.4-0.7,0.2-1.3,1.7-1.7H140.1z M132.3,355.6
				c-0.2,1.7-0.9,2.9-2.2,3.6c-1.3,0.9-2.6,1.4-3.9,1.4H90.7c-1.5,0-2.7-0.5-3.6-1.4c-0.9-0.7-1.4-1.9-1.4-3.6v-11.1
				c0-1.3,0.5-2.4,1.4-3.3c0.7-1.1,1.8-1.7,3.1-1.7h37.2c1.7-0.2,2.9,0.3,3.6,1.4c0.9,0.9,1.4,2.5,1.4,4.7V355.6z M101.8,373.3v-6.1
				H90.1v6.1H101.8z M101.8,382.2v-6.1H90.1v6.1H101.8z M101.8,390v-5H90.1v8.3L101.8,390z M126.7,348.9v-6.7H91.2v6.7H126.7z
				 M126.7,357.8v-6.1H91.2v6.1H126.7z M141.2,403.9c-0.9,0.6-2.7,0.2-5.3-1.1c-2.6-1.1-6.2-3.1-10.8-6.1c-1.7,1.5-3.9,3-6.7,4.4
				c-2.8,1.3-5.2,1.7-7.2,1.1c-1.5-0.7-1-1.8,1.4-3.1c2.4-1.1,5.3-3.2,8.6-6.4c-1.5-1.7-3.1-4.1-5-7.2c-2-3-2-5.4,0-7.2
				c1.5-0.9,2.8-0.2,3.9,2.2c1.1,2.4,2.8,5,5,7.8c1.3-2.2,2.3-4.4,3.1-6.7c0.7-2.2,1.6-4.4,2.5-6.7h-18.9c-0.9-0.2-1.5-0.6-1.7-1.4
				c-0.4-0.9,0.2-1.4,1.7-1.4h22.7c0.6,0.2,0.9,0.6,1.1,1.4c0.4,0.6,0.6,1.2,0.6,1.9c-0.4,2-1.4,4.8-3.1,8.3
				c-1.8,3.5-3.2,6.3-4.2,8.3c2.8,3.1,5.6,5.5,8.6,6.9C140.7,400.6,141.9,402.2,141.2,403.9z"/>
			<path class="st1" d="M173.5,342.8h-5.5v56c0,2-1,3.3-3.1,3.9c-1.8,0.4-5.1,0.6-9.7,0.6c-1.3-0.2-1.9-0.6-1.9-1.4
				c-0.2-0.9,0.5-1.4,1.9-1.4c2.2,0,3.9-0.2,5-0.6c1.1-0.4,1.7-1.3,1.7-2.8v-53.8h-7.2c-1.1,0-1.7-0.5-1.7-1.4
				c0-0.9,0.6-1.4,1.7-1.4h18.9c1.1,0,1.7,0.4,1.7,1.1C175.1,342.3,174.6,342.7,173.5,342.8z M218.4,340.1c1.1,0.4,1.7,0.9,1.7,1.7
				c0.2,0.7-0.4,1.1-1.7,1.1h-17.8l-4.4,8.3h14.4c2.4,0,3.9,0.6,4.4,1.9c0.7,1.3,1.1,2.7,1.1,4.2v25.5c-0.2,1.7-0.8,3-1.9,3.9
				c-1.1,0.9-2.5,1.5-4.2,1.7h-23.9c-2-0.2-3.4-0.9-4.2-2.2c-0.7-1.3-1-2.6-0.8-3.9v-25.5c-0.2-2.6,0.4-4.2,1.7-4.7
				c1.1-0.7,3.3-1,6.7-0.8l3.3-8.3h-14.4c-1.5-0.2-2.2-0.6-2.2-1.4c0-0.9,0.7-1.4,2.2-1.4H218.4z M193.4,395.5c-3,2-6.3,4.1-10,6.1
				c-3.7,1.8-5.9,2.4-6.7,1.7c-1.1-0.9-0.6-2.4,1.7-4.4c2.2-2,5.4-4.8,9.4-8.3c1.5-1.1,3.1-1,5,0.3
				C194.6,392.1,194.7,393.7,193.4,395.5z M210.1,363.4v-9.4h-22.7v9.4H210.1z M210.1,372.8v-6.7h-22.7v6.7H210.1z M210.1,385.5
				v-9.4h-22.7v9.4H210.1z M219,403.9c-1.3,0.7-3.8-0.1-7.5-2.5c-3.9-2.2-6.8-4.2-8.6-5.8c-1.3-2.6-1.3-4.3,0-5
				c1.1-0.7,2.8-0.6,5,0.6c3.1,3,6,5.5,8.6,7.5C218.9,400.6,219.7,402.4,219,403.9z"/>
			<path class="st1" d="M294.8,379.4c1.1,0,1.7,0.5,1.7,1.4c0.2,0.7-0.4,1.2-1.7,1.4h-27.2c1.5,4.1,4.1,7.8,7.8,11.1
				c3.7,3.3,9.1,5.9,16.1,7.8c3,0.7,4.4,1.6,4.4,2.5c0,0.9-1.5,1.6-4.4,1.9c-5.7-0.9-10.7-2.4-15-4.4c-4.3-2.2-8.9-6.5-13.9-12.8
				c-1.8,2.6-4.7,5.7-8.6,9.4c-3.9,3.5-9.9,6.1-18,7.8c-3.3,0.4-5.1,0.2-5.3-0.6c-0.4-0.9,0.6-1.7,3.1-2.2c5.7-2,10.4-4.3,13.9-6.9
				c3.3-2.8,6.8-7.3,10.5-13.6h-26.1c-1.7-0.2-2.5-0.6-2.5-1.4c0-0.9,0.8-1.4,2.5-1.4h27.2c0.4-3,0.6-5.2,0.8-6.7
				c0-1.5,1.6-2,4.7-1.7c0.9,0,1.7,0.6,2.2,1.7c0.6,0.9,0.4,3.1-0.6,6.7H294.8z M251.5,351.7c-5.4,4.8-9.7,8.9-13,12.2
				c-3.3,3.1-5.6,4.4-6.9,3.9c-0.9-0.7-0.4-2.3,1.7-4.7c2-2.4,5.7-7.3,11.1-14.7c2-2.6,4.3-3.3,6.7-2.2
				C253.4,347.3,253.6,349.1,251.5,351.7z M266,365.6c-0.2,1.3-0.8,2.3-1.9,3.1c-1.1,0.7-2.3,1.2-3.6,1.4h-7.2
				c-2.2-0.2-3.2-0.6-3.1-1.4c0.2-0.9,1.2-1.4,3.1-1.4c1.1-0.2,2.4-0.4,3.9-0.6c1.3,0,2.2-0.7,2.8-2.2v-22.2
				c0.2-2.2,1.2-3.3,3.1-3.3c1.7,0,2.7,0.7,3.1,2.2V365.6z M294.3,364.5c-2.4,1.5-5.1,0.5-8-3.1c-3-3.5-6.2-6.9-9.7-10.3
				c-2.6-2.8-3.6-4.6-3.1-5.5c0.7-0.9,3.1-0.2,6.9,2.2c7,4.3,11.6,7.6,13.6,10C296,360,296.1,362.2,294.3,364.5z"/>
			<path class="st1" d="M332.1,396.6c-0.2,1.7-0.9,2.9-2.2,3.6c-1.3,0.9-2.6,1.4-3.9,1.4h-14.4c-2-0.2-3.4-0.8-4.2-1.9
				c-0.7-1.1-1-2.3-0.8-3.6v-39.4c-0.2-2.2,0.2-3.6,1.1-4.2c0.9-0.7,3-1,6.1-0.8l2.8-10c0.7-1.8,2-2.5,3.9-1.9
				c1.8,0.6,2.6,1.8,2.2,3.6l-3.3,8.3c6.5-0.2,10.3,0.1,11.4,0.8c1.1,0.7,1.6,2.5,1.4,5.3V396.6z M326,375v-20h-13.3v20H326z
				 M326,398.9v-21.1h-13.3v21.1H326z M366.5,385c-0.2,7.6-1.4,12.8-3.6,15.5c-2,3-4.3,4.6-6.9,5h-12.2c-1.1-0.2-1.7-0.6-1.7-1.4
				c0-0.9,0.6-1.4,1.7-1.4h8.9c2.4-0.6,4.1-2.3,5-5.3c1.1-3,2-8.2,2.8-15.8v-25.5h-15.5l-7.2,12.2c-1.3,1.7-2.2,2.2-2.8,1.7
				s-0.4-2.2,0.6-5l6.7-22.7c0.9-2,2.4-2.9,4.4-2.5c2,0.4,3,1.8,2.8,4.2l-3.3,9.4h16.1c1.1,0,2.1,0.6,3.1,1.7c0.7,0.9,1.2,2,1.4,3.3
				V385z M351.5,389.4c-2.6,0.6-4.4-0.2-5.5-2.2c-1.1-2-3.1-6.1-6.1-12.2c-1.7-3.5-1.9-5.5-0.8-6.1s2.9,0.6,5.3,3.3
				c4.8,5.9,7.7,10.1,8.6,12.5C353.6,387.1,353.2,388.7,351.5,389.4z"/>
		</g>
		<g class="st0">
			<path class="st1" d="M89.9,469.7c1.6,1.2,2.3,2.2,2.1,3.2c-0.2,0.9-1.4,1.1-3.5,0.4c-3.8-1.4-8-4.2-12.7-8.4
				c-4.5-4-8-7.5-10.5-10.5c-3.5,4.2-7.4,8.1-11.6,11.6s-8.8,6.4-13.7,8.8c-2.8,0.9-4.5,1.1-4.9,0.4c-0.7-0.7-0.2-1.8,1.4-3.2
				c9.6-7.5,15.4-13.8,17.2-19c1.9-5.4,5.3-8.2,10.2-8.4c4.2,0.7,7.6,3.6,10.2,8.8C76.7,458.6,81.9,464.1,89.9,469.7z M86.4,492.2
				c0,3-0.7,5.5-2.1,7.4c-1.4,1.9-3.8,2.9-7,3.2H50.5c-0.5,3-1.6,7.3-3.5,12.7c-2.1,5.4-4.7,9.8-7.7,13.4c-1.6,0.9-2.8,1.2-3.5,0.7
				c-0.7-0.5-0.5-1.9,0.7-4.2c0.2-0.9,1.3-4.5,3.2-10.5c1.6-6.1,2.7-14.8,3.2-26c-0.2-3.3,0.2-5.7,1.4-7.4c1.2-1.6,3.5-2.5,7-2.5H78
				c3.3-0.2,5.5,0.5,6.7,2.1C85.8,482.6,86.4,486.4,86.4,492.2z M76.5,472.5H51.9c-1.6-0.2-2.5-0.8-2.5-1.8
				c-0.2-0.9,0.6-1.5,2.5-1.8h24.6c2.1,0.7,3,1.4,2.8,2.1C78.9,471.8,78,472.3,76.5,472.5z M84.3,519.6c0,2.3-0.6,4.5-1.8,6.3
				c-1.4,1.6-3.4,2.6-6,2.8H55.5c-1.9,0-3.3-0.5-4.2-1.4c-0.9-0.9-1.4-3.8-1.4-8.4c-0.2-4.7,0.2-7.7,1.4-9.1c0.9-1.6,3-2.3,6.3-2.1
				h19.7c3,0,4.9,0.9,5.6,2.8C83.8,512.6,84.3,515.7,84.3,519.6z M78,488v-5.6H50.5v5.6H78z M78,499.3v-7.7H50.5v7.7H78z
				 M76.5,524.6v-13.4H56.9v13.4H76.5z M101.2,507c-0.5,2.3-1.8,3.5-3.9,3.5c-2.3,0-3.6-1.2-3.9-3.5v-52c0.5-2.8,1.8-4.2,3.9-4.2
				s3.4,1.4,3.9,4.2V507z M116.6,524.6c-0.2,1.6-0.9,2.8-2.1,3.5c-1.2,0.9-2.6,1.4-4.2,1.4H97.6c-2.6-0.2-3.8-0.9-3.5-2.1
				c0.2-1.2,1.2-1.6,2.8-1.4c8,0.5,12-0.2,12-2.1v-74.5c0.2-2.6,1.5-3.7,3.9-3.5c2.1,0,3.4,1.2,3.9,3.5V524.6z"/>
			<path class="st1" d="M173.9,483.1H131c-1.4-0.2-2.1-0.8-2.1-1.8c0-0.9,0.7-1.5,2.1-1.8h26c-1.9-2.1-1.2-5.5,2.1-10.2
				c3-4.9,6.1-6.9,9.1-6c1.6,1.4,1.6,3.5,0,6.3c-1.6,2.8-4.9,6.1-9.8,9.8h14.8c1.6,0,2.5,0.6,2.5,1.8
				C175.9,482.3,175.3,482.8,173.9,483.1z M172.5,497.1h-14.1c3,3.8,5.7,6.8,8.1,9.1c2.6,2.3,3.2,4.2,1.8,5.6
				c-2.1,0.9-4.2,0.4-6.3-1.8c-2.1-2.3-4.2-4.8-6.3-7.4v25.3c-0.5,1.4-1.6,2-3.5,1.8c-2.1,0-3.3-0.8-3.5-2.5v-21.8
				c-1.9,3.5-4.7,7.4-8.4,11.6c-4,4-6.8,5.7-8.4,5.3c-2.1-1.2-1.4-3.9,2.1-8.1s7.3-10,11.2-17.2h-13.4c-1.4-0.2-2.1-0.8-2.1-1.8
				c0-1.2,0.7-1.8,2.1-1.8h16.2c-0.2-3.3,0-5.5,0.7-6.7c0.5-1.2,1.6-1.5,3.5-1.1c1.6-0.2,2.6,0.4,2.8,1.8c0.5,1.2,0.7,3.2,0.7,6
				h16.9c1.4,0.2,2.1,0.8,2.1,1.8C174.6,496.3,173.9,496.9,172.5,497.1z M172.5,459.9h-38.7c-1.6-0.2-2.5-0.8-2.5-1.8
				c0-1.2,1.1-1.8,3.2-1.8h14.1v-9.1c0.2-1.6,1.5-2.5,3.9-2.5c2.1,0,3.4,1.1,3.9,3.2v8.4h15.5c1.6,0,2.5,0.6,2.5,1.8
				C174.4,459.1,173.9,459.6,172.5,459.9z M147.1,473.2c0.7,2.3,0.1,3.9-1.8,4.6c-1.9,0.7-3.4,0.6-4.6-0.4c-1.2-1.6-2.6-4.2-4.2-7.7
				c-1.6-3.7-1.9-6.1-0.7-7c1.2-1.2,2.6-0.7,4.2,1.4C141.5,466.2,143.9,469.3,147.1,473.2z M211.8,480.3H202v47.8
				c-0.5,1.4-1.8,2-3.9,1.8c-2.3,0-3.6-0.8-3.9-2.5v-47.1h-9.8c0,9.4-0.7,17.5-2.1,24.3c-1.4,6.8-4.9,14.2-10.5,22.1
				c-1.6,1.6-3,2.3-4.2,2.1c-1.2-0.2-0.9-1.9,0.7-4.9c3.3-5.6,5.7-12.5,7.4-20.7c1.4-8.2,2-22.9,1.8-43.9c-0.7-4,1.1-6.3,5.3-7
				s12.1-2.6,23.6-5.6c3.3-0.7,5.2,0.1,5.6,2.5c0.5,2.3-0.5,4.1-2.8,5.3c-4,0.2-8.1,0.6-12.3,1.1c-4,0.2-8.1,0.6-12.3,1.1v20.4h27.4
				c1.6,0,2.5,0.6,2.5,1.8C214.3,479.4,213.5,480,211.8,480.3z"/>
			<path class="st1" d="M255.7,471.8c0,2.8-0.8,4.6-2.5,5.3c-1.9,0.7-4.8,1.1-8.8,1.1v12.7h7c1.9,0.5,2.7,1.2,2.5,2.1
				c-0.2,1.2-1.1,1.9-2.5,2.1h-7v22.5c4.7-2.1,7.7-2.8,9.1-2.1c1.6,0.7,0.5,2.1-3.5,4.2l-23.2,9.8c-2.6,0.2-3.8-0.5-3.5-2.1
				c0-1.9,0.9-3,2.8-3.5v-37.3c0.2-2.6,1.4-3.9,3.5-3.9c1.9,0.2,3,1.8,3.5,4.6V521l4.2-1.4v-41.5c-3.5,0-6.2-0.1-8.1-0.4
				c-1.6-0.5-2.5-2-2.5-4.6v-15.5c-0.2-2.8,0.1-4.8,1.1-6c0.9-1.4,3.2-2,6.7-1.8h14.8c2.1,0,3.6,0.6,4.6,1.8c1.2,1.4,1.8,3.4,1.8,6
				V471.8z M248.7,474.6v-21.8h-14.8v21.8H248.7z M307,496.4h-28.8l-4.2,9.8h24.6c2.3,0,3.6,0.7,3.9,2.1c0.2,1.4,0.1,3-0.4,4.9
				c-1.2,5.9-2.6,10.1-4.2,12.7c-1.4,2.8-4.9,4.2-10.5,4.2h-14.8c-2.1-0.2-3-0.8-2.8-1.8c0-1.2,1.2-1.8,3.5-1.8
				c7,0.2,12-0.5,14.8-2.1c2.6-1.6,4.7-6.6,6.3-14.8h-23.2c-3.3,0.2-5-0.4-5.3-1.8c-0.2-1.4,1.3-5.3,4.6-11.6h-12
				c-1.9-0.2-2.8-0.8-2.8-1.8c0-1.2,0.9-1.8,2.8-1.8h47.8c1.6,0,2.5,0.6,2.5,1.8C308.6,495.6,308,496.2,307,496.4z M307,486.6
				c-1.9,0.9-5.5-0.5-10.9-4.2c-5.4-4-10.2-8.9-14.4-14.8c-2.3,2.6-6.3,6.4-12,11.6c-5.6,5.2-9.8,7.6-12.7,7.4
				c-2.3-1.2-1.2-3.4,3.5-6.7c4.7-3,9.4-8.8,14.1-17.2h-13.4c-1.9-0.2-2.9-0.8-3.2-1.8c0-1.2,1.1-1.8,3.2-1.8h14.8l2.1-12
				c0.5-2.1,1.9-2.9,4.2-2.5c2.3,0.5,3.5,2,3.5,4.6l-1.4,9.8h20.4c1.6,0,2.3,0.5,2.1,1.4c0,0.9-0.7,1.6-2.1,2.1h-18.3
				c3.3,6.8,7.6,11.8,13,15.1C304.8,481.3,307.3,484.3,307,486.6z M290.2,480.3c1.6,0,2.5,0.6,2.5,1.8c0,0.9-0.8,1.5-2.5,1.8h-18.3
				c-1.4-0.2-2.1-0.8-2.1-1.8c0-1.2,0.7-1.8,2.1-1.8H290.2z"/>
			<path class="st1" d="M344.2,473.2c1.6,0.2,2.2,0.8,1.8,1.8c-0.2,0.9-1.1,1.5-2.5,1.8h-7.7v33c4-1.4,6.3-1.8,7-1.1
				c0.7,0.5,0,1.5-2.1,3.2l-18.3,10.5c-2.3,0.7-3.8,0-4.2-2.1c-0.5-1.9,0-3.3,1.4-4.2l8.4-3.5v-35.9h-8.4c-1.4-0.2-2.1-0.8-2.1-1.8
				c0-0.9,0.7-1.5,2.1-1.8h8.4v-23.9c0.5-2.6,1.8-3.7,3.9-3.5c1.9,0,3.2,0.9,3.9,2.8v24.6H344.2z M373.1,504.9
				c0.5,0.9-1.1,2.1-4.6,3.5s-10.9,4.5-22.1,9.1c-2.6,0.5-4-0.1-4.2-1.8c-0.5-1.6,0.2-3.2,2.1-4.6c2.3-1.2,7.4-2.8,15.1-4.9
				S371.6,503.7,373.1,504.9z M404,517.5c-2.3,6.6-6.1,9.7-11.2,9.5c-5.4-0.2-9.6-4.1-12.7-11.6c-4,3-8.6,6-13.7,8.8
				c-5.4,2.8-9.7,4.8-13,6c-3,0.2-4.9-0.1-5.6-1.1c-0.7-1.2,0.2-2.2,2.8-3.2c3.7-1.4,8.2-3.6,13.4-6.7c5.4-2.8,9.8-6.4,13.4-10.9
				c-1.2-7-2.1-13.8-2.8-20.4c-0.7-6.6-1.2-13.1-1.4-19.7h-28.1c-1.9-0.2-2.7-0.8-2.5-1.8c0-1.2,0.8-1.8,2.5-1.8h28.1v-15.5
				c0.2-2.6,1.3-4.1,3.2-4.6c1.9-0.2,3.2,1.1,3.9,3.9v16.2h21.1c1.2,0,1.9,0.6,2.1,1.8c0,0.9-0.5,1.5-1.4,1.8h-21.8
				c0.5,5.2,0.9,10.5,1.4,16.2c0.2,5.4,0.9,10.3,2.1,14.8c1.9-5.6,3.4-10.7,4.6-15.1c1.2-4.5,2.9-6.4,5.3-6c3.3,0.5,4.1,3.2,2.5,8.1
				c-1.6,4.9-4.8,12.8-9.5,23.6c0.9,4,2.2,7,3.9,9.1c1.4,2.1,2.9,1.4,4.6-2.1c1.9-4.9,4-6.8,6.3-5.6
				C403.3,512.4,404.2,514.5,404,517.5z M372.4,488c-0.2,3.5-0.9,6.1-2.1,7.7c-1.4,1.9-3.3,2.8-5.6,2.8H352c-2.6,0-4.5-0.6-5.6-1.8
				c-1.2-1.4-1.6-4.8-1.4-10.2c-0.2-2.6,0.4-4.8,1.8-6.7c1.2-1.6,3.4-2.5,6.7-2.5h12c3.3,0.2,5.3,1.6,6,4.2
				C372,484,372.4,486.1,372.4,488z M364.6,494.3V481h-12v13.4H364.6z M399.1,457.8c0.9,2.1,1.1,3.6,0.4,4.6
				c-0.7,1.2-1.8,1.8-3.2,1.8c-2.6-0.7-5.3-3-8.1-7c-3-4.2-4.1-7-3.2-8.4c1.2-0.9,3.2-0.1,6,2.5C394,453.4,396.7,455.7,399.1,457.8z
				"/>
			<path class="st1" d="M497.1,528.8c-2.3,0.7-5.5,0-9.5-2.1c-4-2.1-7.4-4.5-10.2-7c-3.8,3.5-8.7,6.2-14.8,8.1
				c-6.1,1.9-9.8,2.7-11.2,2.5c-0.9-1.9,0.9-3.6,5.6-5.3c4.9-1.6,9.6-5.3,14.1-10.9c-2.8-7.3-5-15-6.7-23.2
				c-1.6-8.2-0.6-12.7,3.2-13.4c2.8,0.5,4.6,4.5,5.3,12c0.7,7.5,1.8,12.9,3.2,16.2c1.6-6.3,2.8-12.4,3.5-18.3
				c0.9-5.9,1.4-11.5,1.4-16.9h-13.4c-0.7,2.3-2.5,5.6-5.3,9.8c-2.8,4-5.3,6.1-7.4,6.3c-0.9,0-1.4-0.5-1.4-1.4c0-1.2,0.7-3,2.1-5.6
				h-10.5l-8.4,8.4h12c3.3,0.7,4.1,2.2,2.5,4.6c-1.6,2.6-4.8,6-9.5,10.2v4.9c3.5-0.9,6.9-1.9,10.2-2.8c3.3-0.9,5-0.5,5.3,1.4
				c0.2,0.9-0.8,1.8-3.2,2.5c-2.3,0.5-6.4,1.3-12.3,2.5v16.2c-0.7,0.9-1.5,1.8-2.5,2.5c-0.9,0.5-2,0.8-3.2,1.1h-9.8
				c-1.9-0.2-2.8-0.9-2.8-2.1c0-1.2,0.9-1.6,2.8-1.4c2.3,0,4.2-0.2,5.6-0.7c1.2-0.2,1.9-1.2,2.1-2.8v-10.5c-5.2,0.9-9.5,1.9-13,2.8
				c-3.5,0.9-5.5,1.2-6,0.7c-0.7-2.1,0.8-3.6,4.6-4.6c3.7-0.9,8.6-2,14.4-3.2v-7.7c0-1.2,0.9-2.1,2.8-2.8c1.6-0.5,3.5-2.8,5.6-7
				h-9.1c-3.5,2.8-7.3,5.4-11.2,7.7c-4,2.1-6.6,2.8-7.7,2.1c-0.7-1.6,1.1-4,5.3-7c4-3,9.5-8,16.5-14.8h-21.1
				c-1.9-0.2-2.7-0.8-2.5-1.8c0-0.9,0.8-1.5,2.5-1.8H431v-14.8h-12c-1.4-0.2-2.1-0.8-2.1-1.8c0-1.2,0.7-1.8,2.1-1.8h12v-11.2
				c0.2-1.9,1.4-2.8,3.5-2.8c1.9,0,3,0.9,3.5,2.8v11.2h6.3c1.9,0,2.8,0.6,2.8,1.8c-0.2,0.9-1.4,1.5-3.5,1.8H438V476h1.4
				c3.5-4.5,6.3-9.4,8.4-14.8c1.9-5.2,4.7-7.3,8.4-6.3c2.3,1.2,2.7,3.3,1.1,6.3c-1.9,3.3-5,8.2-9.5,14.8h7l2.1,0.7
				c5.9-12.9,8.9-21.7,9.1-26.4c0.2-4.9,2.3-6.7,6.3-5.3c2.6,0.5,3.5,2.2,2.8,5.3c-0.7,3-2.6,8.6-5.6,16.5h26c1.4,0,2.1,0.6,2.1,1.8
				c0.2,0.9-0.5,1.5-2.1,1.8h-6.3c0,7.7-0.7,15-2.1,21.8c-1.4,6.8-3.5,13.8-6.3,21.1c5.6,5.4,10,8.8,13,10.2
				C497,524.9,498,526.7,497.1,528.8z"/>
			<path class="st1" d="M586.7,504.9h-28.1c1.6,1.9,4.2,4,7.7,6.3c3.5,2.3,9.4,6.1,17.6,11.2c2.3,1.6,3.2,3,2.5,4.2
				c-0.7,1.2-2.2,1.6-4.6,1.4c-4-1.4-9.3-4.2-15.8-8.4c-6.3-4.2-11.1-7.7-14.4-10.5v18.3c-0.7,1.6-2,2.5-3.9,2.5
				c-2.1,0-3.4-0.8-3.9-2.5v-17.6c-4.5,4-8.8,7.1-13,9.5c-4,2.6-8.6,5-13.7,7.4c-4.9,1.6-7.7,2-8.4,1.1c-0.7-0.7,0-2,2.1-3.9
				c3.3-1.4,6.9-3.4,10.9-6c4-2.6,9.3-6.9,15.8-13h-28.1c-1.9-0.2-2.8-0.8-2.8-1.8c0-1.2,0.9-1.8,2.8-1.8h34.5v-8.4
				c0.7-1.6,2-2.3,3.9-2.1c1.9,0,3.2,0.9,3.9,2.8v7.7h35.2c1.6,0,2.5,0.5,2.5,1.4C589.1,503.7,588.3,504.4,586.7,504.9z
				 M588.1,469.7c-0.9,2.1-2.3,3.2-4.2,3.2c-1.9,0-3-1.1-3.5-3.2v-12.7h-31.6c1.6,1.9,2,3.4,1.1,4.6c-0.9,1.4-2.5,3.6-4.6,6.7h30.9
				c1.9,0,2.9,0.5,3.2,1.4c0,0.9-0.8,1.6-2.5,2.1h-10.5l-9.8,10.5c3.3,0.5,6.4,1.2,9.5,2.1c3,0.9,6.2,2.1,9.5,3.5
				c3.3,2.1,4.3,4.1,3.2,6c-0.9,1.9-3.4,2.5-7.4,1.8c-3.3-1.9-6.7-3.4-10.2-4.6c-3.5-1.2-7.1-2.2-10.9-3.2
				c-4.7,2.3-9.5,4.2-14.4,5.6c-5.2,1.6-10.7,2.8-16.5,3.5c-3.5,0-5.4-0.5-5.6-1.4c-0.2-1.2,1.2-2.1,4.2-2.8c4-1.2,7.9-2.3,11.6-3.5
				c3.7-1.2,7.4-2.3,10.9-3.5l-12-2.1c-2.1-0.7-2.7-1.9-1.8-3.5c0.9-1.6,3.4-4.5,7.4-8.4h-14.8c-1.6-0.2-2.5-0.8-2.5-1.8
				c-0.2-1.2,0.6-1.8,2.5-1.8H536l7-11.2h-28.1v12.7c-0.5,2.1-1.6,3.3-3.5,3.5c-1.9,0.2-3-0.9-3.5-3.5v-9.8c0-2.1,0.7-3.7,2.1-4.9
				c1.4-0.9,3.3-1.4,5.6-1.4h28.8c-0.2-3.3-0.2-5.6,0-7c0.5-1.6,1.9-2.6,4.2-2.8c1.6,0.2,2.5,1.2,2.5,2.8c0.2,1.6,0.4,4,0.4,7h30.9
				c1.9,0,3.3,0.5,4.2,1.4c0.9,1.2,1.4,2.3,1.4,3.5V469.7z M556.4,471.8h-13.4l-5.6,7L548,481c1.6-1.4,3-2.9,4.2-4.6
				C553.6,475,555,473.5,556.4,471.8z"/>
		</g>
		<g id="组_66" transform="translate(323.758 627.875)">
			<circle id="椭圆_6" class="st3" cx="-356.9" cy="-133.4" r="21.5"/>
			<circle id="椭圆_7" class="st3" cx="-330.2" cy="-147.9" r="23.9"/>
			<line id="直线_4" class="st3" x1="-349.1" y1="-153.4" x2="-353.7" y2="-144"/>
			<line id="直线_5" class="st3" x1="-345.3" y1="-151.5" x2="-351.8" y2="-137.8"/>
			<line id="直线_6" class="st3" x1="-341.5" y1="-148.3" x2="-348.5" y2="-132.8"/>
			<line id="直线_7" class="st3" x1="-337.5" y1="-142.7" x2="-343.2" y2="-127.9"/>
			<line id="直线_8" class="st3" x1="-335.7" y1="-137.3" x2="-340.4" y2="-126.3"/>
			<path id="路径_198" class="st3" d="M-372.5-164c-1.8-0.9-7.7,3-4.3,7s5.9-4.5,5.5-8c0,0,0.9,6.6,2.8,6.1"/>
			<path id="路径_199" class="st3" d="M-340.4-186.5l4.6,13.5c0,0-2.3-6.8,0.5-8.7c3.4-2.3,6.2,4.3,0.9,6"/>
		</g>
		<path id="路径_219" class="st4" d="M20.4,533.1l2.1,4.2l4.6,0.7l-3.3,3.2l0.8,4.6l-4.1-2.2l-4.1,2.2l0.8-4.6l-3.3-3.2l4.6-0.7
			L20.4,533.1z"/>
		<g id="组_133" transform="translate(899.22 456.781)">
			<g id="组_69" transform="translate(0 39.983)">
				<line id="直线_15" class="st5" x1="-386.9" y1="-170.3" x2="-370.9" y2="-159.1"/>
				<line id="直线_16" class="st5" x1="-377.4" y1="-176.3" x2="-379.8" y2="-156.8"/>
				<path id="路径_202" class="st5" d="M-376.2-185.8c0,0,1.9-2.2,3.7,1s-0.6,9.2-0.6,9.2l5.8-2.2"/>
			</g>
			<g id="组_72" transform="translate(10)">
				<path id="路径_211" class="st6" d="M-348.2-120.7l-5.8-18.2l13.9-14.5l19.7,3.7l5.8,18.2l-13.9,14.5L-348.2-120.7z"/>
				<path id="路径_212" class="st6" d="M-384.2-106.3l19.7,3.7l5.8,18.2"/>
				<path id="路径_213" class="st6" d="M-322.6-98.7l-5.8-18.2l13.9-14.5l19.7,3.7l5.8,18.2L-302.9-95L-322.6-98.7z"/>
				<path id="路径_214" class="st6" d="M-314.6-131.5l-5.8-18.2l13.9-14.5l19.7,3.7l5.8,18.2l-13.9,14.5L-314.6-131.5z"/>
				
					<ellipse id="椭圆_9" transform="matrix(0.9525 -0.3045 0.3045 0.9525 25.0414 -102.0031)" class="st7" cx="-314.5" cy="-131.3" rx="2.7" ry="2.6"/>
				
					<ellipse id="椭圆_10" transform="matrix(0.9525 -0.3045 0.3045 0.9525 19.1787 -86.3039)" class="st7" cx="-267.1" cy="-104.6" rx="2.7" ry="2.6"/>
				<path id="路径_215" class="st7" d="M-383.4-103.9c1.3-0.5,2-2,1.4-3.3c-0.5-1.3-2-2-3.3-1.4c-1.3,0.5-1.9,1.9-1.5,3.2
					C-386.3-104.1-384.8-103.4-383.4-103.9z"/>
				
					<ellipse id="椭圆_11" transform="matrix(0.9525 -0.3045 0.3045 0.9525 8.6792 -113.2332)" class="st7" cx="-358.7" cy="-84.4" rx="2.7" ry="2.6"/>
				<path id="路径_216" class="st7" d="M-312.5-181.5c1.3-0.5,2-2,1.4-3.3c-0.5-1.3-2-2-3.3-1.4c-1.3,0.5-1.9,1.9-1.5,3.2
					C-315.4-181.7-313.9-181-312.5-181.5z"/>
				
					<ellipse id="椭圆_12" transform="matrix(0.9525 -0.3045 0.3045 0.9525 13.8803 -115.8369)" class="st7" cx="-364.4" cy="-102.4" rx="2.7" ry="2.6"/>
				<path id="路径_217" class="st7" d="M-306.1-161.5c1.3-0.5,2-2,1.4-3.3c-0.5-1.3-2-2-3.3-1.4c-1.3,0.5-1.9,1.9-1.5,3.2
					C-309-161.7-307.5-161-306.1-161.5z"/>
				<path id="路径_218" class="st7" d="M-347.3-118.1c1.3-0.5,2-2,1.4-3.3c-0.5-1.3-2-2-3.3-1.4c-1.3,0.5-1.9,1.9-1.5,3.2
					C-350.2-118.3-348.7-117.6-347.3-118.1z"/>
				<line id="直线_24" class="st6" x1="-306.9" y1="-164" x2="-313.3" y2="-184"/>
				<line id="直线_25" class="st6" x1="-348.1" y1="-120.5" x2="-364.4" y2="-102.4"/>
				<line id="直线_26" class="st6" x1="-289" y1="-109.4" x2="-267.1" y2="-104.6"/>
			</g>
			<g id="组_73" transform="translate(71.952 110.147)">
				<path id="路径_220" class="st3" d="M-340.3-163.2c0,12.9-10.4,23.3-23.3,23.3c-0.8,0-1.5,0-2.2-0.1
					c-12.8-1.2-22.2-12.6-21-25.4c1.2-12.8,12.6-22.2,25.4-21C-349.4-185.3-340.3-175.2-340.3-163.2L-340.3-163.2z"/>
				<path id="路径_221" class="st3" d="M-344-159c0,2-1.6,3.6-3.6,3.6s-3.6-1.6-3.6-3.6c0-2,1.6-3.6,3.6-3.6l0,0
					C-345.6-162.6-344-161-344-159z"/>
				<path id="路径_222" class="st3" d="M-376.5-149.8c0,1.7-0.8,3.4-2.1,4.5c-3-2.5-5.4-5.8-6.8-9.5c0.9-0.6,1.9-0.8,3-0.8
					C-379.1-155.7-376.5-153.1-376.5-149.8C-376.5-149.8-376.5-149.8-376.5-149.8z"/>
				<path id="路径_223" class="st3" d="M-347.6-146.2c-4.3,4.1-10,6.4-16,6.3c-0.8,0-1.5,0-2.2-0.1c-0.1-0.6-0.2-1.3-0.2-1.9
					c0-5.4,4.3-9.7,9.7-9.7C-352.6-151.6-349.3-149.5-347.6-146.2L-347.6-146.2z"/>
				<ellipse id="椭圆_13" class="st3" cx="-369.2" cy="-177.8" rx="5.4" ry="5.4"/>
				<path id="路径_224" class="st3" d="M-364.3-162.6c0,1.4-1.1,2.5-2.5,2.5s-2.5-1.1-2.5-2.5s1.1-2.5,2.5-2.5c0,0,0,0,0,0
					C-365.4-165.1-364.3-164-364.3-162.6C-364.3-162.6-364.3-162.6-364.3-162.6z"/>
				<path id="路径_225" class="st3" d="M-344.7-176.8c-0.7,0.2-1.3,0.3-2,0.3c-3.8,0-6.8-3.1-6.8-6.8c0,0,0,0,0,0
					c0-0.3,0-0.6,0-0.9C-349.9-182.5-346.9-180-344.7-176.8z"/>
			</g>
		</g>
	</g>
	<g id="组_134" transform="translate(500.51 265.154)">
		<path id="路径_200" class="st8" d="M-386.9-186.5l4.3,33.9l27.6-17.8L-386.9-186.5z"/>
		<line id="直线_14" class="st8" x1="-386.9" y1="-186.5" x2="-368.9" y2="-161.7"/>
		<path id="路径_201" class="st8" d="M-371.7-165.7l3.2-2.2l3,4.3"/>
	</g>
</g>
<g id="组_137" transform="translate(-722.644 -482)">
	<g id="组_23" transform="translate(1567.2 979)">
		<path id="矩形_2" class="st9" d="M-381.5-186.5h249c2.8,0,5,2.2,5,5v38c0,2.8-2.2,5-5,5h-249c-2.8,0-5-2.2-5-5v-38
			C-386.5-184.3-384.2-186.5-381.5-186.5z"/>
		<g id="组_19" transform="translate(14.252 10.092)">
			<path id="路径_72" class="st10" d="M-378.4-174.9h-5.1v-2.2h5.1V-174.9z M-357.6-178.7c-0.1-1.5-0.6-2.9-1.3-4.1l-0.8-1.2
				c-1.6-1.5-3.7-2.3-5.9-2.2c-1,0-2,0.1-2.9,0.4c-2.7,0.6-4.2,2.9-4.9,5.4c-0.1,0.7-0.2,1.7-0.2,1.7h3.1c0.2-0.9,0.5-1.7,1-2.5
				c0.8-1.5,2.4-2.4,4.1-2.3c0.5,0,1,0.1,1.5,0.2c1.8,0.9,3.1,2.7,3.4,4.7L-357.6-178.7z M-362-170.7c0.1-0.3,0.2-0.7,0.2-1
				c0-0.5-0.2-0.9-0.5-1.3c-0.3-0.4-0.8-0.6-1.3-0.6c-0.3,0-0.6,0.1-0.8,0.3c-0.7,0.5-0.6,0.9-0.8,1.6c0.2,0.7,0.1,1,0.5,1.5
				c0.3,0.3,0.7,0.5,1.2,0.5C-363-169.7-362.3-170.1-362-170.7L-362-170.7z M-370.4-172c-0.2-0.8-1-1.3-1.8-1.3
				c-0.6,0.1-1.1,0.5-1.3,1.1c-0.1,0.3-0.2,0.6-0.2,0.9c0,0.4,0.2,0.8,0.4,1.2c0.3,0.4,0.8,0.6,1.3,0.6c0.2,0,0.5,0,0.7-0.1
				c0.6-0.3,1-1,1-1.7C-370.3-171.4-370.4-171.7-370.4-172L-370.4-172z M-366.4-175.4v-1.4h-7.3v1.8h4.1v5.6l-0.2,1.1
				c-0.7,1.8-2.1,3.3-3.9,4.1v5.3c1.8-1.3,3.1-3.1,3.8-5.2h0.3l0,5.2h3.2L-366.4-175.4z M-375.1-183.7h-4.1v-2.3h-3.3l0,2.3h-4.3v2
				h4.3v2.2h-4.3v7.8l0.4,1.9c0.8,1.4,2.3,2.4,3.9,2.6v2h-4.3v1.9h4.3v4.3h3.4v-4.3h4.1v-1.9h-4.1v-2c0.8-0.5,0.8,0.3,2.9-1.5
				c0.7-1,1.1-2.1,1.3-3.3v-7.5h-4.1v-2.2h4.1L-375.1-183.7z M-378.4-172.6c0.1,0.2,0.1,0.4,0.1,0.6c0,0.6-0.2,1.1-0.5,1.5
				c-0.6,0.8-1.3,1.1-2.7,1.1c-0.8-0.3-1.4-0.8-1.8-1.5c-0.1-0.5-0.2-1.1-0.1-1.6H-378.4z M-357.6-175.4v-1.4h-7.3v1.8h4.1v5.6
				l-0.2,1.1c-0.7,1.8-2.1,3.3-3.9,4.1v5.3c1.8-1.3,3.1-3.1,3.8-5.2h0.3l0,5.2h3.2L-357.6-175.4z"/>
			<path id="路径_73" class="st10" d="M-343.4-182.5h5.4v2.2h-5.4v2.7c2.4,0.5,5.3,4.4,5.3,6.8v11.9h-3.2v-12.9
				c0-1.3-0.9-2.5-2.1-3c0,0,0,1.4,0,2.5c0,0.6,0,1.1,0,1.4v12h-3.4v-3.8l0-12.1c-0.6,0-1,0.6-1.3,0.9c-1,1.1-1,1.3-1,3.3v11.8h-3
				v-11.6c0.1-2.6,1.5-4.9,3.7-6.3c1.5-0.8,0.1-0.5,1.5-0.8v-2.7h-5.3v-2.2h5.3v-3.8h3.4L-343.4-182.5z M-327.8-182.4h5.4v2.2h-5.4
				v2.7c2.4,0.5,5.3,4.3,5.3,6.8v11.9h-3.2v-12.9c0-1.3-0.9-2.5-2.1-3c0,0,0,1.4,0,2.5c0,0.6,0,1.1,0,1.4v12.1h-3.4v-3.8l0-12.1
				c-0.6,0-1,0.6-1.3,0.9c-1,1.1-1,1.3-1,3.3v11.8h-3v-11.5c0.1-2.6,1.5-5,3.7-6.4c1.5-0.8,0.1-0.5,1.5-0.8v-2.7h-5.3v-2.2h5.3v-3.8
				h3.4L-327.8-182.4z"/>
			<path id="路径_74" class="st10" d="M-300.2-180.6v4.3h2.5c2.8,0,3.9,0,4.8-0.8c0.8-0.7,1.1-1.5,1.1-4.5v-4.1h3.6v1
				c0,4.4,0.3,6.9-2,9.2c-0.9,1-2.2,1.6-4.8,1.6h-5.2v12.7h4.9l1.2-0.2c1.2-0.2,2.1-1.2,2.1-2.4l0.1-2.1v-5.6h3.6v4.7
				c0,5.2-1.2,6.7-4,7.7c-1.1,0.3-2.3,0.5-3.4,0.4h-11.9c-1.3,0.1-2.6,0-3.9-0.2c-2.3-0.7-4.1-2.7-4.5-5.1c-0.3-1.7-0.4-3.4-0.3-5.2
				v-2.4h3.5v2.9c0,1.1,0,2.2,0.1,3.3c0.1,0.7-0.1,2,0.9,3c0.7,0.6,0.8,0.9,2.9,1.1h4.9v-12.7h-6.1c-1.9,0-3.7-0.8-4.8-2.4
				c-1.5-2.1-1.4-6.2-1.5-9.5h3.5v4.3c0,2.3,0.2,2.9,0.8,3.9c0.6,1,1.4,1.3,3,1.3h5.1v-10.3h3.7L-300.2-180.6L-300.2-180.6z"/>
			<path id="路径_75" class="st10" d="M-252-159.9v1c-1.6,0-3.1-0.6-4.3-1.6c-0.5-0.5-1-0.9-1.6-1.3c-2,1.7-4.5,2.7-7.2,2.8v-1.8
				c1.3-0.2,2.5-0.6,3.6-1.2c0.8-0.5,1.6-0.7,1.9-1.8c-0.6-1-1.1-2-1.5-3c-0.6-1.3-1.2-3.3-1.4-7.6l0-1.2h3.6v1.3c0,0.4,0,0.8,0,1.2
				c0,3,0.5,5.6,1.2,5.8c0.1,0,0.2,0,0.3-0.1c0.8-0.5,1-4.1,1-8.1v-2h-7.8v5c0.1,2.7,0,5.4-0.4,8.1c-0.5,2.8-2.8,5.3-5,5.3h-0.8
				v-2.1c1.2-0.4,2.2-1.5,2.3-2.8c0.3-2.4,0.4-4.7,0.3-7.1v-2.4l0-3.1c0-3.2,0-10,0-10h15.3v2.2h-11.8v4.6h11.2c0,2,0,5.4,0,5.4
				s0,1.9,0,2.5l-0.1,1.3c-0.2,2-0.9,4-2,5.7c-0.3,0.3-0.5,0.6-0.7,1c1,1.4,2.4,2.4,4,2.8L-252-159.9z M-269.4-174.2h-7.1v1.4h7.1
				v2.2l-1.6,0v11.7h-3.5v-2.3l0-4.1v-4.6l0-0.8h-2c0,1.4-0.1,2.2-0.2,4c0,1-0.2,2.1-0.4,3c-0.5,1.7-1.4,4-4,4.6
				c-0.4,0.1-0.9,0.1-1.3,0.2v-2.2c1.4-0.4,1.9-1,2.1-3.2c0.2-1.6,0.3-3.1,0.2-4.7c0-4.9,0-4.8,0-13.2v-4.2h3.5v10h2.1v-10h3.7v10
				h1.4L-269.4-174.2L-269.4-174.2z"/>
		</g>
		<g id="组_20" transform="translate(166.912 9.933)">
			<rect id="矩形_1" x="-386.9" y="-186.5" class="st11" width="77.2" height="28.4"/>
			<path id="路径_76" class="st1" d="M-368.2-182.2c0.4,1.2-1.3,1.6-2,1.9c-0.3,0.1-0.5,0.2-0.8,0.3c-0.2,0.1-0.3,0.2-0.5,0.3
				c-0.2,0.1-0.4,0.1-0.5,0.1c-0.4,0.1-0.8,0.2-1.2,0.3c-0.8,0.2-1.6,0.5-2.4,0.7c-0.5,0.1-0.9,0.3-1.4,0.4c-0.5,0.1-1,0-1.4-0.3
				c-0.4-0.2-0.4-0.6-0.6-1c-0.1-0.2-0.1-0.4,0.1-0.6c0,0,0.3,0,0.3,0c0.1,0,0.2,0,0.3,0c0.2,0,0.4-0.1,0.6-0.1s0.4-0.1,0.6-0.1
				c0.2,0,0.4,0,0.6-0.1c0.2-0.2,0.4-0.3,0.7-0.4c0.5-0.2,1-0.3,1.5-0.4c0.2,0,0.3-0.1,0.5-0.1c0.1,0,0.2,0,0.3,0
				c0.1,0,0.1-0.1,0.2-0.2c0.2-0.1,0.4-0.1,0.6-0.3c0.5-0.4,1.2-0.6,1.6-1.1c0.3-0.2,0.7-0.4,1-0.4c0.4-0.1,0.8,0,1.1,0.1
				C-368.7-182.8-368.3-182.6-368.2-182.2"/>
			<path id="路径_77" class="st1" d="M-354.5-176c0.1-0.2,0.1-0.4,0.1-0.6c0-0.2-0.1-0.4-0.1-0.6c0-0.2,0.1-0.3-0.1-0.4
				c-0.4-0.3-0.8,0.2-1.2,0.2c-0.3,0.2-0.6,0.4-0.9,0.7c-0.2,0.1-0.4,0.3-0.6,0.4c-0.2,0.1-0.4,0.3-0.5,0.5
				c-0.4,0.3-0.9,0.5-1.3,0.8c-0.5,0.2-1.1,0.2-1.6,0.1c-0.7-0.2-1.4-0.4-2-0.8c-0.3-0.1-0.6-0.2-0.9-0.4c-0.3-0.2-0.5-0.5-0.8-0.8
				c-0.3-0.2-0.6-0.4-0.5-0.7c0.3-0.2,0.6-0.4,0.9-0.4c1.2-0.1,2.4-0.2,3.5-0.4c0.6-0.2,1.3-0.3,1.9-0.5c0.2-0.1,0.3-0.1,0.5-0.2
				c0.2-0.1,0.3-0.2,0.5-0.3c0.4-0.2,0.8-0.1,1.2-0.2c0.5-0.1,1.1-0.3,1.6-0.5c0.3-0.1,0.6-0.2,0.9-0.3c0.3,0,0.5-0.1,0.7-0.2
				c0.6-0.4,1.2-0.2,1.8-0.5c0.5-0.2,1-0.4,1.6-0.6c0.3-0.1,0.6-0.1,0.8-0.1c0.5,0.1,1,0.2,1.4,0.3c0.4,0.1,0.8,0.2,1.2,0.4
				c0.2,0.1,0.4,0.3,0.5,0.5c0,0.3,0,0.5-0.2,0.7c-0.1,0.1-0.1,0.2-0.2,0.3c-0.2,0.3-0.5,0.5-0.9,0.6c-0.4,0.1-0.8,0.1-1.2,0.1
				c-0.2-0.1-0.4-0.1-0.6-0.3c-0.7-0.3-1.5-0.4-2.2-0.1c-0.1,0-0.2,0.1-0.3,0.1c-0.1,0-0.2,0.1-0.3,0.1c-0.1,0.1-0.2,0.1-0.3,0.2
				c-0.2,0.1-0.5,0.2-0.5,0.5c0,0.4,0,0.7,0.1,1.1c0.3,0.7-0.1,1.3,0.2,2c0.2,1.1,0.3,2.1,0.4,3.2c0,1.5,0.1,3.1,0.4,4.6
				c0.1,0.3,0.2,0.6,0.2,1c0,0.2,0.1,0.4,0.1,0.6c0.1,0.4,0.2,0.8,0.2,1.2c0,0.5-0.1,1-0.2,1.5c0,0.6-0.3,1.1-0.8,1.3
				c-0.6,0.5-1.5,0.6-2.2,0.3c-0.5-0.2-0.9-0.7-0.9-1.3c-0.2-0.4-0.2-0.9-0.1-1.4c0.4-3.8,0.6-7.6,0.5-11.3"/>
			<path id="路径_78" class="st1" d="M-373.2-177.7c0.3,0.4,0.5,0.8,0.7,1.2c0.2,0.2,0.4,0.2,0.6,0.1c0.2,0,0.4-0.1,0.6-0.2
				c0.2-0.1,0.3-0.3,0.5-0.4c0.3-0.3,0.7-0.6,1.1-0.7c0.3-0.1,0.5-0.1,0.8-0.1c0.4,0.2,1,0.2,1.2,0.6c0.2,0.3,0.2,0.6,0,0.9
				c-0.4,0.8-1.3,1.1-2,1.6c-0.5,0.3-1.3,0.5-1.5,1.1c0.1,0.9,0.6,1.7,1.4,2.3c0.9,1,1.8,2.4,3,3c0.4,0.2,0.7,0.5,1,0.8
				c0.2,0.1,0.3,0.3,0.5,0.4c0.2,0.1,0.4,0.2,0.6,0.3c0.2,0.1,0.4,0.2,0.6,0.4c0.1,0.1,0.2,0.1,0.3,0.1c0.2,0.1,0.3,0.3,0.5,0.3
				c0.1,0,0.2,0,0.3,0c0.1,0.1,0.2,0.1,0.3,0.2c0.5,0.3,1,0.6,1.5,0.8c0.2,0.1,0.4,0.1,0.6,0.2c0.2,0.1,0.3,0.2,0.5,0.3
				c0.3,0.2,0.7,0.4,0.8,0.7c0.1,0.3,0,0.5-0.2,0.7c-0.2,0.2-0.6,0.4-0.9,0.4c-0.3,0-0.6,0.2-0.9,0.2c-0.2,0-0.3,0-0.5,0
				c-0.4,0-0.7,0.1-1.1,0.1c-0.7,0.1-1.5,0.1-2.2,0.1c-0.4,0.1-0.9,0-1.3-0.2c-0.5-0.3-1-0.7-1.4-1.1c-0.6-0.5-1.1-1.1-1.5-1.7
				c-0.5-0.7-0.9-1.3-1.3-2c-0.3-0.6-0.8-1.1-1.2-1.5c-0.2-0.1-0.3-0.3-0.5-0.5c-0.1-0.1-0.3-0.3-0.4-0.4c-0.2-0.3-0.6-0.5-1-0.6
				c-0.2,0.2-0.3,0.5-0.3,0.8c0,0.2,0,0.4-0.1,0.6c0,0.2-0.1,0.3-0.1,0.5c0,0.4-0.1,0.7-0.2,1c-0.1,0.2-0.2,0.4-0.2,0.6
				c-0.1,0.2-0.1,0.4-0.2,0.6c0,0.1-0.1,0.2-0.2,0.3c-0.1,0.2-0.1,0.4-0.2,0.6c-0.1,0.2-0.2,0.4-0.4,0.6c-0.3,0.4-0.6,0.8-1,1.2
				c-0.2,0.2-0.4,0.4-0.6,0.6c-0.2,0.2-0.3,0.3-0.5,0.4c-0.2,0.1-0.4,0.2-0.6,0.2c-0.4,0.2-0.9,0.3-1.4,0.4c-0.3,0-0.6-0.1-0.8-0.2
				c-0.1,0-0.3-0.1-0.4-0.1c-0.1-0.1-0.3-0.1-0.4-0.2c-0.1-0.1-0.3-0.2-0.4-0.4c-0.1-0.1-0.1-0.2-0.1-0.3c0-0.2,0-0.3-0.1-0.4
				c-0.2-0.2-0.1-0.4-0.1-0.6c0-0.1-0.1-0.2-0.1-0.3c0-0.2,0.1-0.3,0.3-0.5c0.1-0.2,0.2-0.3,0.4-0.4c0.3-0.1,0.5-0.1,0.8,0
				c0.1,0,0.3,0.1,0.4,0.1c0.2,0.1,0.3,0.3,0.5,0.1c0.2-0.1,0.3-0.3,0.4-0.4c0.1-0.1,0.2-0.3,0.3-0.4c0.1-0.1,0.2-0.3,0.4-0.4
				c0.2-0.3,0.4-0.6,0.5-1c0.6-0.7,0.7-1.6,0.4-2.4c-0.6,0-1.3,0.3-1.9,0.1c-0.4-0.3-1.1-0.5-1.3-1c-0.3-0.3-0.5-0.7-0.6-1.2
				c0.2-0.5,0.9-0.4,1.3-0.4c0.4-0.2,0.8-0.2,1.2-0.4c0.2-0.1,0.5-0.1,0.7-0.3c0.2-0.1,0.4-0.2,0.6-0.4c0.2-0.1,0.4-0.3,0.6-0.4
				c0.2-0.1,0.5-0.1,0.7-0.3c0.2-0.1,0.4-0.2,0.5-0.4c0.4-0.3,0.6-0.7,0.6-1.2c0-0.2-0.1-0.3-0.1-0.5c0-0.2,0-0.3,0.1-0.5
				c0-0.2,0.1-0.3,0.1-0.5c0-0.3,0-0.4,0.1-0.7c0.1-0.2,0.3-0.4,0.6-0.5c0.2,0,0.4-0.1,0.6,0c0.2,0,0.4-0.1,0.5-0.1
				c0.1,0,0.2,0.1,0.3,0.1C-373.4-177.8-373.3-177.7-373.2-177.7"/>
			<g id="组_20-2" transform="translate(46.147 16.34)">
				<path id="路径_79" class="st1" d="M-384.6-185.7L-384.6-185.7c-0.1-0.1-0.2-0.2-0.3-0.3c-0.1-0.1-0.3-0.1-0.5-0.1
					c-0.3,0-0.5,0.1-0.7,0.3c-0.2,0.2-0.3,0.5-0.2,0.8c0,0.3,0.1,0.6,0.2,0.9c0.2,0.2,0.4,0.3,0.7,0.3c0.1,0,0.3,0,0.4-0.1
					c0.1-0.1,0.3-0.1,0.4-0.2l0,0l-0.1,0.3c-0.1,0.1-0.3,0.1-0.4,0.1c-0.1,0-0.3,0-0.4,0c-0.4,0-0.8-0.1-1.1-0.4
					c-0.3-0.3-0.4-0.6-0.4-1c0-0.4,0.1-0.7,0.4-1c0.3-0.3,0.7-0.4,1.1-0.4c0.1,0,0.3,0,0.4,0c0.2,0,0.3,0.1,0.4,0.1
					c0,0.1,0,0.1-0.1,0.2C-384.6-185.8-384.6-185.7-384.6-185.7z"/>
				<path id="路径_80" class="st1" d="M-384.4-184.5c-0.1-0.5,0.3-0.9,0.8-1c0.1,0,0.1,0,0.2,0c0.3,0,0.5,0.1,0.7,0.3
					c0.2,0.2,0.3,0.5,0.3,0.7c0,0.5-0.4,1-0.9,1c-0.5,0-1-0.4-1-0.9C-384.4-184.5-384.4-184.5-384.4-184.5L-384.4-184.5z
					 M-383.8-184.5c0,0.2,0,0.4,0.1,0.6c0.1,0.1,0.2,0.2,0.3,0.2c0.1,0,0.3-0.1,0.3-0.2c0.1-0.2,0.1-0.4,0.1-0.6
					c0-0.2,0-0.4-0.1-0.6c-0.1-0.1-0.2-0.2-0.3-0.2c-0.1,0-0.3,0.1-0.3,0.2C-383.8-185-383.8-184.8-383.8-184.5L-383.8-184.5z"/>
				<path id="路径_81" class="st1" d="M-382.1-183.6c0-0.2,0-0.4,0-0.5c0-0.2,0-0.3,0-0.4c0-0.1,0-0.2,0-0.4c0-0.2,0-0.3,0-0.5
					c0,0,0.1,0,0.1,0s0.1,0,0.1,0s0.1,0,0.1,0s0.1,0,0.1,0v0.3c0.1-0.1,0.2-0.2,0.3-0.2c0.1,0,0.2-0.1,0.3-0.1c0.1,0,0.2,0,0.3,0.1
					c0.1,0.1,0.2,0.2,0.2,0.3c0.1-0.1,0.2-0.2,0.3-0.3c0.1-0.1,0.2-0.1,0.4-0.1c0.1,0,0.2,0,0.3,0c0.1,0,0.1,0.1,0.2,0.1
					c0.1,0.1,0.1,0.2,0.1,0.2c0,0.2,0,0.4,0,0.5v0.2c0,0.1,0,0.2,0,0.3s0,0.2,0,0.4c-0.1,0-0.1,0-0.2,0s-0.1,0-0.1,0s-0.1,0-0.1,0
					s-0.1,0-0.1,0c0-0.2,0-0.3,0-0.5c0-0.1,0-0.3,0-0.4c0-0.2,0-0.4-0.1-0.6c0-0.1-0.1-0.1-0.2-0.1c-0.1,0-0.2,0-0.2,0.1
					c-0.1,0.2-0.1,0.3-0.1,0.5v0.6c0,0.1,0,0.2,0,0.3c0,0,0,0,0,0c-0.1,0-0.1,0-0.2,0s-0.1,0-0.1,0s-0.1,0-0.1,0l-0.2,0
					c0-0.1,0-0.3,0-0.4c0-0.1,0-0.3,0-0.4c0-0.2,0-0.4-0.1-0.6c0-0.1-0.1-0.1-0.2-0.1c-0.1,0-0.2,0-0.2,0.1
					c-0.1,0.2-0.1,0.3-0.1,0.5v0.6c0,0.1,0,0.2,0,0.3c0,0,0,0,0,0c0,0-0.1,0-0.1,0s-0.1,0-0.1,0s-0.1,0-0.1,0
					S-382-183.6-382.1-183.6z"/>
				<path id="路径_82" class="st1" d="M-378.7-183.6c0-0.2,0-0.4,0-0.5c0-0.2,0-0.3,0-0.4c0-0.1,0-0.2,0-0.4c0-0.2,0-0.3,0-0.5
					c0,0,0.1,0,0.1,0s0.1,0,0.1,0s0.1,0,0.1,0s0.1,0,0.1,0v0.3c0.1-0.1,0.2-0.2,0.3-0.2c0.1,0,0.2-0.1,0.3-0.1c0.1,0,0.2,0,0.3,0.1
					c0.1,0.1,0.2,0.2,0.2,0.3c0.1-0.1,0.2-0.2,0.3-0.3c0.1-0.1,0.2-0.1,0.4-0.1c0.1,0,0.2,0,0.3,0c0.1,0,0.1,0.1,0.2,0.1
					c0.1,0.1,0.1,0.2,0.1,0.2c0,0.2,0,0.4,0,0.5v0.2c0,0.1,0,0.2,0,0.3c0,0.1,0,0.2,0,0.4c-0.1,0-0.1,0-0.2,0s-0.1,0-0.1,0
					s-0.1,0-0.1,0s-0.1,0-0.1,0c0-0.2,0-0.3,0-0.5c0-0.1,0-0.3,0-0.4c0-0.2,0-0.4-0.1-0.6c0-0.1-0.1-0.1-0.2-0.1
					c-0.1,0-0.2,0-0.2,0.1c-0.1,0.2-0.1,0.3-0.1,0.5v0.6c0,0.1,0,0.2,0,0.3c0,0,0,0,0,0c-0.1,0-0.1,0-0.2,0s-0.1,0-0.1,0
					s-0.1,0-0.1,0l-0.2,0c0-0.1,0-0.3,0-0.4c0-0.1,0-0.3,0-0.4c0-0.2,0-0.4-0.1-0.6c0-0.1-0.1-0.1-0.2-0.1c-0.1,0-0.2,0-0.2,0.1
					c-0.1,0.2-0.1,0.3-0.1,0.5v0.6c0,0.1,0,0.2,0,0.3c0,0,0,0,0,0c0,0-0.1,0-0.1,0s-0.1,0-0.1,0s-0.1,0-0.1,0
					S-378.6-183.6-378.7-183.6z"/>
				<path id="路径_83" class="st1" d="M-375.4-184.5c0-0.6,0.5-1,1.1-1c0.2,0,0.5,0.1,0.6,0.3c0.2,0.2,0.3,0.5,0.3,0.7
					c0,0.5-0.4,1-0.9,1c-0.5,0-1-0.4-1-0.9C-375.4-184.5-375.4-184.5-375.4-184.5z M-374.8-184.5c0,0.2,0,0.4,0.1,0.6
					c0.1,0.2,0.3,0.2,0.5,0.1c0.1,0,0.1-0.1,0.1-0.1c0.1-0.2,0.1-0.4,0.1-0.6c0-0.2,0-0.4-0.1-0.6c-0.1-0.2-0.3-0.2-0.5-0.1
					c-0.1,0-0.1,0.1-0.1,0.1C-374.8-185-374.8-184.7-374.8-184.5L-374.8-184.5z"/>
				<path id="路径_84" class="st1" d="M-373.1-183.6c0-0.2,0-0.3,0-0.5c0-0.2,0-0.3,0-0.4c0-0.2,0-0.3,0-0.5c0-0.2,0-0.3,0-0.5
					c0,0,0.1,0,0.1,0s0.1,0,0.1,0s0.1,0,0.1,0s0.1,0,0.1,0v0.3c0.1-0.1,0.2-0.2,0.3-0.2c0.1-0.1,0.2-0.1,0.3-0.1c0.1,0,0.2,0,0.3,0
					c0.1,0,0.1,0.1,0.2,0.1c0,0.1,0.1,0.1,0.1,0.2c0,0.1,0,0.3,0,0.4c0,0,0,0.1,0,0.2s0,0.2,0,0.3c0,0.1,0,0.2,0,0.3s0,0.2,0,0.3
					c-0.1,0-0.1,0-0.2,0s-0.1,0-0.1,0s-0.1,0-0.1,0s-0.1,0-0.2,0c0-0.1,0-0.2,0-0.4c0-0.2,0-0.3,0-0.5c0-0.2,0-0.4-0.1-0.5
					c-0.1-0.1-0.1-0.1-0.2-0.1c-0.1,0-0.2,0.1-0.3,0.1c-0.1,0.2-0.1,0.3-0.1,0.5c0,0.1,0,0.2,0,0.4s0,0.3,0,0.5c0,0-0.1,0-0.1,0
					s-0.1,0-0.1,0s-0.1,0-0.1,0S-373-183.6-373.1-183.6z"/>
				<path id="路径_85" class="st1" d="M-370.3-183.6c-0.1-0.4-0.2-0.9-0.4-1.3c-0.1-0.4-0.3-0.9-0.4-1.4c0,0,0.1,0,0.2,0
					s0.1,0,0.2,0s0.1,0,0.2,0s0.1,0,0.2,0c0.1,0.3,0.2,0.7,0.2,1s0.2,0.7,0.3,1c0.1-0.4,0.2-0.7,0.4-1c0.1-0.3,0.2-0.6,0.3-0.9
					c0,0,0.1,0,0.1,0s0.1,0,0.1,0s0.1,0,0.1,0s0.1,0,0.1,0c0.1,0.3,0.2,0.6,0.3,0.9c0.1,0.3,0.2,0.6,0.3,1c0.1-0.3,0.2-0.6,0.3-1
					c0.1-0.3,0.2-0.6,0.3-1c0,0,0.1,0,0.1,0c0,0,0.1,0,0.1,0s0.1,0,0.1,0s0.1,0,0.1,0c-0.1,0.4-0.3,0.8-0.4,1.3
					c-0.1,0.4-0.3,0.9-0.5,1.4c0,0-0.1,0-0.1,0s-0.1,0-0.1,0s-0.1,0-0.1,0s-0.1,0-0.1,0c-0.1-0.3-0.2-0.6-0.3-0.9
					c-0.1-0.3-0.2-0.6-0.3-1c-0.1,0.3-0.2,0.6-0.3,0.9s-0.2,0.6-0.3,1c0,0-0.1,0-0.1,0s-0.1,0-0.1,0s-0.1,0-0.1,0
					S-370.2-183.6-370.3-183.6z"/>
				<path id="路径_86" class="st1" d="M-366.6-184.5c0,0.2,0,0.4,0.2,0.5c0.1,0.1,0.3,0.2,0.4,0.2c0.1,0,0.2,0,0.3,0
					c0.1,0,0.2-0.1,0.2-0.1l0,0l-0.1,0.2c-0.1,0.1-0.2,0.1-0.3,0.1c-0.1,0-0.2,0-0.4,0c-0.3,0-0.5-0.1-0.7-0.3
					c-0.2-0.2-0.3-0.5-0.3-0.7c0-0.3,0.1-0.5,0.3-0.7c0.2-0.2,0.4-0.3,0.7-0.3c0.2,0,0.5,0.1,0.6,0.2c0.2,0.2,0.2,0.4,0.2,0.6
					c0,0,0,0.1,0,0.1s0,0,0,0L-366.6-184.5z M-366.6-184.7h0.7c0,0,0,0,0-0.1s0,0,0,0c0-0.1,0-0.3-0.1-0.4c0-0.1-0.1-0.1-0.2-0.1
					c-0.1,0-0.2,0.1-0.3,0.2C-366.6-185.1-366.6-184.9-366.6-184.7L-366.6-184.7z"/>
				<path id="路径_87" class="st1" d="M-364.1-183.8c-0.1,0.1-0.1,0.2-0.2,0.2c-0.1,0.1-0.2,0.1-0.3,0.1c-0.1,0-0.3,0-0.4-0.1
					c-0.1-0.1-0.1-0.3-0.1-0.4c0-0.1,0-0.2,0.1-0.3c0.1-0.1,0.2-0.2,0.3-0.2l0.2-0.1c0.1,0,0.3-0.1,0.4-0.2c0,0,0,0,0,0s0,0,0,0
					c0-0.1,0-0.2-0.1-0.3c-0.1-0.1-0.2-0.1-0.3-0.1c-0.1,0-0.2,0-0.2,0.1c-0.1,0.1-0.2,0.1-0.2,0.2c0-0.1,0-0.1,0-0.1s0-0.1,0-0.1
					c0.1-0.1,0.2-0.2,0.3-0.2c0.1,0,0.2-0.1,0.4-0.1c0.2,0,0.4,0,0.5,0.2c0.1,0.1,0.2,0.3,0.2,0.5v0l0,0.7v0.1c0,0.1,0,0.2,0.1,0.3
					c0.1,0.1,0.1,0.1,0.2,0.1h0v0.1c-0.1,0-0.1,0-0.2,0.1c-0.1,0-0.1,0-0.2,0c-0.1,0-0.2,0-0.2-0.1
					C-364.1-183.7-364.1-183.8-364.1-183.8z M-364.2-184.6c-0.1,0-0.3,0.1-0.4,0.2c-0.1,0.1-0.1,0.2-0.1,0.3c0,0.1,0,0.2,0.1,0.3
					c0,0.1,0.1,0.1,0.2,0.1c0.1,0,0.2,0,0.2-0.1c0.1-0.1,0.1-0.2,0.1-0.3L-364.2-184.6z"/>
				<path id="路径_88" class="st1" d="M-363.1-183.6c0-0.2,0-0.5,0-0.7c0-0.2,0-0.5,0-0.8c0-0.3,0-0.6,0-0.8c0-0.2,0-0.5,0-0.7
					c0.1,0,0.1,0,0.2,0s0.1,0,0.1,0s0.1,0,0.1,0s0.1,0,0.2,0c0,0.2,0,0.5,0,0.7s0,0.5,0,0.8c0,0.3,0,0.6,0,0.8c0,0.2,0,0.5,0,0.7
					c0,0-0.1,0-0.1,0c0,0-0.1,0-0.2,0s-0.1,0-0.2,0S-363.1-183.6-363.1-183.6z"/>
				<path id="路径_89" class="st1" d="M-362-185.3h-0.2h-0.1c0,0,0,0,0,0s0,0,0-0.1s0,0,0-0.1s0,0,0,0h0c0.1,0,0.2,0,0.2,0h0
					c0,0,0,0,0-0.1s0-0.1,0-0.1s0-0.1,0-0.2s0-0.1,0-0.2c0.1,0,0.2-0.1,0.3-0.1c0.1,0,0.2-0.1,0.3-0.1l0,0c0,0.1,0,0.3,0,0.4
					c0,0.1,0,0.2,0,0.2v0.1c0.1,0,0.1,0,0.2,0s0.1,0,0.2,0c0,0,0,0,0,0.1s0,0,0,0s0,0.1,0,0.1c0,0,0,0,0,0h-0.1h-0.3c0,0,0,0,0,0.1
					c0,0.3,0,0.5,0,0.6v0.2c0,0.2,0,0.4,0,0.6c0,0.1,0.1,0.1,0.2,0.1c0.1,0,0.2,0,0.2,0l0,0v0.1c-0.1,0-0.2,0.1-0.2,0.1
					c-0.1,0-0.1,0-0.2,0c-0.1,0-0.3,0-0.4-0.1c-0.1-0.1-0.1-0.2-0.1-0.4c0,0,0-0.1,0-0.3c0-0.2,0-0.4,0-0.6L-362-185.3z"/>
				<path id="路径_90" class="st1" d="M-360.8-183.6c0-0.1,0-0.3,0-0.5c0-0.2,0-0.5,0-0.9c0-0.4,0-0.7,0-1c0-0.2,0-0.4,0-0.6
					c0.1,0,0.1,0,0.1,0c0,0,0.1,0,0.1,0c0,0,0.1,0,0.1,0c0,0,0.1,0,0.1,0c0,0.1,0,0.2,0,0.3c0,0.1,0,0.3,0,0.4v0.6
					c0.1-0.2,0.4-0.3,0.6-0.3c0.1,0,0.2,0,0.3,0c0.1,0,0.1,0.1,0.2,0.1c0,0.1,0.1,0.1,0.1,0.2c0,0.1,0,0.3,0,0.4c0,0,0,0.1,0,0.2
					s0,0.2,0,0.3c0,0.1,0,0.3,0,0.4s0,0.2,0,0.3c-0.1,0-0.1,0-0.2,0s-0.1,0-0.1,0s-0.1,0-0.1,0s-0.1,0-0.2,0c0-0.1,0-0.2,0-0.4
					s0-0.3,0-0.5c0-0.2,0-0.4-0.1-0.5c-0.1-0.1-0.1-0.1-0.2-0.1c-0.1,0-0.2,0.1-0.3,0.1c-0.1,0.2-0.1,0.3-0.1,0.5c0,0.1,0,0.3,0,0.4
					s0,0.3,0,0.5c-0.1,0-0.1,0-0.1,0s-0.1,0-0.1,0s-0.1,0-0.1,0S-360.7-183.6-360.8-183.6z"/>
				<path id="路径_91" class="st1" d="M-386.8-179.2l0.1-0.5c0-0.1,0-0.2,0-0.3l0.2-1.8c0,0,0.1,0,0.1,0c0,0,0.1,0,0.1,0
					s0.1,0,0.1,0c0,0,0.1,0,0.1,0c0.1,0.3,0.3,0.6,0.4,0.9c0.2,0.3,0.3,0.6,0.5,0.9c0.2-0.3,0.3-0.6,0.5-0.9
					c0.1-0.3,0.3-0.6,0.4-0.9c0,0,0.1,0,0.1,0s0.1,0,0.1,0s0.1,0,0.1,0c0,0,0.1,0,0.1,0l0.2,1.9c0,0.2,0,0.4,0.1,0.5
					c0,0.1,0,0.2,0.1,0.3l-0.2,0c-0.1,0-0.1,0-0.2,0s-0.1,0-0.2,0s-0.1,0-0.2,0c0,0,0,0,0,0c0-0.3,0-0.4,0-0.5l-0.1-1.2
					c-0.1,0.3-0.3,0.6-0.4,0.9s-0.3,0.6-0.4,0.9c0,0,0,0,0,0h-0.1h0l0,0c-0.2-0.3-0.3-0.6-0.4-0.9c-0.1-0.3-0.3-0.6-0.4-0.8
					l-0.1,0.8v0c0,0.4-0.1,0.7-0.1,0.9c0,0-0.1,0-0.1,0c0,0-0.1,0-0.1,0C-386.7-179.3-386.7-179.3-386.8-179.2
					C-386.8-179.2-386.8-179.2-386.8-179.2z"/>
				<path id="路径_92" class="st1" d="M-382.3-179.5c-0.1,0.1-0.1,0.2-0.2,0.2c-0.1,0.1-0.2,0.1-0.3,0.1c-0.1,0-0.3,0-0.4-0.1
					c-0.1-0.1-0.1-0.3-0.1-0.4c0-0.1,0-0.2,0.1-0.3c0.1-0.1,0.2-0.2,0.3-0.2l0.2-0.1c0.1,0,0.3-0.1,0.4-0.2c0,0,0,0,0,0s0,0,0,0
					c0-0.1,0-0.2-0.1-0.3c-0.1-0.1-0.2-0.1-0.3-0.1c-0.1,0-0.2,0-0.2,0.1c-0.1,0.1-0.2,0.1-0.2,0.2c0-0.1,0-0.1,0-0.1s0-0.1,0-0.1
					c0.1-0.1,0.2-0.2,0.3-0.2c0.1,0,0.2-0.1,0.4-0.1c0.2,0,0.4,0,0.5,0.2c0.1,0.1,0.2,0.3,0.2,0.5v0l0,0.7v0.1c0,0.1,0,0.2,0.1,0.3
					c0.1,0.1,0.1,0.1,0.2,0.1h0v0.1c-0.1,0-0.1,0-0.2,0.1c-0.1,0-0.1,0-0.2,0c-0.1,0-0.2,0-0.2-0.1
					C-382.2-179.3-382.3-179.4-382.3-179.5z M-382.3-180.3c-0.1,0-0.3,0.1-0.4,0.2c-0.1,0.1-0.1,0.2-0.1,0.3c0,0.1,0,0.2,0.1,0.3
					c0,0.1,0.1,0.1,0.2,0.1c0.1,0,0.2,0,0.2-0.1c0.1-0.1,0.1-0.2,0.1-0.3L-382.3-180.3z"/>
				<path id="路径_93" class="st1" d="M-381-179.1L-381-179.1c-0.1-0.1-0.1-0.1-0.2-0.1c0-0.1-0.1-0.1-0.1-0.2
					c0-0.1,0-0.2,0.1-0.2c0.1-0.1,0.2-0.2,0.3-0.2v0c-0.1,0-0.3-0.1-0.4-0.2c-0.1-0.1-0.1-0.2-0.1-0.4c0-0.2,0.1-0.3,0.2-0.5
					c0.2-0.1,0.4-0.2,0.6-0.2c0,0,0.1,0,0.3,0s0.3,0,0.4,0h0.2l0.2,0v0.2l-0.3,0h-0.1c0.1,0,0.1,0.1,0.2,0.2c0,0.1,0.1,0.2,0.1,0.2
					c0,0.2-0.1,0.4-0.2,0.5c-0.2,0.1-0.4,0.2-0.6,0.2h-0.1c0,0-0.1,0-0.1,0.1c0,0,0,0.1,0,0.1c0,0.1,0.2,0.2,0.6,0.2h0h0
					c0.2,0,0.3,0,0.5,0.1c0.1,0,0.1,0.1,0.2,0.2c0,0.1,0.1,0.2,0.1,0.3c0,0.2-0.1,0.5-0.3,0.6c-0.2,0.2-0.5,0.2-0.8,0.2
					c-0.2,0-0.4,0-0.6-0.1c-0.1-0.1-0.2-0.2-0.2-0.4c0-0.1,0-0.2,0.1-0.3C-381.2-179-381.1-179.1-381-179.1z M-380.8-179.1
					c-0.1,0-0.1,0.1-0.1,0.1c-0.1,0.2-0.1,0.4,0.1,0.5c0.1,0.1,0.2,0.1,0.4,0.1c0.1,0,0.3,0,0.4-0.1c0.1-0.1,0.2-0.2,0.2-0.3
					c0-0.1,0-0.2-0.1-0.3c-0.1-0.1-0.2-0.1-0.3-0.1L-380.8-179.1z M-380.8-180.5c0,0.1,0,0.2,0.1,0.4c0.1,0.1,0.3,0.1,0.4,0.1
					c0,0,0,0,0.1-0.1c0.1-0.1,0.1-0.3,0.1-0.4c0-0.1,0-0.2-0.1-0.3c0-0.1-0.1-0.1-0.2-0.1c-0.1,0-0.2,0-0.2,0.1
					C-380.8-180.8-380.8-180.7-380.8-180.5L-380.8-180.5z"/>
				<path id="路径_94" class="st1" d="M-378.3-179.5c-0.1,0.1-0.1,0.2-0.2,0.2c-0.1,0.1-0.2,0.1-0.3,0.1c-0.1,0-0.3,0-0.4-0.1
					c-0.1-0.1-0.1-0.3-0.1-0.4c0-0.1,0-0.2,0.1-0.3c0.1-0.1,0.2-0.2,0.3-0.2l0.2-0.1c0.1,0,0.3-0.1,0.4-0.2c0,0,0,0,0,0s0,0,0,0
					c0-0.1,0-0.2-0.1-0.3c-0.1-0.1-0.2-0.1-0.3-0.1c-0.1,0-0.2,0-0.2,0.1c-0.1,0.1-0.2,0.1-0.2,0.2c0-0.1,0-0.1,0-0.1s0-0.1,0-0.1
					c0.1-0.1,0.2-0.2,0.3-0.2c0.1,0,0.2-0.1,0.4-0.1c0.2,0,0.4,0,0.5,0.2c0.1,0.1,0.2,0.3,0.2,0.5v0l0,0.7v0.1c0,0.1,0,0.2,0.1,0.3
					c0.1,0.1,0.1,0.1,0.2,0.1h0v0.1c-0.1,0-0.1,0-0.2,0.1c-0.1,0-0.1,0-0.2,0c-0.1,0-0.2,0-0.2-0.1
					C-378.2-179.3-378.3-179.4-378.3-179.5z M-378.3-180.3c-0.1,0-0.3,0.1-0.4,0.2c-0.1,0.1-0.1,0.2-0.1,0.3c0,0.1,0,0.2,0.1,0.3
					c0,0.1,0.1,0.1,0.2,0.1c0.1,0,0.2,0,0.2-0.1c0.1-0.1,0.1-0.2,0.1-0.3L-378.3-180.3z"/>
				<path id="路径_95" class="st1" d="M-377.5-179.2L-377.5-179.2c0.1-0.3,0.4-0.6,0.7-1.1l0.4-0.6l-0.2,0h-0.1
					c-0.1,0-0.3,0-0.5,0h0c0,0,0,0,0,0s0,0,0-0.1s0-0.1,0-0.1s0,0,0,0c0.1,0,0.2,0,0.4,0c0.1,0,0.3,0,0.4,0c0.1,0,0.3,0,0.4,0
					c0.1,0,0.2,0,0.4,0v0c-0.1,0.1-0.2,0.3-0.4,0.6c-0.2,0.3-0.4,0.6-0.7,1c0.1,0,0.2,0,0.2,0h0.1c0.1,0,0.2,0,0.3,0s0.2,0,0.3,0
					c0,0,0,0,0,0.1s0,0,0,0s0,0,0,0s0,0,0,0.1c-0.1,0-0.2,0-0.4,0s-0.3,0-0.5,0s-0.3,0-0.5,0S-377.3-179.2-377.5-179.2z"/>
				<path id="路径_96" class="st1" d="M-375.4-181.8c0-0.1,0-0.2,0.1-0.2c0.1-0.1,0.1-0.1,0.2-0.1c0.1,0,0.2,0,0.2,0.1
					c0.1,0.1,0.1,0.1,0.1,0.2c0,0.1,0,0.2-0.1,0.2c-0.1,0.1-0.1,0.1-0.2,0.1C-375.3-181.5-375.4-181.6-375.4-181.8
					C-375.4-181.8-375.4-181.8-375.4-181.8L-375.4-181.8z M-375.4-179.2c0-0.2,0-0.4,0-0.5s0-0.3,0-0.4c0-0.1,0-0.3,0-0.5
					s0-0.3,0-0.5l0.1,0h0.1h0.2l0.1,0c0,0.2,0,0.3,0,0.5s0,0.3,0,0.5c0,0.1,0,0.3,0,0.4c0,0.1,0,0.3,0,0.5c0,0-0.1,0-0.1,0
					s-0.1,0-0.1,0s-0.1,0-0.1,0S-375.4-179.2-375.4-179.2L-375.4-179.2z"/>
				<path id="路径_97" class="st1" d="M-374.3-179.2c0-0.2,0-0.3,0-0.5c0-0.2,0-0.3,0-0.4c0-0.2,0-0.3,0-0.5c0-0.2,0-0.3,0-0.5
					c0,0,0.1,0,0.1,0s0.1,0,0.1,0s0.1,0,0.1,0s0.1,0,0.1,0v0.3c0.1-0.1,0.2-0.2,0.3-0.2c0.1-0.1,0.2-0.1,0.3-0.1c0.1,0,0.2,0,0.3,0
					c0.1,0,0.1,0.1,0.2,0.1c0,0.1,0.1,0.1,0.1,0.2c0,0.1,0,0.3,0,0.4c0,0,0,0.1,0,0.2s0,0.2,0,0.3c0,0.1,0,0.2,0,0.3s0,0.2,0,0.3
					c-0.1,0-0.1,0-0.2,0s-0.1,0-0.1,0s-0.1,0-0.1,0s-0.1,0-0.2,0c0-0.1,0-0.2,0-0.4s0-0.3,0-0.5c0-0.2,0-0.4-0.1-0.5
					c-0.1-0.1-0.1-0.1-0.2-0.1c-0.1,0-0.2,0.1-0.3,0.1c-0.1,0.2-0.1,0.3-0.1,0.5c0,0.1,0,0.2,0,0.4c0,0.2,0,0.3,0,0.5
					c0,0-0.1,0-0.1,0s-0.1,0-0.1,0s-0.1,0-0.1,0S-374.3-179.2-374.3-179.2z"/>
				<path id="路径_98" class="st1" d="M-371.7-180.2c0,0.2,0,0.4,0.2,0.5c0.1,0.1,0.3,0.2,0.4,0.2c0.1,0,0.2,0,0.3,0
					c0.1,0,0.2-0.1,0.2-0.1l0,0l-0.1,0.2c-0.1,0.1-0.2,0.1-0.3,0.1c-0.1,0-0.2,0-0.4,0c-0.3,0-0.5-0.1-0.7-0.3
					c-0.2-0.2-0.3-0.5-0.3-0.7c0-0.3,0.1-0.5,0.3-0.7c0.2-0.2,0.4-0.3,0.7-0.3c0.2,0,0.5,0.1,0.6,0.2c0.2,0.2,0.2,0.4,0.2,0.6
					c0,0,0,0.1,0,0.1s0,0,0,0L-371.7-180.2z M-371.7-180.4h0.7c0,0,0,0,0-0.1s0,0,0,0c0-0.1,0-0.3-0.1-0.4c0-0.1-0.1-0.1-0.2-0.1
					c-0.1,0-0.2,0.1-0.3,0.2C-371.7-180.7-371.7-180.5-371.7-180.4L-371.7-180.4z"/>
			</g>
			<g id="组_21" transform="translate(45.997 5.264)">
				<path id="路径_99" class="st1" d="M-378.6-179v0.4h-3.1v0.7h-0.8l0-4.8c-0.1,0.2-0.3,0.4-0.4,0.6l-0.3-0.2
					c0.1-0.2,0.2-0.4,0.3-0.7l-0.4,0.4c-0.1-0.3-0.3-0.6-0.5-0.9c-0.2,0.3-0.4,0.7-0.6,1h0.2v0.9h1.5v0.4h-1.5v0.3
					c0.5,0.3,1,0.6,1.5,1l-0.5,0.6c-0.3-0.4-0.6-0.8-0.9-1.2v2.6h-0.8v-2.4c-0.5,0.7-1,1.3-1.7,1.8l-0.2-0.3
					c0.7-0.7,1.3-1.5,1.7-2.5h-1.5v-0.4h1.7v-0.9h0.2c0.4-0.7,0.6-1.5,0.7-2.4l0.7,0.2c-0.1,0.3-0.1,0.5-0.2,0.8
					c0.3,0.2,0.6,0.4,0.8,0.7c0.3-1.1,0.5-2.2,0.6-3.3l0.8,0.2c-0.1,0.6-0.2,1.2-0.3,1.8h3v0.4h-1.3v1.2h1.1v0.4h-1.1v1.4h1.1v0.4
					h-1.1v1.6L-378.6-179z M-386.6-182.1l-0.2-0.2c0.5-0.8,0.8-1.7,0.9-2.6l0.7,0.2c-0.1,0.3-0.2,0.5-0.3,0.8
					c0.3,0.2,0.6,0.5,0.9,0.8l-0.5,0.5c-0.2-0.3-0.3-0.6-0.5-0.9C-385.8-183-386.2-182.5-386.6-182.1L-386.6-182.1z M-382.7-184.9
					h-4v-0.4h2c-0.3-0.3-0.7-0.6-1-0.9l0.1-0.3c0.5,0.2,1.1,0.4,1.5,0.7l-0.4,0.5h1.6V-184.9z M-380.8-184.1h-0.9v1.2h0.9V-184.1z
					 M-380.8-182.4h-0.9v1.4h0.9V-182.4z M-380.8-180.6h-0.9v1.6h0.9V-180.6z M-380.5-184.6c-0.1-0.6-0.3-1.1-0.5-1.7l0.3-0.1
					c0.4,0.5,0.7,1,0.9,1.6L-380.5-184.6z"/>
				<path id="路径_100" class="st1" d="M-373.5-184.4h-3.1v-0.4h1.4c-0.3-0.5-0.6-1.1-0.9-1.4l0.2-0.2c0.5,0.3,1,0.8,1.4,1.3
					l-0.5,0.4h1.3L-373.5-184.4z M-376.3-183.2v-0.4h2.6v0.4H-376.3z M-373.7-181.9h-2.6v-0.4h2.6V-181.9z M-372.8-181.1l0.3,0.1
					c0,0.8-0.2,1.6-0.7,2.3l-0.6-0.5v1.1h-0.7v-0.5h-1.1v0.7h-0.7v-3.2h2.5v1.8C-373.3-179.7-373-180.4-372.8-181.1z M-374.5-180.6
					h-1v1.7h1V-180.6z M-371.4-184.4h-1.9v-0.4h1.9v-1.5h0.8v1.5h1.9v0.4h-1.9v1.6h1.8v0.4h-4.3v-0.4h1.7V-184.4z M-369.8-180.2
					c0.4,1.5,0.5,2.1-0.9,2.1c-1.3,0-1.5-0.1-1.5-1.1v-2.4h0.8v2.2c0,0.4,0.1,0.5,0.7,0.5c0.7,0,0.7-0.1,0.7-1.3L-369.8-180.2z
					 M-371.6-182.4c0.6,0.3,1.1,0.6,1.6,1l-0.5,0.6c-0.4-0.5-0.8-0.9-1.3-1.4L-371.6-182.4z M-368.4-179.5l-0.7,0.4
					c-0.2-0.7-0.5-1.3-0.8-2l0.3-0.2C-369.1-180.7-368.7-180.1-368.4-179.5L-368.4-179.5z"/>
			</g>
			<path id="路径_101" class="st1" d="M-343.6-172.7c-0.1-0.2-0.3-0.3-0.5-0.4c0,0-0.1,0-0.1,0l0,0c-0.1-0.1-0.2-0.2-0.4-0.2
				c-0.2-0.1-0.4,0-0.7-0.1c-0.3-0.1-0.6-0.1-0.9-0.2c-0.4-0.1-0.8-0.1-1.1,0c-0.2,0-0.4,0.1-0.5,0.2c-0.1,0.1-0.1,0.2-0.1,0.4
				c0,0.1,0,0.3,0,0.4c0,0.5,0.2,1,0.4,1.4c0.1,0.2,0.3,0.4,0.5,0.6c0.2,0.2,0.3,0.4,0.5,0.6c0.2,0.1,0.3,0.2,0.5,0.4
				c0.1,0.1,0.1,0.2,0.3,0.2c0.3,0.1,0.6,0.1,0.9,0.1c0.4,0,0.8,0,1.1,0c0.3,0,0.3-0.2,0.6-0.4s0.3-0.1,0.4-0.4
				C-342.5-171-342.8-172.1-343.6-172.7z"/>
		</g>
	</g>
</g>
</svg>
