<?xml version="1.0" encoding="utf-8"?>
<!-- Generator: Adobe Illustrator 23.0.3, SVG Export Plug-In . SVG Version: 6.00 Build 0)  -->
<svg version="1.1" id="圖層_1" xmlns="http://www.w3.org/2000/svg" xmlns:xlink="http://www.w3.org/1999/xlink" x="0px" y="0px"
	 viewBox="0 0 28.3 28.3" style="enable-background:new 0 0 28.3 28.3;" xml:space="preserve">
<style type="text/css">
	.st0{fill:#344C70;}
	.st1{fill:#F4A57A;}
	.st2{fill:#FFFFFF;}
	.st3{fill:#040000;}
	.st4{fill:#344C6F;}
</style>
<g id="组_56" transform="translate(1009.311 -1351)">
	<path id="路径_188" class="st0" d="M-987.7,1351.9c0.5,0.2,0.7,0.7,0.7,1.2c0,0.5,0,1,0,1.5c0.7,0,1.4,0,2.1,0
		c0.9,0,1.2,0.3,1.2,1.2c0,0.1,0,0.1,0,0.2c0.3,0,0.6,0,0.9,0c0.5,0,1,0.4,1,0.9c0,0.1,0,0.1,0,0.2c0,3.6,0,7.3,0,10.9
		c0,1-0.8,1.9-1.8,1.9c0,0-0.1,0-0.1,0c-2,0-4.1,0-6.1,0c-1,0-1.9,0.3-2.6,0.9c-0.7,0.7-1.9,0.7-2.6,0c-0.7-0.6-1.6-0.9-2.5-0.9
		c-2,0-4,0-6,0c-1.1,0.1-2-0.7-2.1-1.7c0-0.1,0-0.3,0-0.4c0-1,0-2,0-2.9c0-0.4,0.2-0.7,0.5-0.7s0.5,0.3,0.5,0.7c0,1,0,2,0,3
		c-0.1,0.5,0.3,1,0.8,1.1c0.1,0,0.2,0,0.3,0c2,0,4,0,6,0c1.2,0,2.3,0.4,3.2,1.1c0.4,0.4,1,0.4,1.4,0.1c0,0,0.1-0.1,0.1-0.1
		c0.9-0.7,2.1-1.1,3.2-1.1c2,0,3.9,0,5.9,0c0.8,0,1.1-0.4,1.1-1.1c0-3.5,0-6.9,0-10.4c0-0.1,0-0.2,0-0.4h-0.9v0.4c0,2.8,0,5.6,0,8.4
		c0.1,1.1-0.6,2-1.7,2.2c-0.1,0-0.3,0-0.4,0c-2.6,0-5.2,0.5-7.7,1.4c-0.2,0.1-0.4,0.1-0.5,0c-2.4-0.9-5-1.4-7.6-1.4
		c-1.1,0.1-2-0.6-2.1-1.7c0-0.2,0-0.3,0-0.5c0-0.4,0-0.7,0-1.1c0-0.3,0.1-0.5,0.4-0.6c0,0,0,0,0.1,0c0.3,0,0.5,0.2,0.5,0.6
		c0,0.4,0,0.8,0,1.2c-0.1,0.5,0.3,1,0.9,1.1c0.1,0,0.1,0,0.2,0c2.4,0,4.9,0.4,7.2,1.2c0.1,0,0.1,0,0.2,0.1c0,0,0.1,0,0.1,0v-0.4
		c0-3.5,0-7.1,0-10.6c0-0.2-0.1-0.5-0.4-0.5c0,0,0,0,0,0c-2.6-0.8-5.2-1.3-7.9-1.2c-0.1,0-0.2,0-0.3,0v0.4c0,1.5,0,3,0,4.5
		c0,0.1,0,0.2,0,0.3c0,0.3-0.2,0.6-0.5,0.5c-0.3,0-0.5-0.2-0.5-0.5c0,0,0,0,0,0c0-0.9,0-1.8,0-2.7v-1.1h-1c0,0.1,0,0.3,0,0.4
		c0,1.1,0,2.2,0,3.2c0,0.4-0.2,0.6-0.5,0.6s-0.5-0.2-0.5-0.6c0-1.2,0-2.4,0-3.6c0-0.5,0.4-1,0.9-1.1c0,0,0.1,0,0.1,0
		c0.3,0,0.5,0,0.9,0c0-0.2,0-0.3,0-0.5c0-0.5,0.4-1,0.9-1c0,0,0,0,0.1,0c2.1-0.1,4.2,0.2,6.3,0.6c0.8,0.2,1.6,0.5,2.4,0.7
		c0.1,0,0.3,0,0.4-0.1c1.6-1.6,3.4-2.9,5.4-3.9H-987.7z M-993.2,1367.8c0.1-0.1,0.2-0.1,0.2-0.2c1.3-1.3,2.8-2.3,4.5-3.1
		c0.4-0.2,0.6-0.6,0.6-1c0-3.4,0-6.9,0-10.3c0-0.1,0-0.2,0-0.3c-0.2,0.1-0.3,0.1-0.4,0.2c-1.7,0.9-3.2,2-4.5,3.4
		c-0.2,0.2-0.3,0.4-0.3,0.7c0,3.4,0,6.8,0,10.2L-993.2,1367.8z M-991.8,1367.7L-991.8,1367.7c0.2,0.1,0.2,0.1,0.3,0
		c1.9-0.5,3.8-0.7,5.7-0.7c0.8,0,1.2-0.4,1.2-1.2c0-3.3,0-6.6,0-9.9c0-0.1,0-0.2,0-0.3h-2.4v0.5c0,2.5,0,5,0,7.4
		c0,0.8-0.4,1.5-1.1,1.9c-0.5,0.2-1,0.5-1.4,0.8C-990.3,1366.6-991,1367.2-991.8,1367.7L-991.8,1367.7z"/>
	<path id="路径_189" class="st0" d="M-992.1,1374.2c0.1-0.7,0.3-1.4,0.7-1.9c0.7-0.9,1.7-1.4,2.8-1.4c1,0,2,0,3,0
		c2.1,0,3.8,1.8,3.8,3.9c0,2.1-1.7,3.8-3.8,3.8c-0.9,0-1.8,0-2.8,0c-1.8,0.1-3.4-1.2-3.6-3c0-0.1,0-0.2-0.1-0.3h-0.5
		c-4.1,0-8.3,0-12.4,0c-1.4,0-2.7-0.8-3.2-2.2c-0.1-0.4-0.2-0.7-0.2-1.1c0-2.1,0-4.2,0-6.3c0-1.8,1.5-3.3,3.3-3.3c1.3,0,2.5,0,3.8,0
		c0.2,0,0.4-0.1,0.5-0.3c0.3-0.7,1.2-1.1,2-0.9c0.8,0.2,1.3,0.9,1.3,1.7c0,0.8-0.5,1.4-1.3,1.6c-0.8,0.2-1.6-0.2-2-0.9
		c-0.1-0.2-0.2-0.3-0.4-0.3c-1.2,0-2.5,0-3.7,0c-1.3,0-2.4,1.1-2.4,2.4c0,0,0,0,0,0c0,2.1,0,4.1,0,6.2c0,1.3,1,2.4,2.4,2.4
		c0,0,0,0,0,0c4.3,0,8.6,0,12.9,0C-992.3,1374.2-992.2,1374.2-992.1,1374.2z M-987.1,1371.8c-0.5,0-1,0-1.5,0
		c-0.6,0-1.1,0.2-1.6,0.6c-0.7,0.6-1.1,1.6-1,2.6c0,1.4,1.1,2.5,2.5,2.6c1,0,2.1,0,3.1,0c1.6-0.1,2.8-1.4,2.7-3c0,0,0,0,0,0
		c0-1.5-1.3-2.8-2.8-2.8C-986.2,1371.8-986.6,1371.8-987.1,1371.8z M-999.4,1363.5c0.4,0,0.8-0.3,0.8-0.8c0-0.4-0.4-0.8-0.8-0.8
		c0,0,0,0,0,0c-0.4,0-0.7,0.4-0.7,0.8c0,0,0,0,0,0C-1000.2,1363.1-999.9,1363.5-999.4,1363.5
		C-999.4,1363.5-999.4,1363.5-999.4,1363.5L-999.4,1363.5z"/>
	<path id="路径_190" class="st1" d="M-993.2,1367.8v-0.5c0-3.4,0-6.8,0-10.2c0-0.3,0.1-0.5,0.3-0.7c1.3-1.3,2.8-2.5,4.5-3.4
		c0.1-0.1,0.3-0.1,0.4-0.2c0,0.1,0,0.2,0,0.3c0,3.4,0,6.9,0,10.3c0,0.4-0.2,0.8-0.6,1c-1.6,0.8-3.1,1.9-4.5,3.1
		C-993.1,1367.7-993.1,1367.7-993.2,1367.8z"/>
	<path id="路径_191" class="st1" d="M-991.8,1367.7c0.7-0.5,1.5-1.1,2.2-1.6c0.5-0.3,0.9-0.6,1.4-0.8c0.7-0.3,1.2-1.1,1.1-1.9
		c0-2.5,0-5,0-7.4v-0.5h2.4c0,0.1,0,0.2,0,0.3c0,3.3,0,6.6,0,9.9c0,0.8-0.4,1.2-1.2,1.2c-1.9,0-3.8,0.3-5.7,0.7
		C-991.5,1367.8-991.6,1367.8-991.8,1367.7L-991.8,1367.7z"/>
	<path id="路径_192" class="st1" d="M-999.4,1363.5c-0.4,0-0.8-0.3-0.8-0.7c0,0,0,0,0,0c0-0.4,0.3-0.8,0.7-0.8c0,0,0,0,0,0
		c0.4,0,0.8,0.3,0.8,0.7c0,0,0,0,0,0C-998.7,1363.1-999,1363.4-999.4,1363.5z"/>
	<path id="路径_193" class="st0" d="M-989,1375.1c-0.1,0-0.3,0-0.4,0c-0.2,0-0.4-0.2-0.4-0.5c0-0.2,0.2-0.4,0.4-0.5c0,0,0,0,0,0
		c0.3,0,0.6,0,0.9,0c0.2,0,0.4,0.2,0.4,0.4c0,0,0,0,0,0c0,0.2-0.1,0.4-0.4,0.5c0,0,0,0,0,0C-988.7,1375.1-988.8,1375.1-989,1375.1z"
		/>
</g>
<g id="组_54" transform="translate(1576.006 -1318.1)">
	<path id="路径_153" class="st2" d="M-1461.2,1341.6c0.3,0,0.6,0,0.9,0C-1460.6,1341.6-1460.9,1341.6-1461.2,1341.6s-0.6,0-0.9,0
		C-1461.8,1341.6-1461.5,1341.6-1461.2,1341.6z"/>
	<path id="路径_154" class="st2" d="M-1479.2,1329.7c0-1.1,0-2.2,0-3.2C-1479.2,1327.5-1479.2,1328.6-1479.2,1329.7
		c0,1.1,0,2.2,0,3.3C-1479.2,1331.9-1479.2,1330.8-1479.2,1329.7z"/>
	<path id="路径_155" class="st2" d="M-1460.3,1340L-1460.3,1340z"/>
	<path id="路径_156" class="st2" d="M-1469.9,1329.7c0,1.1,0,2.2,0,3.3C-1469.9,1331.9-1469.9,1330.8-1469.9,1329.7s0-2.2,0-3.3
		C-1469.9,1327.5-1469.9,1328.6-1469.9,1329.7z"/>
	<path id="路径_157" class="st2" d="M-1461.7,1332.3c0,0.4,0,0.8,0,1.2C-1461.7,1333-1461.7,1332.7-1461.7,1332.3
		c0-0.4,0-0.8,0-1.2C-1461.7,1331.5-1461.7,1331.9-1461.7,1332.3z"/>
	<path id="路径_158" class="st0" d="M-1457.8,1323.9c0-0.7-0.6-1.4-1.3-1.4c0,0-0.1,0-0.1,0c-0.9,0-1.8,0-2.7,0
		c-0.4,0-0.6,0.2-0.6,0.4s0.2,0.4,0.6,0.4c0.8,0,1.6,0,2.5,0c0.6,0,0.7,0.1,0.7,0.7c0,6.7,0,13.3,0,20c0,0.5-0.1,0.7-0.7,0.7
		c-1.2,0-2.4,0-3.6,0c-0.3,0-0.4-0.1-0.4-0.4c0-5.9,0-11.9,0-17.8v-0.4h0.4c0.7,0,1.5,0,2.2,0c0.4,0,0.6-0.2,0.6-0.4
		s-0.2-0.4-0.6-0.4c-0.8,0-1.5,0-2.3,0c-0.1,0-0.2,0-0.4,0v-0.4c0-1.2,0-2.3,0-3.5c0-0.7-0.6-1.3-1.3-1.4c0,0-0.1,0-0.1,0
		c-0.9,0-1.8,0-2.7,0c-0.7-0.1-1.4,0.5-1.4,1.2c0,0,0,0.1,0,0.1c0,0.1,0,0.1,0,0.2c0,7.6,0,15.3,0,22.9v0.4h-4.6v-23h3
		c0.5,0,0.7-0.1,0.7-0.5s-0.2-0.4-0.7-0.4h-3c0-0.1,0-0.2,0-0.3c0-1-0.6-1.5-1.6-1.5h-4.2c-1.1,0-1.6,0.5-1.6,1.5c0,1.1,0,2.3,0,3.4
		c0,0.1,0,0.2,0,0.4h-0.5c-0.6,0-1.2,0-1.8,0c-0.3,0-0.5,0.2-0.5,0.4s0.2,0.4,0.5,0.4c0.1,0,0.2,0,0.4,0h1.9v0.4c0,1.2,0,2.5,0,3.7
		c0,5,0,10,0,15c0,0.3-0.1,0.4-0.4,0.4c-0.9,0-1.8,0-2.6,0c-0.6,0-0.7-0.1-0.7-0.7c0-2.8,0-5.7,0-8.5c0-4.1,0-8.2,0-12.3
		c0-0.6,0.1-0.7,0.7-0.7c0.5,0,1,0,1.5,0c0.3,0,0.5-0.2,0.5-0.4s-0.2-0.4-0.5-0.4c-0.6,0-1.2,0-1.8,0c-0.7,0-1.3,0.6-1.4,1.3
		c0,0,0,0,0,0c0,7.1,0,14.1,0,21.2c0,0.8,0.6,1.4,1.4,1.4c0,0,0,0,0.1,0c8.4,0,16.8,0,25.1,0c0.8,0,1.4-0.5,1.4-1.3c0,0,0-0.1,0-0.1
		C-1457.8,1337.4-1457.8,1330.7-1457.8,1323.9z M-1474.6,1325.9c0,6.1,0,12.3,0,18.4v0.4c-0.2,0-0.2,0-0.3,0c-1.6,0-3.3,0-4.9,0
		c-0.3,0-0.4-0.1-0.4-0.4c0-7.1,0-14.3,0-21.4c0-0.1,0-0.2,0-0.3c0.1,0,0.3,0,0.4,0c1.2,0,2.4,0,3.6,0c0.1,0,0.2,0,0.3,0
		c0.2,0,0.4-0.2,0.4-0.4c0-0.2-0.1-0.4-0.4-0.4c0,0,0,0,0,0c-0.2,0-0.4,0-0.6,0h-3.7c0-0.5,0-1,0-1.5c0-0.1,0.3-0.3,0.4-0.3
		c1.5,0,3.1,0,4.6,0c0.4,0,0.5,0.2,0.5,0.6C-1474.6,1322.2-1474.6,1324.1-1474.6,1325.9L-1474.6,1325.9z M-1464.3,1344.2
		c0,0.4,0,0.4-0.5,0.4c-1,0-1.9,0-2.9,0c-0.4,0-0.4-0.1-0.4-0.4c0-6.2,0-12.4,0-18.7c0-0.6,0-1.2,0-1.8c0-0.3,0.1-0.4,0.4-0.4
		c0.5,0,1.1,0,1.6,0c0.5,0,0.7-0.1,0.7-0.4s-0.2-0.4-0.7-0.4h-2.1c0-0.5,0-1,0-1.4c0-0.2,0.2-0.4,0.5-0.4c0,0,0,0,0,0
		c0.9,0,1.8,0,2.8,0c0.3,0,0.5,0.2,0.5,0.6c0,1.6,0,3.3,0,4.9C-1464.3,1332.3-1464.3,1338.2-1464.3,1344.2L-1464.3,1344.2z"/>
	<path id="路径_159" class="st0" d="M-1470.5,1325.8c-0.6,0-1.1,0-1.7,0c-0.5,0-0.6,0.2-0.6,0.6c0,2.2,0,4.4,0,6.6
		c0,0.4,0.2,0.6,0.6,0.6c0.6,0,1.1,0,1.7,0c0.5,0,0.6-0.2,0.6-0.7c0-1.1,0-2.2,0-3.3s0-2.2,0-3.3
		C-1469.8,1325.9-1470,1325.8-1470.5,1325.8z M-1470.8,1332.7h-0.9v-5.9h0.9V1332.7z"/>
	<path id="路径_160" class="st3" d="M-1460.7,1332.2c0-0.8,0-1.5,0-2.3C-1460.7,1330.7-1460.7,1331.5-1460.7,1332.2s0,1.6,0,2.3
		C-1460.7,1333.8-1460.7,1333-1460.7,1332.2z"/>
	<path id="路径_161" class="st0" d="M-1459.7,1329.9c0-0.4-0.2-0.6-0.5-0.6s-0.5,0.2-0.5,0.6c0,0.8,0,1.5,0,2.3s0,1.6,0,2.3
		c0,0.4,0.2,0.6,0.5,0.6s0.5-0.2,0.5-0.6C-1459.7,1333.1-1459.7,1331.5-1459.7,1329.9z"/>
	<path id="路径_162" class="st0" d="M-1461.7,1331.1c0-0.4,0-0.8,0-1.2c0-0.4-0.2-0.7-0.5-0.7s-0.5,0.2-0.5,0.6c0,1.5,0,3.1,0,4.6
		c0,0.4,0.2,0.6,0.5,0.6s0.5-0.2,0.5-0.6c0-0.4,0-0.8,0-1.2c0-0.4,0-0.8,0-1.2C-1461.7,1331.9-1461.7,1331.5-1461.7,1331.1z"/>
	<path id="路径_163" class="st3" d="M-1471.3,1341.6c0.3,0,0.6,0,0.9,0C-1470.7,1341.6-1471,1341.6-1471.3,1341.6s-0.6,0-1,0
		C-1471.9,1341.6-1471.6,1341.6-1471.3,1341.6z"/>
	<path id="路径_164" class="st0" d="M-1471.3,1341.6c-0.3,0-0.6,0-1,0c-0.3,0-0.5,0.2-0.5,0.4c0,0,0,0,0,0.1
		c0,0.3,0.2,0.5,0.5,0.5c0,0,0,0,0.1,0c0.6,0,1.3,0,1.9,0c0.2,0,0.5-0.1,0.5-0.4c0,0,0-0.1,0-0.1c0-0.3-0.2-0.5-0.4-0.5
		c0,0-0.1,0-0.1,0C-1470.7,1341.6-1471,1341.6-1471.3,1341.6z"/>
	<path id="路径_165" class="st3" d="M-1471.3,1340.6c-0.3,0-0.6,0-0.9,0C-1471.9,1340.6-1471.6,1340.6-1471.3,1340.6
		c0.2,0,0.5,0,0.7,0C-1470.8,1340.6-1471.1,1340.6-1471.3,1340.6z"/>
	<path id="路径_166" class="st0" d="M-1470.4,1339.9c-0.6,0-1.2,0-1.8,0c-0.3,0-0.5,0.2-0.5,0.4c0,0,0,0,0,0.1
		c0,0.3,0.2,0.5,0.6,0.5c0.3,0,0.6,0,0.9,0c0.2,0,0.5,0,0.7,0c0.1,0,0.2,0,0.2,0c0.4,0,0.5-0.2,0.5-0.5S-1470,1339.9-1470.4,1339.9z
		"/>
	<path id="路径_167" class="st0" d="M-1460.3,1341.6c-0.3,0-0.6,0-0.9,0s-0.6,0-0.9,0c-0.3,0-0.6,0.2-0.5,0.5
		c0,0.3,0.2,0.5,0.5,0.5c0,0,0,0,0.1,0c0.6,0,1.2,0,1.9,0c0.3,0,0.6-0.2,0.5-0.5C-1459.7,1341.8-1460,1341.6-1460.3,1341.6
		C-1460.2,1341.6-1460.3,1341.6-1460.3,1341.6z"/>
	<path id="路径_168" class="st0" d="M-1459.7,1340.4c0-0.3-0.2-0.5-0.5-0.5c0,0,0,0,0,0h-1.9c-0.3,0-0.5,0.1-0.5,0.4
		c0,0,0,0,0,0.1c0,0.3,0.2,0.5,0.4,0.5c0,0,0.1,0,0.1,0c0.6,0,1.3,0,1.9,0C-1460,1340.9-1459.8,1340.7-1459.7,1340.4
		C-1459.7,1340.4-1459.7,1340.4-1459.7,1340.4z"/>
	<path id="路径_169" class="st0" d="M-1482.3,1341.6c-0.2,0-0.3,0-0.5,0l0,0c-0.2,0-0.4,0-0.5,0c-0.2,0-0.5,0.2-0.5,0.4
		c0,0,0,0,0,0c0,0.2,0.1,0.5,0.4,0.5c0,0,0,0,0,0c0.4,0,0.7,0,1.1,0c0.2,0,0.4-0.2,0.4-0.4c0,0,0,0,0,0
		C-1481.8,1341.8-1482,1341.6-1482.3,1341.6C-1482.3,1341.6-1482.3,1341.6-1482.3,1341.6z"/>
	<path id="路径_170" class="st0" d="M-1483.3,1332.3c0.2,0,0.3,0,0.5,0l0,0c0.2,0,0.4,0,0.5,0c0.3,0,0.4-0.2,0.4-0.5c0,0,0,0,0,0
		c0-0.2-0.2-0.5-0.4-0.5c0,0,0,0,0,0c-0.4,0-0.7,0-1.1,0c-0.2,0-0.4,0.2-0.4,0.5c0,0,0,0,0,0
		C-1483.8,1332.1-1483.6,1332.3-1483.3,1332.3C-1483.3,1332.3-1483.3,1332.3-1483.3,1332.3z"/>
	<path id="路径_171" class="st0" d="M-1483.4,1340.9c0.4,0,0.8,0,1.1,0c0.2,0,0.4-0.2,0.4-0.4c0,0,0,0,0,0c0-0.2-0.2-0.5-0.4-0.5
		c0,0,0,0,0,0c-0.2,0-0.4,0-0.5,0l0,0c-0.2,0-0.3,0-0.5,0c-0.3,0-0.5,0.2-0.5,0.4c0,0,0,0,0,0
		C-1483.8,1340.6-1483.7,1340.8-1483.4,1340.9C-1483.4,1340.9-1483.4,1340.9-1483.4,1340.9z"/>
	<path id="路径_172" class="st0" d="M-1483.3,1330.6c0.2,0,0.3,0,0.5,0l0,0c0.2,0,0.4,0,0.5,0c0.3,0,0.5-0.2,0.4-0.5c0,0,0,0,0,0
		c0-0.2-0.2-0.5-0.4-0.5c0,0,0,0,0,0c-0.3,0-0.7,0-1,0c-0.3,0-0.5,0.2-0.5,0.4c0,0,0,0,0,0
		C-1483.8,1330.3-1483.6,1330.5-1483.3,1330.6C-1483.3,1330.6-1483.3,1330.6-1483.3,1330.6z"/>
	<path id="路径_173" class="st1" d="M-1474.8,1320c-1.6,0-3.3,0-4.9,0c-0.2,0-0.4,0.2-0.5,0.3c0,0.5,0,1,0,1.4h3.9
		c0.2,0,0.4,0,0.6,0c0.2,0,0.4,0.2,0.4,0.4c0,0,0,0,0,0c0,0.2-0.2,0.4-0.4,0.4c-0.1,0-0.2,0-0.3,0c-1.2,0-2.5,0-3.7,0
		c-0.1,0-0.3,0-0.4,0c0,0.1,0,0.2,0,0.3c0,7.1,0,14.2,0,21.3c0,0.3,0.1,0.4,0.4,0.4c1.7,0,3.4,0,5.2,0c0.1,0,0.2,0,0.4,0
		c0-0.2,0-0.3,0-0.4c0-6.1,0-12.2,0-18.2c0-1.8,0-3.6,0-5.4C-1474.3,1320.1-1474.5,1320-1474.8,1320z M-1475.9,1342.8
		c-0.9,0-1.9,0-2.8,0c-0.3,0-0.5-0.2-0.5-0.4s0.2-0.4,0.6-0.4c0.5,0,0.9,0,1.4,0s0.9,0,1.4,0c0.3,0,0.6,0.2,0.6,0.4
		S-1475.5,1342.8-1475.9,1342.8L-1475.9,1342.8z M-1475.9,1341.1c-0.9,0-1.9,0-2.8,0c-0.4,0-0.6-0.2-0.6-0.4c0-0.3,0.2-0.4,0.6-0.4
		c0.5,0,0.9,0,1.4,0s0.9,0,1.4,0c0.4,0,0.6,0.2,0.6,0.4S-1475.5,1341.1-1475.9,1341.1L-1475.9,1341.1z M-1475.3,1332.6
		c0,0.5-0.2,0.6-0.7,0.6c-0.9,0-1.7,0-2.6,0c-0.5,0-0.7-0.1-0.7-0.6c0-1,0-2,0-3c0-1,0-1.9,0-2.9c0-0.5,0.2-0.6,0.7-0.6
		c0.9,0,1.7,0,2.6,0c0.5,0,0.7,0.1,0.7,0.6C-1475.3,1328.7-1475.3,1330.6-1475.3,1332.6L-1475.3,1332.6z"/>
	<path id="路径_174" class="st1" d="M-1464.8,1320.9c-1,0-1.9,0-2.9,0c-0.3,0-0.5,0.1-0.5,0.4c0,0.4,0,0.9,0,1.4h2.2
		c0.5,0,0.8,0.1,0.8,0.4s-0.2,0.4-0.8,0.4c-0.6,0-1.2,0-1.7,0c-0.4,0-0.5,0.1-0.5,0.4c0,0.6,0,1.2,0,1.8c0,6.1,0,12.3,0,18.4
		c0,0.3,0.1,0.4,0.5,0.4c1,0,2,0,3,0c0.5,0,0.5,0,0.5-0.4c0-5.9,0-11.8,0-17.7c0-1.6,0-3.2,0-4.9
		C-1464.2,1321.1-1464.4,1320.9-1464.8,1320.9z M-1465.7,1328.8c-0.2,0-0.4,0-0.5,0l0,0c-0.2,0-0.4,0-0.5,0c-0.2,0-0.4-0.2-0.4-0.4
		c0,0,0,0,0,0c0-0.2,0.2-0.4,0.4-0.4c0,0,0,0,0,0c0.4,0,0.7,0,1.1,0c0.2,0,0.4,0.2,0.4,0.4c0,0,0,0,0,0
		C-1465.2,1328.6-1465.4,1328.8-1465.7,1328.8C-1465.6,1328.8-1465.6,1328.8-1465.7,1328.8L-1465.7,1328.8z M-1465.2,1330.1
		c0,0.2-0.2,0.4-0.4,0.4c0,0,0,0,0,0c-0.3,0-0.7,0-1,0c-0.2,0-0.4-0.2-0.4-0.4c0,0,0,0,0-0.1c0-0.2,0.2-0.4,0.5-0.4c0,0,0,0,0,0
		c0.2,0,0.3,0,0.5,0l0,0c0.2,0,0.3,0,0.5,0C-1465.4,1329.7-1465.3,1329.9-1465.2,1330.1L-1465.2,1330.1z M-1465.7,1342.8
		c-0.3,0-0.7,0-1,0c-0.2,0-0.4-0.2-0.4-0.4c0,0,0,0,0,0c0-0.2,0.2-0.4,0.4-0.4c0,0,0,0,0,0c0.2,0,0.4,0,0.5,0l0,0c0.2,0,0.3,0,0.5,0
		c0.2,0,0.4,0.1,0.5,0.4c0,0,0,0,0,0C-1465.2,1342.6-1465.4,1342.8-1465.7,1342.8L-1465.7,1342.8z M-1465.6,1341.1
		c-0.2,0-0.4,0-0.6,0v0c-0.2,0-0.4,0-0.5,0c-0.3,0-0.4-0.2-0.4-0.4c0-0.2,0.2-0.4,0.4-0.4c0,0,0,0,0,0c0.3,0,0.7,0,1,0
		c0.2,0,0.4,0.2,0.4,0.4c0,0,0,0,0,0C-1465.2,1340.9-1465.4,1341-1465.6,1341.1C-1465.6,1341.1-1465.6,1341.1-1465.6,1341.1
		L-1465.6,1341.1z M-1465.7,1327.1c0,0-0.1,0-0.1,0c-0.1,0-0.3,0-0.4,0c-0.2,0-0.3,0-0.5,0c-0.2,0-0.4-0.2-0.4-0.4c0,0,0,0,0,0
		c0-0.2,0.2-0.4,0.4-0.4c0,0,0,0,0,0c0.4,0,0.7,0,1.1,0c0.2,0,0.4,0.2,0.4,0.4c0,0,0,0,0,0
		C-1465.2,1326.9-1465.4,1327.1-1465.7,1327.1C-1465.7,1327.1-1465.7,1327.1-1465.7,1327.1L-1465.7,1327.1z"/>
	<path id="路径_175" class="st0" d="M-1476,1325.8c-0.9,0-1.7,0-2.6,0c-0.5,0-0.7,0.2-0.7,0.7c0,1.1,0,2.2,0,3.2
		c0,1.1,0,2.2,0,3.3c0,0.5,0.2,0.7,0.7,0.7c0.9,0,1.7,0,2.6,0c0.5,0,0.7-0.2,0.7-0.7c0-2.2,0-4.4,0-6.5
		C-1475.3,1325.9-1475.5,1325.8-1476,1325.8z M-1476.3,1332.7h-1.9v-5.9h1.9V1332.7z"/>
	<path id="路径_176" class="st0" d="M-1475.9,1339.9c-0.5,0-0.9,0-1.4,0s-0.9,0-1.4,0c-0.4,0-0.6,0.2-0.6,0.5
		c0,0.3,0.2,0.5,0.6,0.5c0.9,0,1.9,0,2.8,0c0.3,0,0.6-0.2,0.6-0.5C-1475.4,1340.1-1475.6,1339.9-1475.9,1339.9z"/>
	<path id="路径_177" class="st3" d="M-1477.3,1340c0.5,0,0.9,0,1.4,0C-1476.4,1339.9-1476.9,1340-1477.3,1340s-0.9,0-1.4,0
		C-1478.2,1340-1477.8,1340-1477.3,1340z"/>
	<path id="路径_178" class="st0" d="M-1475.9,1341.6c-0.5,0-0.9,0-1.4,0s-0.9,0-1.4,0c-0.4,0-0.6,0.2-0.6,0.5
		c0,0.3,0.2,0.5,0.4,0.5c0,0,0.1,0,0.1,0c0.9,0,1.9,0,2.8,0c0.3,0,0.5-0.2,0.5-0.4c0,0,0,0,0-0.1
		C-1475.4,1341.8-1475.6,1341.6-1475.9,1341.6z"/>
	<path id="路径_179" class="st3" d="M-1477.3,1341.6c0.5,0,0.9,0,1.4,0C-1476.4,1341.6-1476.9,1341.6-1477.3,1341.6s-0.9,0-1.4,0
		C-1478.3,1341.6-1477.8,1341.6-1477.3,1341.6z"/>
	<path id="路径_180" class="st0" d="M-1465.6,1326.1c-0.4,0-0.7,0-1.1,0c-0.2,0-0.4,0.2-0.4,0.4c0,0,0,0,0,0
		c0,0.2,0.2,0.5,0.4,0.5c0,0,0,0,0,0c0.2,0,0.3,0,0.5,0c0.1,0,0.3,0,0.4,0c0,0,0.1,0,0.1,0c0.2,0,0.4-0.2,0.4-0.5c0,0,0,0,0,0
		C-1465.2,1326.3-1465.4,1326.1-1465.6,1326.1C-1465.6,1326.1-1465.6,1326.1-1465.6,1326.1z"/>
	<path id="路径_181" class="st3" d="M-1466.2,1326.9c-0.2,0-0.3,0-0.5,0C-1466.5,1327-1466.4,1327-1466.2,1326.9
		c0.1,0,0.3,0,0.4,0C-1465.9,1327-1466.1,1326.9-1466.2,1326.9z"/>
	<path id="路径_182" class="st0" d="M-1465.7,1341.6c-0.2,0-0.3,0-0.5,0l0,0c-0.2,0-0.4,0-0.5,0c-0.2,0-0.4,0.2-0.4,0.4
		c0,0,0,0,0,0c0,0.2,0.2,0.5,0.4,0.5c0,0,0,0,0,0c0.3,0,0.7,0,1,0c0.2,0,0.5-0.2,0.5-0.4c0,0,0-0.1,0-0.1
		C-1465.2,1341.8-1465.4,1341.6-1465.7,1341.6C-1465.7,1341.6-1465.7,1341.6-1465.7,1341.6z"/>
	<path id="路径_183" class="st0" d="M-1465.7,1329.6c-0.2,0-0.3,0-0.5,0l0,0c-0.2,0-0.3,0-0.5,0c-0.3,0-0.5,0.2-0.5,0.5
		c0,0,0,0,0,0c0,0.2,0.1,0.5,0.4,0.5c0,0,0,0,0.1,0c0.3,0,0.7,0,1,0c0.3,0,0.5-0.2,0.5-0.4c0,0,0,0,0-0.1
		C-1465.2,1329.8-1465.4,1329.6-1465.7,1329.6C-1465.7,1329.6-1465.7,1329.6-1465.7,1329.6z"/>
	<path id="路径_184" class="st0" d="M-1465.7,1339.9c-0.3,0-0.7,0-1,0c-0.2,0-0.5,0.2-0.5,0.4c0,0,0,0,0,0c0,0.2,0.2,0.5,0.4,0.5
		c0,0,0,0,0,0c0.2,0,0.4,0,0.5,0v0c0.2,0,0.4,0,0.6,0c0.2,0,0.4-0.2,0.4-0.5c0,0,0,0,0,0
		C-1465.2,1340.2-1465.4,1339.9-1465.7,1339.9C-1465.6,1339.9-1465.6,1339.9-1465.7,1339.9z"/>
	<path id="路径_185" class="st0" d="M-1465.6,1327.8c-0.4,0-0.7,0-1.1,0c-0.2,0-0.4,0.2-0.4,0.4c0,0,0,0,0,0
		c0,0.2,0.2,0.5,0.4,0.5c0,0,0,0,0,0c0.2,0,0.4,0,0.5,0l0,0c0.2,0,0.4,0,0.5,0c0.2,0,0.4-0.2,0.4-0.5c0,0,0,0,0,0
		C-1465.2,1328.1-1465.4,1327.8-1465.6,1327.8C-1465.6,1327.8-1465.6,1327.8-1465.6,1327.8z"/>
</g>
<g id="组_53" transform="translate(1021.665 -879.05)">
	<path id="路径_150" class="st4" d="M-946.1,903.8c-0.1-0.3-0.2-0.5-0.3-0.7c-1-2.2-2-4.4-3-6.6c-0.1-0.2-0.3-0.4-0.5-0.5
		c-1.4-0.7-2.8-1.3-4.2-1.9c-0.1,0-0.2-0.1-0.3-0.2l0.4-0.9l1.3,0.6c1.2,0.6,2.4,1.1,3.6,1.7c0.2,0.1,0.4,0.3,0.5,0.5
		c1.3,2.9,2.6,5.8,4,8.7c0.1,0.3,0.2,0.5,0,0.8c-0.2,0.2-0.5,0.1-0.8,0c-2.2-1-4.4-2-6.7-3c-0.2-0.1-0.4-0.1-0.6,0
		c-2.2,1.2-4.4,2.5-6.6,3.7c-0.3,0.2-0.7,0.2-0.9,0c-2.2-1.2-4.4-2.5-6.6-3.7c-0.2-0.1-0.4-0.1-0.6,0c-2.2,1-4.4,2-6.6,2.9
		c-0.1,0-0.2,0.1-0.2,0.1c-0.2,0-0.4,0-0.6-0.1c-0.2-0.2-0.2-0.4-0.1-0.6c0.4-0.8,0.7-1.6,1.1-2.3c1-2.2,2-4.3,2.9-6.5
		c0.1-0.3,0.3-0.5,0.6-0.6c1.5-0.7,3-1.3,4.6-2c0.1,0,0.2-0.1,0.3-0.1l0.4,0.9c-0.4,0.2-0.8,0.4-1.2,0.5c-1.2,0.5-2.3,1-3.5,1.5
		c-0.2,0.1-0.3,0.2-0.4,0.3c-1.1,2.4-2.2,4.7-3.2,7.1c0,0.1,0,0.1-0.1,0.2c0.1,0,0.2-0.1,0.3-0.1c1.8-0.8,3.6-1.6,5.3-2.4
		c0.2-0.1,0.3-0.2,0.4-0.4c0.6-1.4,1.1-2.9,1.7-4.3c0.1-0.2,0.2-0.3,0.4-0.4c0.2,0,0.4,0,0.5,0.1c0.1,0.2,0.1,0.4,0.1,0.6
		c-0.4,1.1-0.8,2.2-1.3,3.3c-0.1,0.3-0.3,0.6-0.4,0.9c0,0.1,0,0.2,0.1,0.3c2,1.1,3.9,2.2,5.9,3.4v-3.4h1v3.4
		c0.2-0.1,0.3-0.1,0.3-0.2c1.8-1,3.7-2.1,5.5-3.1c0.2-0.1,0.3-0.2,0.2-0.4c0,0,0-0.1,0-0.1c-0.5-1.4-1.1-2.8-1.6-4.1
		c-0.1-0.2,0-0.4,0.1-0.6c0.1-0.1,0.3-0.2,0.5-0.1c0.2,0.1,0.3,0.3,0.4,0.4c0.4,1.1,0.9,2.2,1.3,3.3c0.2,0.9,0.9,1.6,1.7,1.8
		c1.4,0.5,2.8,1.2,4.2,1.8C-946.4,903.6-946.3,903.7-946.1,903.8z"/>
	<path id="路径_151" class="st1" d="M-959.7,880.3c3.1,0,5.8,2.4,6.2,5.5c0.1,1.1-0.1,2.2-0.6,3.3c-1.2,3.1-2.7,6.2-4.4,9.1
		c-0.2,0.4-0.4,0.8-0.7,1.2c-0.1,0.3-0.4,0.4-0.7,0.3c-0.1-0.1-0.2-0.2-0.3-0.3c-2-3.3-3.7-6.7-5.1-10.3c-0.3-0.8-0.5-1.7-0.6-2.6
		C-965.9,883.1-963.1,880.3-959.7,880.3z"/>
	<path id="路径_152" class="st4" d="M-959.7,883c1.9,0,3.4,1.6,3.5,3.5c-0.1,1.9-1.6,3.4-3.4,3.4c-1.9-0.1-3.4-1.6-3.5-3.5
		C-963.1,884.6-961.6,883.1-959.7,883z M-957.3,886.5c0.1-1.3-0.9-2.4-2.2-2.4c-0.1,0-0.1,0-0.2,0c-1.3,0-2.4,1-2.4,2.2
		c0,0.1,0,0.1,0,0.2c-0.1,1.3,0.9,2.4,2.2,2.4c0.1,0,0.1,0,0.2,0c1.3,0,2.4-0.9,2.4-2.2C-957.3,886.6-957.3,886.6-957.3,886.5z"/>
</g>
</svg>
