<?xml version="1.0" encoding="utf-8"?>
<!-- Generator: Adobe Illustrator 23.0.3, SVG Export Plug-In . SVG Version: 6.00 Build 0)  -->
<svg version="1.1" id="圖層_1" xmlns="http://www.w3.org/2000/svg" xmlns:xlink="http://www.w3.org/1999/xlink" x="0px" y="0px"
	 viewBox="0 0 56.7 56.7" style="enable-background:new 0 0 56.7 56.7;" xml:space="preserve">
<style type="text/css">
	.st0{fill:#FFFFFF;}
	.st1{fill:#2958A2;}
</style>
<path class="st0" d="M28.4,3.5c13.7,0,24.8,11.1,24.9,24.8c0,0,0,0.1,0,0.1C53.3,42,42.3,53.1,28.7,53.2c-0.1,0-0.2,0-0.4,0
	C14.7,53.3,3.6,42.4,3.5,28.8c0-0.1,0-0.3,0-0.4C3.5,14.6,14.6,3.5,28.4,3.5C28.3,3.5,28.3,3.5,28.4,3.5z"/>
<path id="路径_144" class="st1" d="M28.4,0.7C43.6,0.7,56,13,56,28.3c0,0.1,0,0.1,0,0.2C56.1,43.5,43.9,55.9,28.7,56
	c-0.1,0-0.3,0-0.4,0C13.2,56.1,0.8,43.9,0.7,28.8c0-0.2,0-0.3,0-0.5C0.7,13.1,13,0.7,28.4,0.7C28.3,0.7,28.3,0.7,28.4,0.7z
	 M30.8,23.7c0-1.5-0.1-2.9,0-4.3c0.1-1.6,0.9-2.2,2.5-2.3c1.1,0,2.2,0,3.3,0c0.5,0,0.7-0.1,0.7-0.7c0-1.6,0-3.2,0-4.7
	c0-0.5-0.2-0.7-0.7-0.7c-1.6,0-3.1,0-4.7,0c-4-0.2-7.4,2.8-7.7,6.8c0,0.1,0,0.1,0,0.2c-0.1,1.7-0.1,3.3-0.1,5c0,0.5-0.1,0.7-0.7,0.7
	c-1.3,0-2.6,0-3.9,0c-0.6,0-0.8,0.1-0.8,0.8c0,1.6,0,3.2,0,4.8c0,0.6,0.2,0.7,0.8,0.7c1.2,0,2.4,0,3.7,0c0.9,0,0.9,0,0.9,0.9
	c0,4.6,0,9.3,0,13.9c0,0.9,0,1,0.9,1c1.6,0,3.1,0,4.7,0c0.9,0,0.9,0,0.9-1c0-4.7,0-9.3,0-14c0-0.7,0.2-0.9,0.9-0.9
	c1.2,0,2.4,0,3.7,0c0.6,0,0.8-0.2,0.9-0.8c0.2-1.5,0.4-3,0.7-4.5c0.1-0.9,0.1-0.9-0.8-0.9H30.8z"/>
</svg>
