<?xml version="1.0" encoding="utf-8"?>
<!-- Generator: Adobe Illustrator 23.0.3, SVG Export Plug-In . SVG Version: 6.00 Build 0)  -->
<svg version="1.1" id="圖層_1" xmlns="http://www.w3.org/2000/svg" xmlns:xlink="http://www.w3.org/1999/xlink" x="0px" y="0px"
	 viewBox="0 0 28.3 28.3" style="enable-background:new 0 0 28.3 28.3;" xml:space="preserve">
<style type="text/css">
	.st0{fill:#FFFFFF;}
	.st1{fill:#344C70;}
	.st2{fill:#040000;}
	.st3{fill:#F4A57A;}
	.st4{fill:#344C6F;}
</style>
<g id="组_54" transform="translate(1576.006 -1318.1)">
	<path id="路径_153" class="st0" d="M-1551.8,1341.1c0.3,0,0.6,0,0.9,0C-1551.3,1341.1-1551.6,1341.1-1551.8,1341.1
		c-0.3,0-0.6,0-0.9,0C-1552.4,1341.1-1552.1,1341.1-1551.8,1341.1z"/>
	<path id="路径_154" class="st0" d="M-1568.9,1329.8c0-1,0-2,0-3.1C-1568.9,1327.8-1568.9,1328.8-1568.9,1329.8c0,1,0,2.1,0,3.1
		C-1568.9,1331.9-1568.9,1330.8-1568.9,1329.8z"/>
	<path id="路径_155" class="st0" d="M-1551,1339.5L-1551,1339.5z"/>
	<path id="路径_156" class="st0" d="M-1560.1,1329.8c0,1,0,2.1,0,3.1C-1560.1,1331.9-1560.1,1330.9-1560.1,1329.8c0-1,0-2.1,0-3.1
		C-1560.1,1327.8-1560.1,1328.8-1560.1,1329.8z"/>
	<path id="路径_157" class="st0" d="M-1552.3,1332.3c0,0.4,0,0.7,0,1.1C-1552.3,1333-1552.3,1332.6-1552.3,1332.3
		c0-0.4,0-0.7,0-1.1C-1552.3,1331.6-1552.3,1331.9-1552.3,1332.3z"/>
	<path id="路径_158" class="st1" d="M-1548.6,1324.3c0-0.7-0.6-1.3-1.3-1.3c0,0-0.1,0-0.1,0c-0.8,0-1.7,0-2.5,0
		c-0.3,0-0.5,0.1-0.5,0.4c0,0.3,0.2,0.4,0.5,0.4c0.8,0,1.6,0,2.3,0c0.5,0,0.6,0.1,0.6,0.6c0,6.3,0,12.6,0,18.9
		c0,0.5-0.1,0.6-0.6,0.6c-1.1,0-2.3,0-3.4,0c-0.3,0-0.4-0.1-0.4-0.4c0-5.6,0-11.2,0-16.9v-0.4h0.4c0.7,0,1.4,0,2.1,0
		c0.4,0,0.6-0.1,0.6-0.4c0-0.3-0.2-0.4-0.6-0.4c-0.7,0-1.4,0-2.1,0c-0.1,0-0.2,0-0.4,0v-0.4c0-1.1,0-2.2,0-3.3
		c0-0.7-0.5-1.3-1.2-1.3c0,0-0.1,0-0.1,0c-0.9,0-1.7,0-2.6,0c-0.7,0-1.3,0.5-1.3,1.2c0,0,0,0.1,0,0.1c0,0.1,0,0.1,0,0.2
		c0,7.2,0,14.4,0,21.7v0.4h-4.4v-21.8h2.8c0.5,0,0.7-0.1,0.7-0.4c0-0.3-0.2-0.4-0.7-0.4h-2.8c0-0.1,0-0.2,0-0.3
		c0-0.9-0.5-1.4-1.5-1.4h-4c-1,0-1.5,0.5-1.5,1.5c0,1.1,0,2.1,0,3.2c0,0.1,0,0.2,0,0.4h-0.4c-0.6,0-1.1,0-1.7,0
		c-0.3,0-0.5,0.2-0.5,0.4c0,0.2,0.2,0.4,0.5,0.4c0.1,0,0.2,0,0.4,0h1.8v0.4c0,1.2,0,2.3,0,3.5c0,4.7,0,9.4,0,14.2
		c0,0.3-0.1,0.4-0.4,0.4c-0.8,0-1.7,0-2.5,0c-0.6,0-0.7-0.1-0.7-0.6c0-2.7,0-5.4,0-8.1c0-3.9,0-7.8,0-11.6c0-0.5,0.1-0.6,0.7-0.6
		c0.5,0,1,0,1.5,0c0.3,0,0.5-0.2,0.5-0.4c0-0.3-0.2-0.4-0.5-0.4c-0.6,0-1.2,0-1.7,0c-0.7,0-1.3,0.5-1.3,1.2c0,0,0,0,0,0
		c0,6.7,0,13.4,0,20.1c0,0.7,0.6,1.3,1.3,1.3c0,0,0,0,0.1,0c7.9,0,15.9,0,23.8,0c0.7,0,1.3-0.5,1.4-1.2c0,0,0-0.1,0-0.1
		C-1548.6,1337.1-1548.6,1330.7-1548.6,1324.3z M-1564.5,1326.2c0,5.8,0,11.6,0,17.4v0.4c-0.1,0-0.2,0-0.3,0c-1.5,0-3.1,0-4.6,0
		c-0.3,0-0.4-0.1-0.4-0.3c0-6.8,0-13.5,0-20.3c0-0.1,0-0.2,0-0.3c0.1,0,0.2,0,0.4,0c1.1,0,2.2,0,3.4,0c0.1,0,0.2,0,0.3,0
		c0.2,0,0.4-0.2,0.4-0.4c0-0.2-0.1-0.4-0.3-0.4c0,0,0,0,0,0c-0.2,0-0.4,0-0.5,0h-3.5c0-0.5,0-0.9,0-1.4c0-0.1,0.3-0.3,0.4-0.3
		c1.5,0,2.9,0,4.4,0c0.3,0,0.5,0.2,0.5,0.5C-1564.5,1322.8-1564.5,1324.5-1564.5,1326.2L-1564.5,1326.2z M-1554.8,1343.6
		c0,0.4,0,0.4-0.4,0.4c-0.9,0-1.8,0-2.7,0c-0.3,0-0.4-0.1-0.4-0.4c0-5.9,0-11.8,0-17.7c0-0.6,0-1.1,0-1.7c0-0.3,0.1-0.4,0.4-0.4
		c0.5,0,1,0,1.6,0c0.5,0,0.7-0.1,0.7-0.4c0-0.3-0.2-0.4-0.7-0.4h-2c0-0.5,0-0.9,0-1.3c0-0.2,0.2-0.4,0.4-0.4c0,0,0,0,0,0
		c0.9,0,1.7,0,2.6,0c0.3,0,0.5,0.2,0.5,0.6c0,1.6,0,3.1,0,4.7C-1554.8,1332.3-1554.8,1337.9-1554.8,1343.6L-1554.8,1343.6z"/>
	<path id="路径_159" class="st1" d="M-1560.6,1326.1c-0.5,0-1.1,0-1.6,0c-0.4,0-0.6,0.2-0.6,0.6c0,2.1,0,4.2,0,6.3
		c0,0.4,0.2,0.6,0.6,0.6c0.5,0,1.1,0,1.6,0c0.5,0,0.6-0.1,0.6-0.6c0-1,0-2.1,0-3.1c0-1,0-2.1,0-3.1
		C-1560,1326.3-1560.2,1326.1-1560.6,1326.1z M-1561,1332.6h-0.9v-5.5h0.9V1332.6z"/>
	<path id="路径_160" class="st2" d="M-1551.4,1332.2c0-0.7,0-1.5,0-2.2C-1551.4,1330.8-1551.4,1331.5-1551.4,1332.2s0,1.5,0,2.2
		C-1551.4,1333.7-1551.4,1333-1551.4,1332.2z"/>
	<path id="路径_161" class="st1" d="M-1550.5,1330.1c0-0.4-0.2-0.6-0.5-0.6c-0.3,0-0.5,0.2-0.5,0.6c0,0.7,0,1.5,0,2.2
		c0,0.7,0,1.5,0,2.2c0,0.4,0.2,0.6,0.5,0.6s0.5-0.2,0.5-0.6C-1550.4,1333-1550.5,1331.5-1550.5,1330.1z"/>
	<path id="路径_162" class="st1" d="M-1552.3,1331.2c0-0.4,0-0.7,0-1.1c0-0.4-0.2-0.6-0.5-0.6s-0.5,0.2-0.5,0.6c0,1.5,0,2.9,0,4.4
		c0,0.4,0.2,0.6,0.5,0.6c0.3,0,0.5-0.2,0.5-0.6c0-0.4,0-0.7,0-1.1c0-0.4,0-0.7,0-1.1C-1552.3,1331.9-1552.3,1331.6-1552.3,1331.2z"
		/>
	<path id="路径_163" class="st2" d="M-1561.4,1341.1c0.3,0,0.6,0,0.9,0C-1560.8,1341.1-1561.1,1341.1-1561.4,1341.1s-0.6,0-0.9,0
		C-1562,1341.1-1561.7,1341.1-1561.4,1341.1z"/>
	<path id="路径_164" class="st1" d="M-1561.4,1341.1c-0.3,0-0.6,0-0.9,0c-0.2,0-0.5,0.2-0.5,0.4c0,0,0,0,0,0.1
		c0,0.2,0.2,0.4,0.4,0.5c0,0,0,0,0.1,0c0.6,0,1.2,0,1.8,0c0.2,0,0.4-0.1,0.5-0.4c0,0,0-0.1,0-0.1c0-0.2-0.2-0.4-0.4-0.5
		c0,0-0.1,0-0.1,0C-1560.8,1341.1-1561.1,1341.1-1561.4,1341.1z"/>
	<path id="路径_165" class="st2" d="M-1561.4,1340.2c-0.3,0-0.6,0-0.9,0C-1562,1340.2-1561.7,1340.2-1561.4,1340.2
		c0.2,0,0.4,0,0.7,0C-1561,1340.2-1561.2,1340.2-1561.4,1340.2z"/>
	<path id="路径_166" class="st1" d="M-1560.5,1339.5c-0.6,0-1.2,0-1.7,0c-0.3,0-0.5,0.2-0.5,0.4c0,0,0,0,0,0.1
		c0,0.3,0.2,0.5,0.5,0.5c0.3,0,0.6,0,0.9,0c0.2,0,0.4,0,0.7,0c0.1,0,0.1,0,0.2,0c0.3,0,0.5-0.2,0.5-0.5
		C-1560,1339.7-1560.2,1339.5-1560.5,1339.5z"/>
	<path id="路径_167" class="st1" d="M-1551,1341.1c-0.3,0-0.6,0-0.9,0c-0.3,0-0.6,0-0.9,0c-0.3,0-0.5,0.2-0.5,0.5
		c0,0.2,0.2,0.4,0.4,0.4c0,0,0,0,0.1,0c0.6,0,1.2,0,1.8,0c0.3,0,0.5-0.2,0.5-0.5C-1550.5,1341.3-1550.7,1341.1-1551,1341.1
		C-1550.9,1341.1-1551,1341.1-1551,1341.1z"/>
	<path id="路径_168" class="st1" d="M-1550.5,1340c0-0.3-0.2-0.5-0.5-0.4c0,0,0,0,0,0h-1.8c-0.2,0-0.5,0.1-0.5,0.4c0,0,0,0,0,0.1
		c0,0.2,0.1,0.5,0.4,0.5c0,0,0,0,0.1,0c0.6,0,1.2,0,1.8,0C-1550.7,1340.4-1550.5,1340.2-1550.5,1340
		C-1550.5,1340-1550.5,1340-1550.5,1340z"/>
	<path id="路径_169" class="st1" d="M-1571.8,1341.1c-0.2,0-0.3,0-0.5,0l0,0c-0.2,0-0.3,0-0.5,0c-0.2,0-0.4,0.2-0.4,0.4
		c0,0,0,0,0,0c0,0.2,0.1,0.4,0.4,0.5c0,0,0,0,0,0c0.3,0,0.7,0,1,0c0.2,0,0.4-0.2,0.4-0.4c0,0,0,0,0,0
		C-1571.4,1341.3-1571.5,1341.1-1571.8,1341.1C-1571.8,1341.1-1571.8,1341.1-1571.8,1341.1z"/>
	<path id="路径_170" class="st1" d="M-1572.8,1332.3c0.2,0,0.3,0,0.5,0l0,0c0.2,0,0.3,0,0.5,0c0.2,0,0.4-0.2,0.4-0.4c0,0,0,0,0,0
		c0-0.2-0.1-0.4-0.4-0.5c0,0,0,0,0,0c-0.3,0-0.7,0-1,0c-0.2,0-0.4,0.2-0.4,0.4c0,0,0,0,0,0
		C-1573.2,1332.1-1573,1332.3-1572.8,1332.3C-1572.8,1332.3-1572.8,1332.3-1572.8,1332.3z"/>
	<path id="路径_171" class="st1" d="M-1572.8,1340.4c0.4,0,0.7,0,1.1,0c0.2,0,0.4-0.2,0.4-0.4c0,0,0,0,0,0c0-0.2-0.2-0.4-0.4-0.4
		c0,0,0,0,0,0c-0.2,0-0.3,0-0.5,0l0,0c-0.2,0-0.3,0-0.5,0c-0.2,0-0.4,0.2-0.4,0.4c0,0,0,0,0,0
		C-1573.2,1340.2-1573.1,1340.4-1572.8,1340.4C-1572.9,1340.4-1572.8,1340.4-1572.8,1340.4z"/>
	<path id="路径_172" class="st1" d="M-1572.8,1330.6c0.2,0,0.3,0,0.5,0l0,0c0.2,0,0.3,0,0.5,0c0.2,0,0.4-0.2,0.4-0.5c0,0,0,0,0,0
		c0-0.2-0.2-0.4-0.4-0.4c0,0,0,0,0,0c-0.3,0-0.6,0-0.9,0c-0.2,0-0.4,0.2-0.5,0.4c0,0,0,0,0,0
		C-1573.2,1330.4-1573,1330.6-1572.8,1330.6C-1572.8,1330.6-1572.8,1330.6-1572.8,1330.6z"/>
	<path id="路径_173" class="st3" d="M-1564.7,1320.6c-1.5,0-3.1,0-4.6,0c-0.2,0-0.4,0.2-0.4,0.3c0,0.5,0,0.9,0,1.4h3.7
		c0.2,0,0.4,0,0.6,0c0.2,0,0.4,0.2,0.4,0.4c0,0,0,0,0,0c0,0.2-0.2,0.4-0.4,0.4c-0.1,0-0.2,0-0.3,0c-1.2,0-2.4,0-3.5,0
		c-0.1,0-0.2,0-0.4,0c0,0.1,0,0.2,0,0.3c0,6.7,0,13.4,0,20.1c0,0.3,0.1,0.3,0.4,0.3c1.6,0,3.3,0,4.9,0c0.1,0,0.2,0,0.4,0
		c0-0.2,0-0.3,0-0.4c0-5.8,0-11.5,0-17.3c0-1.7,0-3.4,0-5.1C-1564.3,1320.8-1564.4,1320.6-1564.7,1320.6z M-1565.7,1342.2
		c-0.9,0-1.8,0-2.7,0c-0.3,0-0.5-0.2-0.5-0.4s0.2-0.4,0.5-0.4c0.4,0,0.9,0,1.3,0s0.9,0,1.3,0c0.3,0,0.5,0.2,0.5,0.4
		S-1565.4,1342.2-1565.7,1342.2L-1565.7,1342.2z M-1565.7,1340.6c-0.9,0-1.8,0-2.6,0c-0.3,0-0.5-0.2-0.5-0.4c0-0.3,0.2-0.4,0.5-0.4
		c0.4,0,0.9,0,1.3,0c0.4,0,0.9,0,1.3,0c0.3,0,0.5,0.2,0.5,0.4S-1565.4,1340.6-1565.7,1340.6L-1565.7,1340.6z M-1565.2,1332.5
		c0,0.4-0.1,0.6-0.6,0.6c-0.8,0-1.6,0-2.5,0c-0.5,0-0.6-0.1-0.6-0.6c0-0.9,0-1.9,0-2.8c0-0.9,0-1.8,0-2.7c0-0.4,0.1-0.6,0.6-0.6
		c0.8,0,1.6,0,2.5,0c0.5,0,0.6,0.1,0.6,0.6C-1565.2,1328.9-1565.2,1330.7-1565.2,1332.5L-1565.2,1332.5z"/>
	<path id="路径_174" class="st3" d="M-1555.2,1321.6c-0.9,0-1.8,0-2.8,0c-0.3,0-0.5,0.1-0.5,0.4c0,0.4,0,0.8,0,1.3h2.1
		c0.5,0,0.7,0.1,0.7,0.4s-0.2,0.4-0.7,0.4c-0.5,0-1.1,0-1.6,0c-0.4,0-0.4,0.1-0.4,0.4c0,0.6,0,1.1,0,1.7c0,5.8,0,11.6,0,17.4
		c0,0.3,0.1,0.4,0.4,0.4c1,0,1.9,0,2.9,0c0.5,0,0.5,0,0.5-0.4c0-5.6,0-11.2,0-16.8c0-1.5,0-3.1,0-4.6
		C-1554.7,1321.7-1554.9,1321.6-1555.2,1321.6z M-1556.1,1329c-0.2,0-0.3,0-0.5,0l0,0c-0.2,0-0.3,0-0.5,0c-0.2,0-0.4-0.2-0.4-0.4
		c0,0,0,0,0,0c0-0.2,0.2-0.4,0.4-0.4c0,0,0,0,0,0c0.3,0,0.7,0,1,0c0.2,0,0.4,0.2,0.4,0.4c0,0,0,0,0,0
		C-1555.7,1328.8-1555.8,1329-1556.1,1329C-1556,1329-1556.1,1329-1556.1,1329L-1556.1,1329z M-1555.7,1330.2c0,0.2-0.2,0.4-0.4,0.4
		c0,0,0,0,0,0c-0.3,0-0.7,0-1,0c-0.2,0-0.4-0.2-0.4-0.4c0,0,0,0,0-0.1c0-0.2,0.2-0.4,0.4-0.4c0,0,0,0,0,0c0.2,0,0.3,0,0.5,0l0,0
		c0.2,0,0.3,0,0.5,0C-1555.8,1329.9-1555.7,1330-1555.7,1330.2L-1555.7,1330.2z M-1556.1,1342.2c-0.3,0-0.7,0-1,0
		c-0.2,0-0.4-0.1-0.4-0.4c0,0,0,0,0,0c0-0.2,0.2-0.4,0.4-0.4c0,0,0,0,0,0c0.2,0,0.3,0,0.5,0l0,0c0.2,0,0.3,0,0.5,0
		c0.2,0,0.4,0.1,0.4,0.4c0,0,0,0,0,0C-1555.7,1342.1-1555.8,1342.2-1556.1,1342.2L-1556.1,1342.2z M-1556,1340.6c-0.2,0-0.4,0-0.5,0
		v0c-0.2,0-0.3,0-0.5,0c-0.3,0-0.4-0.2-0.4-0.4c0-0.2,0.2-0.4,0.4-0.4c0,0,0,0,0,0c0.3,0,0.7,0,1,0c0.2,0,0.4,0.1,0.4,0.4
		c0,0,0,0,0,0C-1555.7,1340.4-1555.8,1340.6-1556,1340.6C-1556,1340.6-1556,1340.6-1556,1340.6L-1556,1340.6z M-1556.1,1327.3
		c0,0-0.1,0-0.1,0c-0.1,0-0.3,0-0.4,0c-0.2,0-0.3,0-0.5,0c-0.2,0-0.4-0.2-0.4-0.4c0,0,0,0,0,0c0-0.2,0.2-0.4,0.4-0.4c0,0,0,0,0,0
		c0.4,0,0.7,0,1.1,0c0.2,0,0.4,0.2,0.4,0.4c0,0,0,0,0,0C-1555.7,1327.1-1555.8,1327.3-1556.1,1327.3
		C-1556.1,1327.3-1556.1,1327.3-1556.1,1327.3L-1556.1,1327.3z"/>
	<path id="路径_175" class="st1" d="M-1565.9,1326.1c-0.8,0-1.6,0-2.5,0c-0.5,0-0.6,0.1-0.6,0.6c0,1,0,2,0,3.1c0,1,0,2.1,0,3.1
		c0,0.5,0.1,0.6,0.6,0.6c0.8,0,1.6,0,2.5,0c0.5,0,0.6-0.1,0.6-0.6c0-2.1,0-4.1,0-6.2C-1565.2,1326.3-1565.4,1326.1-1565.9,1326.1z
		 M-1566.2,1332.6h-1.8v-5.6h1.8V1332.6z"/>
	<path id="路径_176" class="st1" d="M-1565.8,1339.5c-0.4,0-0.9,0-1.3,0c-0.4,0-0.9,0-1.3,0c-0.4,0-0.5,0.2-0.5,0.5
		c0,0.3,0.2,0.4,0.5,0.5c0.9,0,1.8,0,2.6,0c0.3,0,0.5-0.2,0.5-0.5C-1565.2,1339.7-1565.4,1339.5-1565.8,1339.5z"/>
	<path id="路径_177" class="st2" d="M-1567.1,1339.5c0.4,0,0.9,0,1.3,0C-1566.2,1339.5-1566.7,1339.5-1567.1,1339.5s-0.9,0-1.3,0
		C-1568,1339.5-1567.5,1339.5-1567.1,1339.5z"/>
	<path id="路径_178" class="st1" d="M-1565.8,1341.1c-0.4,0-0.9,0-1.3,0s-0.9,0-1.3,0c-0.3,0-0.5,0.2-0.5,0.4
		c0,0.2,0.2,0.5,0.4,0.5c0,0,0.1,0,0.1,0c0.9,0,1.8,0,2.7,0c0.3,0,0.5-0.1,0.5-0.4c0,0,0,0,0-0.1
		C-1565.2,1341.3-1565.4,1341.1-1565.8,1341.1z"/>
	<path id="路径_179" class="st2" d="M-1567.1,1341.1c0.4,0,0.9,0,1.3,0C-1566.2,1341.1-1566.7,1341.1-1567.1,1341.1s-0.9,0-1.3,0
		C-1568,1341.1-1567.5,1341.1-1567.1,1341.1z"/>
	<path id="路径_180" class="st1" d="M-1556,1326.4c-0.4,0-0.7,0-1.1,0c-0.2,0-0.4,0.2-0.4,0.4c0,0,0,0,0,0c0,0.2,0.2,0.4,0.4,0.5
		c0,0,0,0,0,0c0.2,0,0.3,0,0.5,0c0.1,0,0.3,0,0.4,0c0,0,0.1,0,0.1,0c0.2,0,0.4-0.2,0.4-0.4c0,0,0,0,0,0
		C-1555.6,1326.6-1555.8,1326.4-1556,1326.4C-1556,1326.4-1556,1326.4-1556,1326.4z"/>
	<path id="路径_181" class="st2" d="M-1556.6,1327.2c-0.2,0-0.3,0-0.5,0C-1556.9,1327.2-1556.7,1327.2-1556.6,1327.2
		c0.1,0,0.3,0,0.4,0C-1556.3,1327.2-1556.4,1327.2-1556.6,1327.2z"/>
	<path id="路径_182" class="st1" d="M-1556.1,1341.1c-0.2,0-0.3,0-0.5,0l0,0c-0.2,0-0.3,0-0.5,0c-0.2,0-0.4,0.2-0.4,0.4
		c0,0,0,0,0,0c0,0.2,0.1,0.4,0.4,0.4c0,0,0,0,0,0c0.3,0,0.7,0,1,0c0.2,0,0.4-0.2,0.4-0.4c0,0,0,0,0-0.1
		C-1555.6,1341.3-1555.8,1341.1-1556.1,1341.1C-1556.1,1341.1-1556.1,1341.1-1556.1,1341.1z"/>
	<path id="路径_183" class="st1" d="M-1556.1,1329.7c-0.2,0-0.3,0-0.5,0l0,0c-0.2,0-0.3,0-0.5,0c-0.2,0-0.4,0.2-0.4,0.4
		c0,0,0,0,0,0c0,0.2,0.1,0.4,0.4,0.5c0,0,0,0,0,0c0.3,0,0.7,0,1,0c0.2,0,0.4-0.2,0.4-0.4c0,0,0,0,0-0.1
		C-1555.6,1329.9-1555.8,1329.7-1556.1,1329.7C-1556.1,1329.7-1556.1,1329.7-1556.1,1329.7z"/>
	<path id="路径_184" class="st1" d="M-1556.1,1339.5c-0.3,0-0.7,0-1,0c-0.2,0-0.4,0.2-0.4,0.4c0,0,0,0,0,0c0,0.2,0.1,0.4,0.4,0.5
		c0,0,0,0,0,0c0.2,0,0.3,0,0.5,0v0c0.2,0,0.4,0,0.5,0c0.2,0,0.4-0.2,0.4-0.4c0,0,0,0,0,0
		C-1555.6,1339.7-1555.8,1339.5-1556.1,1339.5C-1556,1339.5-1556.1,1339.5-1556.1,1339.5z"/>
	<path id="路径_185" class="st1" d="M-1556,1328.1c-0.3,0-0.7,0-1,0c-0.2,0-0.4,0.2-0.4,0.4c0,0,0,0,0,0c0,0.2,0.2,0.4,0.4,0.5
		c0,0,0,0,0,0c0.2,0,0.3,0,0.5,0l0,0c0.2,0,0.3,0,0.5,0c0.2,0,0.4-0.2,0.4-0.4c0,0,0,0,0,0
		C-1555.6,1328.3-1555.8,1328.1-1556,1328.1C-1556,1328.1-1556,1328.1-1556,1328.1z"/>
</g>
<g id="组_53" transform="translate(1021.665 -879.05)">
	<path id="路径_150" class="st4" d="M-946.1,903.8c-0.1-0.3-0.2-0.5-0.3-0.7c-1-2.2-2-4.4-3-6.6c-0.1-0.2-0.3-0.4-0.5-0.5
		c-1.4-0.7-2.8-1.3-4.2-1.9c-0.1,0-0.2-0.1-0.3-0.2l0.4-0.9l1.3,0.6c1.2,0.6,2.4,1.1,3.6,1.7c0.2,0.1,0.4,0.3,0.5,0.5
		c1.3,2.9,2.6,5.8,4,8.7c0.1,0.3,0.2,0.5,0,0.8c-0.2,0.2-0.5,0.1-0.8,0c-2.2-1-4.4-2-6.7-3c-0.2-0.1-0.4-0.1-0.6,0
		c-2.2,1.2-4.4,2.5-6.6,3.7c-0.3,0.2-0.7,0.2-0.9,0c-2.2-1.2-4.4-2.5-6.6-3.7c-0.2-0.1-0.4-0.1-0.6,0c-2.2,1-4.4,2-6.6,2.9
		c-0.1,0-0.2,0.1-0.2,0.1c-0.2,0-0.4,0-0.6-0.1c-0.2-0.2-0.2-0.4-0.1-0.6c0.4-0.8,0.7-1.6,1.1-2.3c1-2.2,2-4.3,2.9-6.5
		c0.1-0.3,0.3-0.5,0.6-0.6c1.5-0.7,3-1.3,4.6-2c0.1,0,0.2-0.1,0.3-0.1l0.4,0.9c-0.4,0.2-0.8,0.4-1.2,0.5c-1.2,0.5-2.3,1-3.5,1.5
		c-0.2,0.1-0.3,0.2-0.4,0.3c-1.1,2.4-2.2,4.7-3.2,7.1c0,0.1,0,0.1-0.1,0.2c0.1,0,0.2-0.1,0.3-0.1c1.8-0.8,3.6-1.6,5.3-2.4
		c0.2-0.1,0.3-0.2,0.4-0.4c0.6-1.4,1.1-2.9,1.7-4.3c0.1-0.2,0.2-0.3,0.4-0.4c0.2,0,0.4,0,0.5,0.1c0.1,0.2,0.1,0.4,0.1,0.6
		c-0.4,1.1-0.8,2.2-1.3,3.3c-0.1,0.3-0.3,0.6-0.4,0.9c0,0.1,0,0.2,0.1,0.3c2,1.1,3.9,2.2,5.9,3.4v-3.4h1v3.4
		c0.2-0.1,0.3-0.1,0.3-0.2c1.8-1,3.7-2.1,5.5-3.1c0.2-0.1,0.3-0.2,0.2-0.4c0,0,0-0.1,0-0.1c-0.5-1.4-1.1-2.8-1.6-4.1
		c-0.1-0.2,0-0.4,0.1-0.6c0.1-0.1,0.3-0.2,0.5-0.1c0.2,0.1,0.3,0.3,0.4,0.4c0.4,1.1,0.9,2.2,1.3,3.3c0.2,0.9,0.9,1.6,1.7,1.8
		c1.4,0.5,2.8,1.2,4.2,1.8C-946.4,903.6-946.3,903.7-946.1,903.8z"/>
	<path id="路径_151" class="st3" d="M-959.7,880.3c3.1,0,5.8,2.4,6.2,5.5c0.1,1.1-0.1,2.2-0.6,3.3c-1.2,3.1-2.7,6.2-4.4,9.1
		c-0.2,0.4-0.4,0.8-0.7,1.2c-0.1,0.3-0.4,0.4-0.7,0.3c-0.1-0.1-0.2-0.2-0.3-0.3c-2-3.3-3.7-6.7-5.1-10.3c-0.3-0.8-0.5-1.7-0.6-2.6
		C-965.9,883.1-963.1,880.3-959.7,880.3z"/>
	<path id="路径_152" class="st4" d="M-959.7,883c1.9,0,3.4,1.6,3.5,3.5c-0.1,1.9-1.6,3.4-3.4,3.4c-1.9-0.1-3.4-1.6-3.5-3.5
		C-963.1,884.6-961.6,883.1-959.7,883z M-957.3,886.5c0.1-1.3-0.9-2.4-2.2-2.4c-0.1,0-0.1,0-0.2,0c-1.3,0-2.4,1-2.4,2.2
		c0,0.1,0,0.1,0,0.2c-0.1,1.3,0.9,2.4,2.2,2.4c0.1,0,0.1,0,0.2,0c1.3,0,2.4-0.9,2.4-2.2C-957.3,886.6-957.3,886.6-957.3,886.5z"/>
</g>
</svg>
