<?xml version="1.0" encoding="utf-8"?>
<!-- Generator: Adobe Illustrator 23.0.3, SVG Export Plug-In . SVG Version: 6.00 Build 0)  -->
<svg version="1.1" id="圖層_1" xmlns="http://www.w3.org/2000/svg" xmlns:xlink="http://www.w3.org/1999/xlink" x="0px" y="0px"
	 viewBox="0 0 56.7 56.7" style="enable-background:new 0 0 56.7 56.7;" xml:space="preserve">
<style type="text/css">
	.st0{fill:#FFFFFF;}
	.st1{fill:#4AAB35;}
</style>
<path class="st0" d="M28.4,3.5c13.7,0,24.8,11.1,24.9,24.8c0,0,0,0.1,0,0.1C53.3,42,42.3,53.1,28.7,53.2c-0.1,0-0.2,0-0.4,0
	C14.7,53.3,3.6,42.4,3.5,28.8c0-0.1,0-0.3,0-0.4C3.5,14.6,14.6,3.5,28.4,3.5C28.3,3.5,28.3,3.5,28.4,3.5z"/>
<g id="组_51" transform="translate(188.855 0.154)">
	<g id="组_50" transform="translate(0)">
		<path id="路径_145" class="st1" d="M-188.1,28.2c0-15.2,12.3-27.6,27.5-27.6c0.1,0,0.1,0,0.2,0c15.1-0.1,27.5,12.1,27.6,27.2
			c0,0.2,0,0.3,0,0.5c0.1,15.1-12.1,27.5-27.2,27.6c-0.1,0-0.3,0-0.4,0c-15.2,0.1-27.6-12.3-27.7-27.5
			C-188.1,28.3-188.1,28.2-188.1,28.2z M-160.4,13.1c-1.2,0.1-2.3,0.2-3.5,0.4c-4.7,0.5-9,3-11.8,6.8c-1.7,2.1-2.6,4.7-2.5,7.3
			c0.2,4,2.1,7.8,5.4,10.2c2.7,2,5.8,3.4,9.2,3.8c1.5,0.2,2,0.8,1.7,2.4c-0.1,0.6-0.2,1.1-0.2,1.7c0,0.9,0.4,1.2,1.2,0.9
			c0.2-0.1,0.4-0.1,0.6-0.3c1.7-1,3.5-2,5.1-3.1c3.5-2.2,6.6-4.9,9.3-8.1c2.5-2.9,3.4-6.8,2.5-10.4c-0.6-2.7-2.1-5.1-4.3-6.8
			C-151.1,14.8-155.7,13.1-160.4,13.1L-160.4,13.1z"/>
		<path id="路径_146" class="st1" d="M-157.4,28.1c0-0.8,0-1.5,0-2.3c0-0.6,0-1.2,0-1.8c0-0.4,0.3-0.8,0.7-0.8c0,0,0.1,0,0.1,0
			c0.5,0,0.8,0.3,0.8,0.8c0,0.8,0,1.6,0,2.4c0,1.2,0,2.5,0,3.7c0,0.2,0,0.5-0.1,0.7c-0.2,0.3-0.4,0.8-0.7,0.9
			c-0.2,0.1-0.7-0.2-0.9-0.5c-1-1.2-1.8-2.4-2.8-3.6c-0.2-0.3-0.4-0.5-0.8-1c-0.1,0.5-0.1,0.7-0.1,1c0,1,0,2,0,3
			c0,0.6-0.1,1.1-0.8,1.1c-0.7,0-0.9-0.4-0.9-1c0-2.1,0-4.1,0.1-6.2c0-0.5,0.3-1,0.7-1.3c0.5-0.3,0.8,0.3,1.1,0.6
			c0.9,1.3,1.9,2.5,2.8,3.8c0.2,0.2,0.3,0.4,0.5,0.6L-157.4,28.1z"/>
		<path id="路径_147" class="st1" d="M-152.8,30c0.9,0,1.7,0,2.4,0c0.5-0.1,0.9,0.2,1.1,0.7c0.1,0.5-0.2,0.9-0.6,1
			c-0.1,0-0.2,0-0.2,0c-1.2,0-2.4,0-3.6,0c-0.4,0-0.8-0.3-0.8-0.7c0,0,0-0.1,0-0.1c0-2.3,0-4.5,0-6.8c0-0.6,0.4-0.9,1-0.9
			c1.1,0,2.2,0,3.3,0c0.5,0,0.9,0.2,1,0.8c0,0.6-0.4,0.9-0.9,0.9c-0.7,0-1.3,0-2,0c-0.6,0-0.6,0.3-0.6,0.7c0,0.4-0.1,0.9,0.6,0.9
			c0.6,0,1.2,0,1.9,0c0.6,0,1.1,0.2,1.1,0.8c0.1,0.5-0.4,0.8-1.2,0.9c-0.5,0-1.1,0-1.6,0c-0.6,0-0.8,0.2-0.8,0.8
			C-152.8,29.3-152.8,29.7-152.8,30z"/>
		<path id="路径_148" class="st1" d="M-171.9,27.4c0-1.1,0-2.1,0-3.2c0-0.7,0.3-1.1,0.9-1.1c0.7,0,0.9,0.5,0.9,1.1
			c0,1.7,0,3.4,0,5.1c0,0.6,0.2,0.7,0.7,0.7c0.6,0,1.2,0,1.9,0c0.5-0.1,0.9,0.3,0.9,0.7c0,0,0,0.1,0,0.1c0,0.4-0.3,0.8-0.7,0.9
			c0,0-0.1,0-0.2,0c-1.2,0-2.4,0-3.6,0c-0.6,0-0.9-0.4-0.9-1C-171.9,29.6-171.9,28.5-171.9,27.4z"/>
		<path id="路径_149" class="st1" d="M-165.7,27.4c0-1,0-2.1,0-3.1c0-0.8,0.3-1.1,0.9-1.1c0.6,0,0.9,0.4,0.9,1.1
			c0,2.1,0,4.2,0,6.3c0,0.8-0.3,1.1-0.9,1.1s-0.9-0.3-0.9-1.1C-165.7,29.5-165.7,28.5-165.7,27.4z"/>
	</g>
</g>
</svg>
