<?xml version="1.0" encoding="utf-8"?>
<!-- Generator: Adobe Illustrator 23.0.3, SVG Export Plug-In . SVG Version: 6.00 Build 0)  -->
<svg version="1.1" id="圖層_1" xmlns="http://www.w3.org/2000/svg" xmlns:xlink="http://www.w3.org/1999/xlink" x="0px" y="0px"
	 viewBox="0 0 93.5 99.2" style="enable-background:new 0 0 93.5 99.2;" xml:space="preserve">
<style type="text/css">
	.st0{fill:#389ED0;}
	.st1{fill:#FFFFFF;}
	.st2{enable-background:new    ;}
	.st3{fill:#F7F7F7;}
</style>
<g>
	<path id="路径_132_4_" class="st0" d="M4.6,31.5v36.2c0,3.9,2.1,7.5,5.4,9.4l31.3,18.1c3.4,1.9,7.5,1.9,10.9,0l31.3-18.1
		c3.4-1.9,5.4-5.5,5.4-9.4V31.5c0-3.9-2.1-7.5-5.4-9.4L52.2,4c-3.4-1.9-7.5-1.9-10.9,0L10,22.1C6.7,24.1,4.6,27.6,4.6,31.5z"/>
	<g id="Award_4_" transform="translate(26.866 14.688)">
		<path id="路径_133_4_" class="st1" d="M19.9,9.4c-6.1,0-11,4.9-11,11c0,6.1,4.9,11,11,11c6.1,0,11-4.9,11-11l0,0
			C30.9,14.3,26,9.4,19.9,9.4z M27.6,19.7l-2.7,2.9l0.5,4c0.1,0.5-0.1,0.9-0.5,1.2C24.6,28,24.4,28,24.1,28c-0.2,0-0.4,0-0.5-0.1
			l-3.6-1.7l-3.6,1.7c-0.4,0.2-0.9,0.1-1.3-0.1c-0.4-0.3-0.6-0.7-0.5-1.2l0.5-4l-2.7-2.9c-0.5-0.5-0.5-1.3,0.1-1.8
			c0.2-0.2,0.4-0.3,0.6-0.3l4-0.8l2-3.5c0.3-0.6,1.1-0.8,1.7-0.5c0.2,0.1,0.4,0.3,0.5,0.5l2,3.5l4,0.8c0.7,0.1,1.2,0.8,1,1.5
			C27.9,19.3,27.8,19.5,27.6,19.7L27.6,19.7z"/>
		<path id="路径_134_4_" class="st1" d="M22.6,35.3c0.1-0.1,0.2-0.1,0.3-0.2h0c0.1-0.1,0.2-0.1,0.3-0.1c0.2-0.1,0.5-0.2,0.7-0.2
			l0.1,0c0.1,0,0.1,0,0.2,0c0,0,0.1,0,0.1,0c0.1,0,0.2,0,0.4,0h0c0,0,0.1,0,0.1,0c0.1,0,0.3,0,0.4,0c0.1,0,0.3,0,0.4,0.1
			c0.1,0,0.2,0,0.3,0c0.1,0,0.2,0,0.3,0h0.1c0.5,0,0.9-0.1,1.3-0.3c0.2-0.1,0.3-0.2,0.5-0.3c0.1-0.1,0.1-0.1,0.2-0.2
			c0.1-0.1,0.2-0.2,0.3-0.3c0-0.1,0.1-0.1,0.1-0.2c0.1-0.1,0.1-0.2,0.2-0.2c0-0.1,0.1-0.2,0.1-0.2c0-0.1,0.1-0.2,0.1-0.3
			c0.1-0.3,0.2-0.5,0.3-0.7c0.1-0.2,0.2-0.3,0.3-0.4c0-0.1,0.1-0.1,0.2-0.2c0.1-0.1,0.1-0.1,0.2-0.2l0.2-0.2c0,0,0,0,0,0
			c0,0,0.1-0.1,0.1-0.1c0,0,0,0,0,0c0.4-0.4,1-0.7,1.5-0.9c1.2-0.4,2.1-1.6,2.1-2.8c0-0.2,0-0.4-0.1-0.6c-0.3-1.4,0.1-2.8,1-3.8
			c0,0,0,0,0,0c1-1.1,1-2.9,0-4c-0.9-1-1.3-2.4-1-3.8c0-0.2,0.1-0.4,0.1-0.6c0-1.3-0.8-2.4-2.1-2.8c-1.3-0.4-2.3-1.5-2.8-2.8
			c-0.1-0.3-0.3-0.6-0.5-0.9c-0.6-0.7-1.4-1.1-2.4-1.1c-0.2,0-0.4,0-0.6,0.1c-1.4,0.3-2.8-0.1-3.8-1c-1.1-1-2.9-1-4,0
			c0,0-0.1,0-0.1,0.1c-1,0.9-2.4,1.2-3.7,1c-0.2,0-0.4-0.1-0.6-0.1c-0.9,0-1.8,0.4-2.4,1.1c-0.2,0.3-0.4,0.6-0.5,0.9
			C10.2,10,9.2,11,7.9,11.4c-1.2,0.4-2.1,1.6-2.1,2.8c0,0.2,0,0.4,0.1,0.6c0.3,1.4-0.1,2.8-1,3.8c-1,1.1-1,2.9,0,4
			c0.9,1,1.3,2.4,1,3.8c0,0.2-0.1,0.4-0.1,0.6c0,1.3,0.8,2.4,2.1,2.8c0.6,0.2,1.2,0.5,1.6,1c0,0,0,0,0,0c0.1,0.1,0.2,0.2,0.4,0.4
			c0.2,0.2,0.3,0.4,0.4,0.7c0.1,0.2,0.2,0.5,0.3,0.7c0.1,0.2,0.2,0.4,0.3,0.6c0,0.1,0.1,0.1,0.1,0.2c0,0.1,0.1,0.1,0.2,0.2
			c0,0.1,0.1,0.1,0.1,0.1c0,0,0.1,0.1,0.1,0.1c0,0,0.1,0.1,0.1,0.1c0.1,0.1,0.1,0.1,0.2,0.1c0.1,0.1,0.1,0.1,0.2,0.2
			c0.1,0,0.1,0.1,0.2,0.1c0,0,0,0,0,0c0.2,0.1,0.3,0.2,0.5,0.2c0.3,0.1,0.6,0.1,0.9,0.1h0c0.1,0,0.2,0,0.2,0c0.1,0,0.2,0,0.3,0
			c1.3-0.3,2.7,0.1,3.7,1l0,0h0c0,0,0,0,0,0c1.1,1,2.9,1,4,0c0,0,0,0,0,0c0.1-0.1,0.2-0.2,0.3-0.3C22.4,35.4,22.5,35.3,22.6,35.3z
			 M19.9,32.7c-6.8,0-12.3-5.5-12.3-12.3S13.1,8,19.9,8c6.8,0,12.3,5.5,12.3,12.3l0,0C32.2,27.2,26.7,32.7,19.9,32.7L19.9,32.7z"/>
		<path id="路径_135_4_" class="st1" d="M9.3,33.2c-0.2-0.6-0.6-1.2-1.2-1.5l-4,7.7c-0.2,0.3,0,0.8,0.3,0.9c0.1,0,0.2,0.1,0.2,0.1
			l4.2,0.3l2.6-4.9C10.5,35.2,9.7,34.3,9.3,33.2z"/>
		<path id="路径_136_4_" class="st1" d="M17,36.8C17,36.8,17,36.8,17,36.8c-0.6-0.5-1.3-0.8-2-0.8c-0.2,0-0.4,0-0.6,0.1
			c-0.5,0.1-1,0.1-1.6,0l-2.7,5.1l2.7,3.3c0.1,0.2,0.3,0.3,0.5,0.3c0,0,0,0,0.1,0c0.2,0,0.4-0.2,0.5-0.4l3.7-7.1
			C17.4,37.2,17.2,37,17,36.8L17,36.8z"/>
		<path id="路径_137_4_" class="st1" d="M26.3,36.2c-0.3,0-0.6,0-0.9-0.1c-0.2,0-0.4-0.1-0.6-0.1c-0.7,0-1.5,0.3-2,0.8
			c-0.2,0.2-0.4,0.3-0.7,0.5l3.7,7.1c0.1,0.2,0.3,0.3,0.5,0.4c0,0,0,0,0.1,0c0.2,0,0.4-0.1,0.5-0.3l2.6-3.2L27,36.1
			C26.7,36.2,26.5,36.2,26.3,36.2z"/>
		<path id="路径_138_4_" class="st1" d="M31.6,31.6c-0.6,0.4-1,0.9-1.2,1.5c-0.4,1.1-1.2,2-2.2,2.5l2.6,4.9l4.2-0.3
			c0.4,0,0.7-0.4,0.6-0.7c0-0.1,0-0.2-0.1-0.3L31.6,31.6z"/>
	</g>
	<g class="st2">
		<path class="st3" d="M24.4,74.8v1.8h-1v-1.8h-2v-1h2V73h-1.5v-4.5h1.5v-0.8h-1.9v-0.9h1.9v-1.2h1v1.2h1.9v0.9h-1.9v0.8h1.5V73
			h-1.5v0.8h1.5v1H24.4z M22.8,70.3H25v-0.9h-2.2V70.3z M22.8,72.1H25v-0.9h-2.2V72.1z M28,73c-0.4,1-0.8,1.8-1.2,2.4l-0.9-0.5
			c0.5-0.6,0.9-1.4,1.4-2.4L28,73z M27.3,72.2c-0.3-0.4-0.5-0.6-0.6-0.7L26,70.7l0.6-0.6l0.7,0.6c0.2,0.2,0.4,0.3,0.6,0.5l0.1,0.1
			L27.3,72.2z M29.7,65.6c0.5,0.8,1.4,1.6,2.7,2.3l-0.7,1c-0.9-0.6-1.8-1.3-2.5-2.2c-0.7,0.9-1.5,1.7-2.4,2.2l-0.7-0.9
			c1.1-0.6,2-1.4,2.6-2.3H29.7z M28.1,69.9h-1.8v-1h2.8v6.3v0.2c0,0.4-0.1,0.7-0.2,0.9s-0.6,0.3-1.4,0.3h-0.5l-0.2-1.1l1.1,0
			c0.2,0,0.3-0.1,0.3-0.4V69.9z M30.4,72.2c-0.4-0.5-0.8-1-1.4-1.4l0.6-0.6l0.7,0.6l0.7,0.6L30.4,72.2z M31.1,73.1
			C31,73.2,31,73.3,31,73.4c-0.3,0.8-0.6,1.3-1,1.8l-0.9-0.5c0.5-0.7,1-1.4,1.3-2.1L31.1,73.1z M31.2,69.9h-1.8v-1h2.8v6.3v0.2
			c0,0.4-0.1,0.7-0.2,0.9c-0.2,0.2-0.5,0.3-1.2,0.3h-0.7l-0.3-1.1l1,0c0.3,0,0.4-0.1,0.4-0.4V69.9z"/>
		<path class="st3" d="M37.7,69.4c0.6,0.6,1.2,1.2,1.8,1.9c0,0.1,0.1,0.1,0.2,0.2l-0.7,1c-0.2-0.4-0.4-0.7-0.6-1l-0.6-0.8v6h-1.1
			v-5.7c-0.6,1.2-1.1,2.2-1.7,2.9l-0.5-1.3c0.9-1.1,1.6-2.4,2.1-3.7h-2v-1h2.1v-2.2h1.1v2.2h1.6v1h-1.6V69.4z M45.4,73.7l-0.7,1.1
			c-0.8-1-1.4-2.3-1.9-3.7v5.6h-1.2V71c-0.6,1.4-1.4,2.6-2.3,3.7l-0.8-1c1.3-1.2,2.3-2.9,3-4.9h-1.8v-1.1h1.9v-2.1h1.2v2.1h2.5v1.1
			h-2.4C43.5,70.7,44.3,72.4,45.4,73.7z"/>
		<path class="st3" d="M47.2,70.5c0.7-1.1,1.4-2.7,1.9-4.9l1,0.3L50,66.2c-0.1,0.8-0.3,1.4-0.4,1.8v8.6h-1v-6.4
			c-0.2,0.6-0.5,1.1-0.7,1.3L47.2,70.5z M52.3,72v-0.7h0.9V72c0,0.2,0.1,0.3,0.3,0.3h1.4c0.2,0,0.3,0,0.3-0.1s0.1-0.2,0.1-0.6
			c0,0,0-0.1,0-0.1l0.8,0.3c0,0.2,0,0.3,0,0.4c-0.1,0.4-0.2,0.6-0.3,0.7S55.4,73,55.1,73h-1.2l-0.2,0.2l-0.3,0.2h3.6v0.7
			c-0.1,0.1-0.2,0.2-0.3,0.2c-0.4,0.3-0.9,0.6-1.4,0.9c1,0.2,2,0.3,2.7,0.4c0.1,0,0.2,0,0.3,0l-0.3,0.9c-1.6-0.2-2.8-0.5-3.7-0.8
			c-1,0.3-2.2,0.6-3.6,0.7c-0.1,0-0.2,0-0.4,0l-0.5-0.9c0.2,0,0.6,0,1.2,0c0.6,0,1.3-0.1,2.2-0.4l-0.7-0.5c-0.2-0.1-0.3-0.3-0.5-0.4
			l-0.1,0.1c-0.2,0.1-0.4,0.2-0.5,0.2L50.6,75L50,74.3c1-0.3,1.9-0.7,2.8-1.3C52.4,72.9,52.3,72.6,52.3,72z M54.5,71.2l0.4,0.3
			l-0.4,0.7L54,71.7l-0.6-0.4l0.3-0.4H51v1h-1v-1.7h1v-3h2.4l0.2-0.5h-3.2v-0.8h8v0.8h-3.6l-0.2,0.5h2.8v3h0.9v1.6h-0.9l0.3,0.5
			L58,73l-0.7,0.5c-0.3-0.5-0.6-1.1-1.1-1.7c0,0-0.1-0.1-0.1-0.2l0.7-0.4l0.5,0.6v-0.8h-3L54.5,71.2z M52.2,71.7
			c-0.3,0.7-0.7,1.4-1.2,1.8l-0.8-0.6l0.1-0.1c0.5-0.5,0.9-1,1-1.5L52.2,71.7z M56.2,67.9H52v0.4h4.3V67.9z M56.2,68.8H52v0.4h4.3
			V68.8z M56.2,69.8H52v0.5h4.3V69.8z M53,74.2c0.3,0.3,0.7,0.5,1.2,0.8l0.2-0.1c0.5-0.3,0.9-0.5,1.1-0.7H53z"/>
		<path class="st3" d="M60.4,71.5l0.1-0.2c0.6-0.9,1-1.6,1.2-2.1h-1.5v-0.9h2.6v0.8c-0.1,0.1-0.1,0.3-0.2,0.3
			c-0.3,0.7-0.7,1.3-1.1,2h1.3v0.7L62.8,73c-0.1,0.4-0.2,0.8-0.3,0.9c0.3,0.7,0.9,1.1,1.6,1.2c0.7,0.2,2,0.3,3.8,0.3
			c1,0,1.9,0,2.8-0.1c0.2,0,0.4,0,0.6,0L71,76.4h-2.9c-2.3,0-3.7-0.1-4.4-0.3c-0.7-0.2-1.2-0.6-1.6-1.2c-0.3,0.7-0.7,1.3-1.2,1.8
			l-0.7-0.9c0.9-0.9,1.5-2.1,1.7-3.5h-1.5V71.5z M62,68l-0.7-0.9c-0.2-0.3-0.5-0.5-0.8-0.8l0.7-0.6c0.1,0.1,0.2,0.2,0.3,0.2
			c0.4,0.4,0.9,0.8,1.3,1.3L62,68z M63.2,72.5H65v-0.8h-1.6v-0.8H65v-0.6h1v0.6h1.9v-0.6h1v0.6h1.8v0.8h-1.8v0.8h2v0.8h-7.7V72.5z
			 M66.7,68.3h-2.3v0.6c0,0.2,0.1,0.3,0.3,0.3h1c0.2,0,0.4-0.2,0.4-0.7l0.9,0.3c-0.1,0.5-0.2,0.8-0.4,1c-0.1,0.2-0.4,0.2-0.7,0.2
			h-1.7c-0.6,0-0.9-0.3-0.9-1v-3h3.3V68.3z M66.2,74c-0.7,0.4-1.4,0.8-2.1,1.1l-0.6-0.9c0.8-0.3,1.5-0.6,2.1-1L66.2,74z M65.7,66.8
			h-1.3v0.8h1.3V66.8z M67.9,71.6H66v0.8h1.9V71.6z M70.6,68.3h-2.4v0.6c0,0.2,0.1,0.4,0.4,0.4h1c0.2,0,0.3-0.1,0.3-0.2l0.1-0.5
			l0.9,0.3c-0.1,0.6-0.3,0.9-0.4,1c-0.1,0.1-0.4,0.2-0.7,0.2h-1.7c-0.6,0-0.9-0.3-0.9-1v-3h3.4V68.3z M68.3,73.3
			c0.1,0,0.2,0.1,0.2,0.1c0.8,0.3,1.5,0.6,2,0.9l-0.6,0.9l-1.1-0.6c-0.2-0.1-0.5-0.2-0.9-0.5c-0.1,0-0.1-0.1-0.2-0.1L68.3,73.3z
			 M69.6,66.7h-1.4v0.8h1.4V66.7z"/>
	</g>
</g>
</svg>
