<?xml version="1.0" encoding="utf-8"?>
<!-- Generator: Adobe Illustrator 23.0.3, SVG Export Plug-In . SVG Version: 6.00 Build 0)  -->
<svg version="1.1" id="圖層_1" xmlns="http://www.w3.org/2000/svg" xmlns:xlink="http://www.w3.org/1999/xlink" x="0px" y="0px"
	 viewBox="0 0 29 12.8" style="enable-background:new 0 0 29 12.8;" xml:space="preserve">
<style type="text/css">
	.st0{fill:#C01A20;}
	.st1{fill:#FFFFFF;}
</style>
<g id="组_20" transform="translate(166.912 9.933)">
	<rect id="矩形_1" x="-165.7" y="-8.4" class="st0" width="26.6" height="9.8"/>
	<path id="路径_76" class="st1" d="M-159.2-6.9c0.1,0.4-0.4,0.5-0.7,0.7c-0.1,0-0.2,0.1-0.3,0.1c-0.1,0-0.1,0.1-0.2,0.1
		c-0.1,0-0.1,0-0.2,0c-0.1,0-0.3,0.1-0.4,0.1c-0.3,0.1-0.6,0.2-0.8,0.2s-0.3,0.1-0.5,0.1s-0.3,0-0.5-0.1c-0.1-0.1-0.1-0.2-0.2-0.3
		c0-0.1,0-0.1,0-0.2h0.1h0.1c0.1,0,0.1,0,0.2,0c0.1,0,0.1,0,0.2,0c0.1,0,0.1,0,0.2,0c0.1-0.1,0.1-0.1,0.2-0.1
		c0.2-0.1,0.3-0.1,0.5-0.1c0.1,0,0.1,0,0.2,0h0.1c0,0,0,0,0.1-0.1c0.1,0,0.1,0,0.2-0.1c0.2-0.1,0.4-0.2,0.5-0.4
		c0.1-0.1,0.2-0.1,0.4-0.1c0.1,0,0.3,0,0.4,0C-159.4-7.1-159.2-7-159.2-6.9"/>
	<path id="路径_77" class="st1" d="M-154.5-4.7c0-0.1,0-0.1,0-0.2s0-0.1,0-0.2s0-0.1,0-0.1c-0.1-0.1-0.3,0.1-0.4,0.1
		c-0.1,0.1-0.2,0.1-0.3,0.2c-0.1,0-0.1,0.1-0.2,0.1c-0.1,0-0.1,0.1-0.2,0.2c-0.1,0.1-0.3,0.2-0.5,0.3c-0.2,0.1-0.4,0.1-0.5,0
		c-0.2-0.1-0.5-0.2-0.7-0.3c-0.1,0-0.2-0.1-0.3-0.1c-0.1-0.1-0.2-0.2-0.3-0.3c-0.1-0.1-0.2-0.1-0.2-0.3c0.1-0.1,0.2-0.1,0.3-0.1
		c0.4,0,0.8-0.1,1.2-0.2c0.2-0.1,0.5-0.1,0.7-0.2c0.1,0,0.1,0,0.2-0.1c0.1,0,0.1-0.1,0.2-0.1c0.1-0.1,0.3,0,0.4-0.1
		c0.2-0.1,0.4-0.1,0.6-0.2c0.1,0,0.2-0.1,0.3-0.1s0.2,0,0.3-0.1c0.2-0.1,0.4-0.1,0.6-0.2s0.4-0.1,0.5-0.2c0.1,0,0.2,0,0.3,0
		c0.2,0,0.3,0.1,0.5,0.1c0.1,0,0.3,0.1,0.4,0.1c0.1,0,0.1,0.1,0.2,0.2c0,0.1,0,0.2-0.1,0.3c0,0,0,0.1-0.1,0.1
		c-0.1,0.1-0.2,0.2-0.3,0.2c-0.1,0-0.3,0-0.4,0c-0.1,0-0.1-0.1-0.2-0.1c-0.2-0.1-0.5-0.1-0.8,0h-0.1h-0.1c0,0-0.1,0-0.1,0.1
		c-0.1,0-0.2,0.1-0.2,0.2s0,0.3,0,0.4c0.1,0.2,0,0.5,0.1,0.7c0.1,0.4,0.1,0.7,0.1,1.1c0,0.5,0,1.1,0.1,1.6c0,0.1,0.1,0.2,0.1,0.3
		s0,0.1,0,0.2s0.1,0.3,0.1,0.4c0,0.2,0,0.3-0.1,0.5c0,0.2-0.1,0.4-0.3,0.5c-0.2,0.2-0.5,0.2-0.8,0.1c-0.2-0.1-0.3-0.3-0.3-0.5
		c-0.1-0.2-0.1-0.3,0-0.5c0.1-1.3,0.2-2.6,0.2-3.9"/>
	<path id="路径_78" class="st1" d="M-160.9-5.3c0.1,0.1,0.2,0.3,0.2,0.4c0.1,0.1,0.1,0.1,0.2,0c0.1,0,0.1,0,0.2-0.1
		c0.1,0,0.1-0.1,0.2-0.2c0.1-0.1,0.2-0.2,0.4-0.3c0.1,0,0.2,0,0.3,0c0.2,0.1,0.3,0.1,0.4,0.2c0.1,0.1,0.1,0.2,0,0.3
		c-0.1,0.3-0.5,0.4-0.7,0.5s-0.4,0.2-0.5,0.4c0,0.3,0.2,0.6,0.5,0.8c0.3,0.3,0.6,0.8,1,1c0.1,0.1,0.2,0.2,0.3,0.3
		c0.1,0,0.1,0.1,0.2,0.1c0.1,0,0.2,0.1,0.2,0.1c0.1,0,0.2,0.1,0.2,0.1h0.1c0.1,0,0.1,0.1,0.2,0.1h0.1c0,0,0.1,0,0.1,0.1
		c0.2,0.1,0.3,0.2,0.5,0.3c0.1,0,0.1,0,0.2,0.1c0.1,0,0.1,0.1,0.2,0.1c0.1,0.1,0.2,0.1,0.3,0.3c0,0.1,0,0.2-0.1,0.3
		c-0.1,0.1-0.2,0.1-0.3,0.1c-0.1,0-0.2,0.1-0.3,0.1c-0.1,0-0.1,0-0.2,0c-0.1,0-0.3,0-0.4,0c-0.3,0-0.5,0-0.8,0c-0.1,0-0.3,0-0.4-0.1
		c-0.2-0.1-0.3-0.2-0.5-0.4s-0.4-0.4-0.5-0.6c-0.2-0.2-0.3-0.5-0.5-0.7c-0.1-0.2-0.3-0.4-0.4-0.5c-0.1-0.1-0.1-0.1-0.2-0.2
		c-0.1,0-0.1-0.1-0.1-0.1c-0.1-0.1-0.2-0.2-0.3-0.2c-0.1,0.1-0.1,0.2-0.1,0.3s0,0.1,0,0.2c0,0.1,0,0.1,0,0.2c0,0.1,0,0.2-0.1,0.4
		c0,0.1-0.1,0.1-0.1,0.2s0,0.1-0.1,0.2c0,0,0,0.1-0.1,0.1c0,0.1,0,0.1-0.1,0.2c0,0.1-0.1,0.2-0.1,0.2c-0.1,0.1-0.2,0.3-0.3,0.4
		s-0.1,0.1-0.2,0.2c-0.1,0.1-0.1,0.1-0.2,0.1c-0.1,0-0.1,0.1-0.2,0.1c-0.2,0.1-0.3,0.1-0.5,0.1c-0.1,0-0.2,0-0.3-0.1h-0.1
		c-0.1,0-0.1,0-0.1-0.1c-0.1,0-0.1-0.1-0.1-0.1v-0.1c0-0.1,0-0.1,0-0.2c-0.1-0.1,0-0.1,0-0.2V-1c0-0.1,0.1-0.1,0.1-0.2
		s0.1-0.1,0.1-0.1c0.1,0,0.2,0,0.3,0h0.1c0.1,0,0.1,0.1,0.2,0.1c0.1,0,0.1-0.1,0.1-0.1l0.1-0.1l0.1-0.1c0.1-0.1,0.1-0.2,0.2-0.3
		c0.2-0.2,0.3-0.5,0.2-0.8c-0.2,0-0.4,0.1-0.7,0c-0.2-0.1-0.4-0.2-0.4-0.3c-0.1-0.1-0.2-0.3-0.2-0.4c0.1-0.2,0.3-0.1,0.4-0.2
		c0.1-0.1,0.3-0.1,0.4-0.1c0.1,0,0.2,0,0.2-0.1c0.1,0,0.1-0.1,0.2-0.1c0.1,0,0.1-0.1,0.2-0.1c0.1,0,0.2,0,0.2-0.1
		c0.1,0,0.1-0.1,0.2-0.1c0.1-0.1,0.2-0.2,0.2-0.4c0-0.1,0-0.1,0-0.2s0-0.1,0-0.2s0-0.1,0-0.2s0-0.1,0-0.2s0.1-0.1,0.2-0.2
		c0.1,0,0.1,0,0.2,0c0.1,0,0.1,0,0.2,0h0.1C-161-5.3-161-5.3-160.9-5.3"/>
	<g id="组_20-2" transform="translate(46.147 16.34)">
		<path id="路径_79" class="st1" d="M-195.1-18.8L-195.1-18.8l-0.1-0.1c0,0-0.1,0-0.2,0c-0.1,0-0.2,0-0.2,0.1
			c-0.1,0.1-0.1,0.2-0.1,0.3c0,0.1,0,0.2,0.1,0.3c0.1,0.1,0.1,0.1,0.2,0.1h0.1c0,0,0.1,0,0.1-0.1l0,0v0.1h-0.1h-0.1
			c-0.1,0-0.3,0-0.4-0.1c-0.1-0.1-0.1-0.2-0.1-0.4c0-0.1,0-0.3,0.1-0.3c0.1-0.1,0.2-0.1,0.4-0.1c0.1,0,0.1,0,0.1,0
			c0.1,0,0.1,0,0.2,0.1C-195.1-18.9-195.1-18.9-195.1-18.8L-195.1-18.8z"/>
		<path id="路径_80" class="st1" d="M-195-18.4c0-0.2,0.1-0.3,0.3-0.3c0,0,0,0,0.1,0s0.2,0,0.2,0.1c0.1,0.1,0.1,0.2,0.1,0.3
			c0,0.2-0.1,0.3-0.3,0.4C-194.8-18-195-18.1-195-18.4C-195-18.3-195-18.4-195-18.4L-195-18.4z M-194.8-18.4c0,0.1,0,0.1,0,0.2
			l0.1,0.1c0,0,0.1,0,0.1-0.1s0-0.1,0-0.2s0-0.1,0-0.2l-0.1-0.1c0,0-0.1,0-0.1,0.1S-194.8-18.4-194.8-18.4L-194.8-18.4z"/>
		<path id="路径_81" class="st1" d="M-194.2-18c0-0.1,0-0.1,0-0.2s0-0.1,0-0.1v-0.1c0-0.1,0-0.1,0-0.2l0,0l0,0c0,0,0,0,0.1,0l0,0
			v0.1l0.1-0.1h0.1h0.1l0.1,0.1l0.1-0.1h0.1h0.1c0,0,0,0,0.1,0v0.1c0,0.1,0,0.1,0,0.2v0.1v0.1v0.1c0,0,0,0-0.1,0l0,0l0,0
			c0,0,0,0-0.1,0c0-0.1,0-0.1,0-0.2s0-0.1,0-0.1c0-0.1,0-0.1,0-0.2c0,0,0,0-0.1,0h-0.1c0,0.1,0,0.1,0,0.2v0.2v0.1l0,0c0,0,0,0-0.1,0
			l0,0l0,0h-0.1c0-0.1,0-0.1,0-0.1v-0.1c0-0.1,0-0.2,0-0.2s0,0-0.1,0h-0.1c0,0.1,0,0.1,0,0.2v0.2v0.1l0,0l0,0
			C-194.1-17.9-194.1-18-194.2-18C-194.1-18-194.1-18-194.2-18L-194.2-18z"/>
		<path id="路径_82" class="st1" d="M-193-18c0-0.1,0-0.1,0-0.2s0-0.1,0-0.1v-0.1c0-0.1,0-0.1,0-0.2l0,0l0,0c0,0,0,0,0.1,0l0,0
			v0.1l0.1-0.1h0.1h0.1l0.1,0.1l0.1-0.1h0.1h0.1c0,0,0,0,0.1,0v0.1c0,0.1,0,0.1,0,0.2v0.1v0.1v0.1c0,0,0,0-0.1,0l0,0l0,0
			c0,0,0,0-0.1,0c0-0.1,0-0.1,0-0.2s0-0.1,0-0.1c0-0.1,0-0.1,0-0.2c0,0,0,0-0.1,0h-0.1c0,0.1,0,0.1,0,0.2v0.2v0.1l0,0c0,0,0,0-0.1,0
			l0,0l0,0h-0.1c0-0.1,0-0.1,0-0.1v-0.1c0-0.1,0-0.2,0-0.2s0,0-0.1,0h-0.1c0,0.1,0,0.1,0,0.2v0.2v0.1l0,0l0,0
			C-192.9-17.9-192.9-18-193-18C-192.9-18-193-18-193-18L-193-18z"/>
		<path id="路径_83" class="st1" d="M-191.9-18.4c0-0.2,0.2-0.3,0.4-0.3c0.1,0,0.2,0,0.2,0.1c0.1,0.1,0.1,0.2,0.1,0.3
			c0,0.2-0.1,0.3-0.3,0.4C-191.7-18-191.9-18.1-191.9-18.4C-191.9-18.3-191.9-18.4-191.9-18.4z M-191.7-18.4c0,0.1,0,0.1,0,0.2
			s0.1,0.1,0.2,0l0,0c0-0.1,0-0.1,0-0.2s0-0.1,0-0.2s-0.1-0.1-0.2,0l0,0C-191.7-18.5-191.7-18.4-191.7-18.4L-191.7-18.4z"/>
		<path id="路径_84" class="st1" d="M-191.1-18c0-0.1,0-0.1,0-0.2s0-0.1,0-0.2s0-0.1,0-0.2s0-0.1,0-0.2l0,0l0,0l0,0l0,0v0.1
			l0.1-0.1h0.1h0.1h0.1c0,0,0,0,0,0.1v0.1c0,0,0,0,0,0.1v0.1v0.1v0.1c0,0,0,0-0.1,0l0,0l0,0c0,0,0,0-0.1,0v-0.1c0-0.1,0-0.1,0-0.2
			s0-0.1,0-0.2h-0.1c0,0-0.1,0-0.1,0.1s0,0.1,0,0.2v0.1c0,0.1,0,0.1,0,0.2l0,0C-191-18-191-18-191.1-18C-191-18-191-18-191.1-18
			L-191.1-18z"/>
		<path id="路径_85" class="st1" d="M-190.1-18c0-0.1-0.1-0.3-0.1-0.5s-0.1-0.3-0.2-0.5c0,0,0,0,0.1,0s0,0,0.1,0c0,0,0,0,0.1,0
			s0,0,0.1,0c0,0.1,0.1,0.2,0.1,0.3c0,0.1,0.1,0.2,0.1,0.3c0-0.1,0.1-0.2,0.1-0.4c0-0.1,0.1-0.2,0.1-0.3l0,0l0,0l0,0l0,0
			c0,0.1,0.1,0.2,0.1,0.3c0,0.1,0.1,0.2,0.1,0.3c0-0.1,0.1-0.2,0.1-0.3c0-0.1,0.1-0.2,0.1-0.3l0,0l0,0l0,0l0,0
			c0,0.1-0.1,0.3-0.1,0.4c-0.1,0.2-0.1,0.3-0.2,0.5l0,0l0,0l0,0l0,0c0-0.1-0.1-0.2-0.1-0.3c0-0.1-0.1-0.2-0.1-0.3
			c0,0.1-0.1,0.2-0.1,0.3c0,0.1-0.1,0.2-0.1,0.3l0,0C-190-18-190-18-190.1-18L-190.1-18L-190.1-18z"/>
		<path id="路径_86" class="st1" d="M-188.9-18.4c0,0.1,0,0.1,0.1,0.2c0,0,0.1,0.1,0.2,0.1h0.1h0.1l0,0v0.1h-0.1h-0.1
			c-0.1,0-0.2,0-0.2-0.1C-188.9-18.2-188.9-18.3-188.9-18.4c0-0.1,0-0.2,0.1-0.2c0.1-0.1,0.1-0.1,0.2-0.1c0.1,0,0.2,0,0.2,0.1
			c0.1,0.1,0.1,0.1,0.1,0.2l0,0l0,0L-188.9-18.4z M-188.9-18.4h0.2l0,0l0,0v-0.1c0,0,0,0-0.1,0C-188.8-18.5-188.9-18.5-188.9-18.4
			C-188.9-18.5-188.9-18.5-188.9-18.4L-188.9-18.4z"/>
		<path id="路径_87" class="st1" d="M-188-18.1C-188-18.1-188.1-18.1-188-18.1c-0.1,0.1-0.1,0.1-0.2,0.1c0,0-0.1,0-0.1-0.1
			c0,0-0.1-0.1,0-0.1v-0.1l0.1-0.1h0.1c0.1,0,0.1,0,0.1-0.1l0,0l0,0v-0.1h-0.1h-0.1c0,0-0.1,0-0.1,0.1c0,0,0,0,0-0.1s0,0,0,0
			l0.1-0.1h0.1c0.1,0,0.1,0,0.2,0.1c0,0,0.1,0.1,0.1,0.2l0,0v0.2l0,0v0.1c0,0,0,0,0.1,0l0,0l0,0c0,0,0,0-0.1,0c0,0,0,0-0.1,0
			C-187.9-18-187.9-18-188-18.1L-188-18.1z M-188-18.4c0,0-0.1,0-0.1,0.1v0.1v0.1c0,0,0,0,0.1,0h0.1v-0.1L-188-18.4z"/>
		<path id="路径_88" class="st1" d="M-187.7-18c0-0.1,0-0.2,0-0.2c0-0.1,0-0.2,0-0.3c0-0.1,0-0.2,0-0.3c0-0.1,0-0.2,0-0.2
			s0,0,0.1,0l0,0l0,0c0,0,0,0,0.1,0c0,0.1,0,0.2,0,0.2c0,0.1,0,0.2,0,0.3c0,0.1,0,0.2,0,0.3c0,0.1,0,0.2,0,0.2l0,0c0,0,0,0-0.1,0
			C-187.6-18.1-187.6-18.1-187.7-18C-187.6-18-187.6-18-187.7-18z"/>
		<path id="路径_89" class="st1" d="M-187.3-18.6L-187.3-18.6L-187.3-18.6C-187.4-18.6-187.4-18.6-187.3-18.6
			C-187.4-18.6-187.4-18.6-187.3-18.6C-187.4-18.7-187.4-18.7-187.3-18.6C-187.4-18.7-187.4-18.7-187.3-18.6L-187.3-18.6
			C-187.3-18.7-187.3-18.7-187.3-18.6L-187.3-18.6C-187.3-18.7-187.3-18.7-187.3-18.6c0-0.1,0-0.1,0-0.1s0,0,0-0.1c0,0,0,0,0-0.1
			h0.1h0.1l0,0c0,0.1,0,0.1,0,0.1v0.1l0,0c0,0,0,0,0.1,0s0,0,0.1,0l0,0l0,0l0,0l0,0l0,0h-0.1l0,0c0,0.1,0,0.2,0,0.2v0.1
			c0,0.1,0,0.1,0,0.2c0,0,0,0,0.1,0h0.1l0,0v0.1h-0.1c0,0,0,0-0.1,0h-0.1v-0.1c0,0,0,0,0-0.1C-187.3-18.4-187.3-18.5-187.3-18.6
			L-187.3-18.6z"/>
		<path id="路径_90" class="st1" d="M-186.9-18c0,0,0-0.1,0-0.2s0-0.2,0-0.3c0-0.1,0-0.3,0-0.3c0-0.1,0-0.1,0-0.2c0,0,0,0,0.1,0
			l0,0l0,0c0,0,0,0,0.1,0v0.1v0.1v0.2c0-0.1,0.1-0.1,0.2-0.1h0.1h0.1c0,0,0,0,0,0.1v0.1c0,0,0,0,0,0.1v0.1v0.1v0.1c0,0,0,0-0.1,0
			s0,0,0,0l0,0c0,0,0,0-0.1,0v-0.1c0,0,0-0.1,0-0.2s0-0.1,0-0.2h-0.1c0,0-0.1,0-0.1,0.1s0,0.1,0,0.2v0.1c0,0.1,0,0.1,0,0.2
			C-186.7-18-186.7-18-186.9-18C-186.7-18-186.7-18-186.9-18C-186.8-18-186.8-18-186.9-18C-186.8-18-186.8-18-186.9-18z"/>
		<path id="路径_91" class="st1" d="M-195.8-16.5v-0.2v-0.1l0.1-0.6l0,0l0,0l0,0l0,0c0,0.1,0.1,0.2,0.2,0.3s0.1,0.2,0.2,0.3
			c0.1-0.1,0.1-0.2,0.2-0.3c0.1-0.1,0.1-0.2,0.2-0.3l0,0l0,0l0,0l0,0l0.1,0.6c0,0.1,0,0.1,0,0.2v0.1h-0.1c0,0,0,0-0.1,0
			c0,0,0,0-0.1,0s0,0-0.1,0l0,0c0-0.1,0-0.2,0-0.2v-0.4c-0.1,0.1-0.1,0.2-0.2,0.3c-0.1,0.1-0.1,0.2-0.2,0.3l0,0l0,0l0,0l0,0
			c-0.1-0.1-0.1-0.2-0.2-0.3c0-0.1-0.1-0.2-0.1-0.3v0.3l0,0c0,0.1,0,0.2,0,0.3C-195.7-16.5-195.8-16.5-195.8-16.5L-195.8-16.5
			L-195.8-16.5L-195.8-16.5z"/>
		<path id="路径_92" class="st1" d="M-194.3-16.6L-194.3-16.6c-0.1,0.1-0.1,0.1-0.2,0.1c0,0-0.1,0-0.1-0.1c0,0-0.1-0.1,0-0.1v-0.1
			l0.1-0.1h0.1c0.1,0,0.1,0,0.1-0.1l0,0l0,0v-0.1h-0.1h-0.1c0,0-0.1,0-0.1,0.1c0,0,0,0,0-0.1l0,0l0.1-0.1h0.1c0.1,0,0.1,0,0.2,0.1
			c0,0,0.1,0.1,0.1,0.2l0,0v0.2l0,0v0.1c0,0,0,0,0.1,0l0,0l0,0c0,0,0,0-0.1,0c0,0,0,0-0.1,0C-194.2-16.5-194.2-16.5-194.3-16.6
			L-194.3-16.6z M-194.3-16.9c0,0-0.1,0-0.1,0.1v0.1v0.1c0,0,0,0,0.1,0h0.1v-0.1L-194.3-16.9z"/>
		<path id="路径_93" class="st1" d="M-193.8-16.5L-193.8-16.5C-193.8-16.5-193.9-16.5-193.8-16.5c-0.1-0.1-0.1-0.1-0.1-0.1v-0.1
			l0.1-0.1l0,0c0,0-0.1,0-0.1-0.1V-17c0-0.1,0-0.1,0.1-0.2c0.1,0,0.1-0.1,0.2-0.1c0,0,0,0,0.1,0s0.1,0,0.1,0h0.1h0.1v0.1h-0.1l0,0
			c0,0,0,0,0.1,0.1v0.1c0,0.1,0,0.1-0.1,0.2c-0.1,0-0.1,0.1-0.2,0.1l0,0l0,0l0,0c0,0,0.1,0.1,0.2,0.1l0,0l0,0c0.1,0,0.1,0,0.2,0
			c0,0,0,0,0.1,0.1v0.1c0,0.1,0,0.2-0.1,0.2c-0.1,0.1-0.2,0.1-0.3,0.1s-0.1,0-0.2,0l-0.1-0.1v-0.1
			C-193.9-16.5-193.9-16.5-193.8-16.5z M-193.8-16.5L-193.8-16.5c-0.1,0.1-0.1,0.2,0,0.2h0.1c0.1,0,0.1,0,0.1,0l0.1-0.1v-0.1h-0.1
			H-193.8z M-193.8-17v0.1c0,0,0.1,0.1,0.1,0l0,0V-17v-0.1c0,0,0,0-0.1,0h-0.1C-193.8-17.1-193.8-17-193.8-17L-193.8-17z"/>
		<path id="路径_94" class="st1" d="M-192.9-16.6L-192.9-16.6c-0.1,0.1-0.1,0.1-0.2,0.1c0,0-0.1,0-0.1-0.1c0,0-0.1-0.1,0-0.1v-0.1
			l0.1-0.1h0.1c0.1,0,0.1,0,0.1-0.1l0,0l0,0v-0.1h-0.1h-0.1c0,0-0.1,0-0.1,0.1c0,0,0,0,0-0.1l0,0l0.1-0.1h0.1c0.1,0,0.1,0,0.2,0.1
			c0,0,0.1,0.1,0.1,0.2l0,0v0.2l0,0v0.1c0,0,0,0,0.1,0l0,0l0,0c0,0,0,0-0.1,0c0,0,0,0-0.1,0C-192.8-16.5-192.8-16.5-192.9-16.6
			L-192.9-16.6z M-192.9-16.9c0,0-0.1,0-0.1,0.1v0.1v0.1c0,0,0,0,0.1,0h0.1v-0.1L-192.9-16.9z"/>
		<path id="路径_95" class="st1" d="M-192.6-16.5L-192.6-16.5c0.1-0.1,0.1-0.2,0.2-0.4l0.1-0.2h-0.1l0,0c0,0-0.1,0-0.2,0l0,0l0,0
			l0,0l0,0l0,0h0.1h0.1c0.1,0,0.1,0,0.1,0h0.1l0,0c0,0-0.1,0.1-0.1,0.2c-0.1,0.1-0.1,0.2-0.2,0.4h0.1l0,0h0.1h0.1l0,0l0,0l0,0l0,0
			h-0.1c0,0-0.1,0-0.2,0C-192.6-16.5-192.6-16.5-192.6-16.5C-192.5-16.5-192.6-16.5-192.6-16.5z"/>
		<path id="路径_96" class="st1" d="M-191.9-17.4C-191.9-17.5-191.9-17.5-191.9-17.4c0-0.1,0.1-0.1,0.1-0.1h0.1c0,0,0,0,0,0.1v0.1
			c0,0,0,0-0.1,0S-191.9-17.4-191.9-17.4L-191.9-17.4L-191.9-17.4z M-191.9-16.5c0-0.1,0-0.1,0-0.2s0-0.1,0-0.1c0-0.1,0-0.1,0-0.2
			s0-0.1,0-0.2l0,0h0.1h0.1l0,0c0,0.1,0,0.1,0,0.2s0,0.1,0,0.2v0.1c0,0,0,0.1,0,0.2c0,0,0,0-0.1,0S-191.8-16.5-191.9-16.5
			C-191.8-16.5-191.8-16.5-191.9-16.5L-191.9-16.5L-191.9-16.5z"/>
		<path id="路径_97" class="st1" d="M-191.5-16.5c0-0.1,0-0.1,0-0.2s0-0.1,0-0.2s0-0.1,0-0.2s0-0.1,0-0.2l0,0l0,0l0,0l0,0v0.1
			l0.1-0.1h0.1h0.1h0.1c0,0,0,0,0,0.1v0.1c0,0,0,0,0,0.1v0.1v0.1v0.1c0,0,0,0-0.1,0s0,0,0,0l0,0c0,0,0,0-0.1,0v-0.1c0,0,0-0.1,0-0.2
			s0-0.1,0-0.2h-0.1c0,0-0.1,0-0.1,0.1s0,0.1,0,0.2v0.1c0,0.1,0,0.1,0,0.2l0,0C-191.5-16.6-191.4-16.5-191.5-16.5L-191.5-16.5
			L-191.5-16.5z"/>
		<path id="路径_98" class="st1" d="M-190.6-16.9c0,0.1,0,0.1,0.1,0.2c0,0,0.1,0.1,0.2,0.1h0.1h0.1l0,0v0.1h-0.1h-0.1
			c-0.1,0-0.2,0-0.2-0.1C-190.6-16.7-190.6-16.8-190.6-16.9c0-0.1,0-0.2,0.1-0.2c0.1-0.1,0.1-0.1,0.2-0.1c0.1,0,0.2,0,0.2,0.1
			c0.1,0.1,0.1,0.1,0.1,0.2l0,0l0,0L-190.6-16.9z M-190.6-16.9h0.2l0,0l0,0V-17c0,0,0,0-0.1,0C-190.5-17-190.6-17-190.6-16.9
			C-190.6-17-190.6-17-190.6-16.9L-190.6-16.9z"/>
	</g>
	<g id="组_21" transform="translate(45.997 5.264)">
		<path id="路径_99" class="st1" d="M-192.9-9.2v0.1h-1.1v0.2h-0.3v-1.7c0,0.1-0.1,0.1-0.1,0.2l-0.1-0.1c0-0.1,0.1-0.2,0.1-0.2
			l-0.1,0.1c0-0.1-0.1-0.2-0.2-0.3c-0.1,0.1-0.1,0.2-0.2,0.3h0.1v0.3h0.5v0.1h-0.5v0.1c0.2,0.1,0.4,0.2,0.5,0.3l-0.2,0.2
			c-0.1-0.1-0.2-0.3-0.3-0.4v0.9h-0.3v-0.8c-0.2,0.2-0.4,0.4-0.6,0.6l-0.1-0.1c0.3-0.2,0.5-0.5,0.6-0.9h-0.5v-0.1h0.6v-0.3h0.1
			c0.1-0.3,0.2-0.5,0.2-0.8l0.3,0.1c0,0.1,0,0.2-0.1,0.3c0.1,0.1,0.2,0.1,0.3,0.2c0.1-0.4,0.2-0.7,0.2-1.1l0.3,0.1
			c0,0.2-0.1,0.4-0.1,0.6h1v0.1h-0.4v0.4h0.4v0.1h-0.4v0.5h0.4v0.1h-0.4v0.5L-192.9-9.2z M-195.7-10.3L-195.7-10.3
			c0.1-0.4,0.2-0.7,0.2-1l0.3,0.1c0,0.1-0.1,0.2-0.1,0.3c0.1,0.1,0.2,0.2,0.3,0.3l-0.2,0.2c-0.1-0.1-0.1-0.2-0.2-0.3
			C-195.4-10.6-195.5-10.4-195.7-10.3L-195.7-10.3z M-194.3-11.2h-1.4v-0.1h0.7c-0.1-0.1-0.2-0.2-0.3-0.3v-0.1
			c0.2,0.1,0.4,0.1,0.5,0.2l-0.1,0.2h0.6V-11.2z M-193.7-11h-0.3v0.4h0.3V-11z M-193.7-10.4h-0.3v0.5h0.3V-10.4z M-193.7-9.8h-0.3
			v0.5h0.3V-9.8z M-193.6-11.1c0-0.2-0.1-0.4-0.2-0.6l0.1-0.1c0.1,0.2,0.2,0.3,0.3,0.5L-193.6-11.1z"/>
		<path id="路径_100" class="st1" d="M-191.2-11.1h-1.1v-0.1h0.5c-0.1-0.2-0.2-0.4-0.3-0.5l0.1-0.1c0.2,0.1,0.3,0.3,0.5,0.4
			l-0.2,0.1h0.5V-11.1z M-192.1-10.7v-0.1h0.9v0.1H-192.1z M-191.2-10.2h-0.9v-0.1h0.9V-10.2z M-190.9-9.9h0.1
			c0,0.3-0.1,0.6-0.2,0.8l-0.2-0.2v0.4h-0.2v-0.2h-0.4v0.2h-0.2V-10h0.9v0.6C-191.1-9.4-191-9.7-190.9-9.9z M-191.5-9.8h-0.4v0.6
			h0.4V-9.8z M-190.4-11.1h-0.7v-0.1h0.7v-0.5h0.3v0.5h0.7v0.1h-0.7v0.5h0.6v0.1h-1.5v-0.1h0.6L-190.4-11.1L-190.4-11.1z
			 M-189.9-9.6c0.1,0.5,0.2,0.7-0.3,0.7s-0.5,0-0.5-0.4v-0.8h0.3v0.8c0,0.1,0,0.2,0.2,0.2s0.2,0,0.2-0.5H-189.9z M-190.5-10.4
			c0.2,0.1,0.4,0.2,0.6,0.3l-0.2,0.2C-190.3-10-190.4-10.1-190.5-10.4L-190.5-10.4z M-189.4-9.4l-0.3,0.1c-0.1-0.2-0.2-0.5-0.3-0.7
			l0.1-0.1C-189.6-9.8-189.5-9.6-189.4-9.4L-189.4-9.4z"/>
	</g>
	<path id="路径_101" class="st1" d="M-150.7-3.6c-0.1-0.1-0.1-0.1-0.2-0.1l0,0l0,0l-0.1-0.1c-0.1,0-0.2,0-0.2,0
		c-0.1,0-0.2,0-0.3-0.1c-0.1,0-0.3,0-0.4,0c-0.1,0-0.1,0-0.2,0.1v0.1v0.1c0,0.2,0.1,0.3,0.1,0.5c0,0.1,0.1,0.2,0.2,0.2
		c0.1,0.1,0.1,0.1,0.2,0.2c0.1,0,0.1,0.1,0.2,0.1c0,0,0,0.1,0.1,0.1c0.1,0,0.2,0,0.3,0s0.3,0,0.4,0c0.1,0,0.1-0.1,0.2-0.1
		c0.1,0,0.1-0.1,0.1-0.1C-150.3-3-150.4-3.4-150.7-3.6z"/>
</g>
</svg>
