<?xml version="1.0" encoding="utf-8"?>
<!-- Generator: Adobe Illustrator 23.0.3, SVG Export Plug-In . SVG Version: 6.00 Build 0)  -->
<svg version="1.1" id="圖層_1" xmlns="http://www.w3.org/2000/svg" xmlns:xlink="http://www.w3.org/1999/xlink" x="0px" y="0px"
	 viewBox="0 0 352.3 68.9" style="enable-background:new 0 0 352.3 68.9;" xml:space="preserve">
<style type="text/css">
	.st0{fill:#5C3380;}
	.st1{fill:#C6286D;}
	.st2{fill:#1F8ECF;}
	.st3{fill:#FFFFFF;}
	.st4{fill:#DC5420;}
	.st5{fill:#AFBA19;}
</style>
<g id="组_123" transform="translate(-53.82 -33)">
	<path id="路径_1" class="st0" d="M370.6,71.2c0.3-3.4,2.4-10.8,2-13.6c-1.2-8.3-10.4-14.5-21.4-14.3c-0.2-0.2-0.4-0.3-0.7-0.3
		c-0.9-0.2-1.8-0.3-2.8-0.2c-2.9-0.3-5.9,0.5-8.1,2.4c-0.4,0.3-0.5,0.8-0.2,1.2c-6.9,1.9-8.3,7-8.1,12.7c-0.8,1.7-1.3,3.4-1.6,5.3
		c-0.3,1.8-0.4,3.7-0.2,5.6c-0.3,2.1-0.2,4.2,0.2,6.3c-0.9,5.3,0,10.7,3.9,14.7c3.7,3.5,8.9,4.9,13.9,3.9c0.6,0,1.4,1.2,1.9,1.1
		c3-0.3,6.5-0.8,8.7-2.6c0.6-0.1,2.2-2.2,2.7-2.5c0.4,0.2,1.1-1.4,1.6-1.7c3.5-2.5,4.7-5.4,4.9-9.5
		C369.2,77.3,371.4,74.1,370.6,71.2z M353.9,56.1C353.9,56.1,353.9,56.1,353.9,56.1C353.9,56.1,353.9,56.1,353.9,56.1
		c-0.4-0.1-0.8-0.2-1.2-0.3c0,0,0-0.1-0.1-0.1c0.2-0.1,0.3-0.2,0.5-0.3C353.4,55.6,353.6,55.9,353.9,56.1z M342.6,57.5
		c0.1,0,0.2,0.1,0.3,0.1c-0.2,0.1-0.4,0.3-0.6,0.4c-0.2-0.1-0.4-0.3-0.6-0.5C342,57.6,342.3,57.6,342.6,57.5L342.6,57.5z M340.3,60
		c-0.3,0.3-0.5,0.6-0.7,0.9c-0.3,0.2-0.7,0.4-1,0.6c-0.2-0.3-0.4-0.7-0.6-1.1c0.2-0.6,0.4-1.1,0.7-1.6
		C339.2,59.2,339.7,59.6,340.3,60L340.3,60z M350.4,52.8c0.1,0.1,0.2,0.2,0.4,0.4c0,0,0,0.1-0.1,0.1c-0.7-0.7-1.5-1.2-2.3-1.8
		c0,0,0,0,0,0C349.2,51.9,349.9,52.4,350.4,52.8L350.4,52.8z M362.9,61c-0.1-0.4-0.2-0.8-0.4-1.2c0.1,0,0.3,0,0.4,0
		C362.9,60.2,363,60.6,362.9,61C363,61,362.9,61,362.9,61L362.9,61z M334.4,79.1c0.4,0.9,0.9,1.7,1.5,2.5c-0.6-0.6-1.1-1.2-1.5-1.8
		C334.4,79.5,334.4,79.3,334.4,79.1L334.4,79.1z M341.5,86.8c-0.1,0.5-0.2,1.1-0.3,1.6c-0.2-0.5-0.3-1.1-0.3-1.7
		C341.1,86.8,341.3,86.8,341.5,86.8L341.5,86.8z M334.5,87.7c0.8,1.1,1.7,2,2.7,2.9C336.1,89.9,335.2,88.9,334.5,87.7L334.5,87.7z"
		/>
	<g id="组_2" transform="translate(207.7 46.391)">
		<path id="路径_3" class="st1" d="M53.1,22.4c-0.7-2.7-2-5.1-3.9-7.1c-1.1-1.6-2.7-2.8-4.5-3.4C41.9,8.7,38.1,6.6,34,5.7
			C30.3,3.8,26,3.4,22,4.4C10.7,7.2,3.9,20.5,6.1,31.6c1,4.8,4,9,8.2,11.6c0.5,1,1.2,1.9,2,2.7c1.3,2.3,3.5,4.1,6,5
			c4,1.3,8.4,0.8,12-1.6c0.1,0,0.1,0,0.2,0c2.8,0,5.7-1.3,6.8-3.8c2.7-1,5.2-2.7,7.1-4.8c0.7-0.9,1.3-1.9,1.7-3
			C54.6,34.6,54.4,27.4,53.1,22.4z M36.4,15.4c0,0.4,0.1,0.8,0.1,1.2c-0.2-0.1-0.3-0.2-0.5-0.3c0.1-0.4,0.1-0.8,0.1-1.2
			C36.2,15.2,36.3,15.3,36.4,15.4L36.4,15.4z M37.1,31.6c-0.4-0.3-0.8-0.6-1.2-0.8c0-0.1-0.1-0.3-0.1-0.5c0.2-0.2,0.4-0.4,0.6-0.6
			C36.7,30.4,36.9,31,37.1,31.6L37.1,31.6z M38.2,22c-0.3-0.4-0.6-0.8-0.9-1.2c0.1-0.1,0.3-0.1,0.4-0.2c0.2,0.4,0.4,0.8,0.5,1.2
			C38.3,21.9,38.2,22,38.2,22L38.2,22z M26,19.4c0-0.3-0.1-0.6-0.1-0.8c0.1,0,0.3,0.1,0.4,0.1C26.2,19,26.1,19.2,26,19.4L26,19.4z
			 M29.3,11.9c-0.3-0.2-0.6-0.5-0.8-0.7c0.2-0.1,0.3-0.2,0.5-0.3C29.1,11.2,29.2,11.5,29.3,11.9z M20.8,19.6
			c-0.1-0.1-0.1-0.2-0.2-0.3c0.3-0.8,0.6-1.6,0.9-2.4c0-0.1,0.1-0.2,0.2-0.3C21.3,17.6,21,18.6,20.8,19.6L20.8,19.6z M13.8,21.5
			c0.5-0.2,0.8-0.7,0.8-1.2c0-0.8,0.1-1.6,0.3-2.3c-0.3,2.1-0.3,4.1-0.1,6.2c-0.1-0.1-0.3-0.1-0.4-0.2
			C14.1,23.2,13.9,22.3,13.8,21.5L13.8,21.5z M10.2,35.3c0.6,0.7,1.2,1.4,1.6,1.9c0.5,0.5,1,1,1.5,1.5c0.1,0.2,0.2,0.4,0.3,0.5
			c0,0.1,0,0.2,0,0.3C12.2,38.4,11.1,36.9,10.2,35.3L10.2,35.3z M24.6,48.8c0.5,0,0.9-0.1,1.4-0.1c0.2,0.1,0.4,0.2,0.6,0.3
			C25.9,49,25.2,49,24.6,48.8L24.6,48.8z"/>
	</g>
	<g id="组_3" transform="translate(254.532 38.715)">
		<path id="路径_4" class="st2" d="M40.9,32.5c0.3-3.2,0.2-6.5-0.2-9.7c-1.1-8.3-5.8-18.6-15.5-18.4c-0.2-0.2-0.4-0.3-0.6-0.3
			c-0.8-0.2-1.6-0.3-2.5-0.2c-2.7-0.3-5.3,0.6-7.2,2.4c-0.3,0.3-0.4,0.8-0.2,1.2c-6.2,1.9-7.3,7-7.2,12.8c-0.7,1.7-1.1,3.5-1.4,5.3
			c-0.3,1.9-0.3,3.7-0.2,5.6c-0.2,2.1-0.2,4.3,0.2,6.4C5.2,43,6,48.5,9.5,52.4c3.1,3.4,7.8,5,12.3,4c0.5,0,1-0.1,1.5-0.3
			c2.7-0.3,5.2-1.5,7.2-3.3c0.5-0.1,1-0.3,1.4-0.6c0.4,0.2,0.9,0.1,1.2-0.2c3.1-2.5,6.1-6.8,6.4-11C41.1,38.5,41.6,35.5,40.9,32.5z
			 M27.5,17.3C27.5,17.3,27.5,17.3,27.5,17.3L27.5,17.3c-0.4-0.1-0.7-0.2-1.1-0.3c0,0,0-0.1,0-0.1c0.1-0.1,0.3-0.2,0.4-0.3
			C27,16.8,27.2,17,27.5,17.3L27.5,17.3z M17.5,18.7c0.1,0,0.2,0.1,0.2,0.1c-0.2,0.1-0.4,0.3-0.5,0.4c-0.2-0.1-0.3-0.3-0.5-0.5
			C16.9,18.8,17.2,18.7,17.5,18.7L17.5,18.7z M15.4,21.2c-0.2,0.3-0.5,0.6-0.7,1c-0.3,0.2-0.6,0.4-0.9,0.6c-0.2-0.4-0.4-0.7-0.5-1.1
			c0.2-0.6,0.4-1.1,0.6-1.6C14.4,20.4,14.9,20.9,15.4,21.2L15.4,21.2z M11.6,30.6c0-0.4,0.1-0.7,0.1-1.1c0.1-0.1,0.1-0.2,0.2-0.3
			c0.1,0,0.1,0,0.2-0.1c-0.1,0.6-0.2,1.1-0.2,1.7c-0.1,0.1-0.2,0.2-0.2,0.2C11.6,30.9,11.6,30.7,11.6,30.6L11.6,30.6z M24.4,14
			c0.1,0.1,0.2,0.2,0.3,0.4c0,0,0,0.1-0.1,0.1c-0.6-0.7-1.3-1.2-2.1-1.8c0,0,0,0,0,0C23.3,13.1,23.9,13.6,24.4,14L24.4,14z
			 M35.5,22.2c-0.1-0.4-0.2-0.8-0.4-1.2c0.1,0,0.2,0,0.4,0C35.5,21.4,35.5,21.8,35.5,22.2C35.5,22.2,35.5,22.2,35.5,22.2L35.5,22.2z
			 M10.2,40.4c0.4,0.9,0.8,1.7,1.4,2.5c-0.5-0.6-1-1.2-1.4-1.8C10.2,40.9,10.2,40.7,10.2,40.4L10.2,40.4z M16.5,48.2
			c-0.1,0.5-0.2,1.1-0.3,1.6c-0.1-0.5-0.2-1.1-0.2-1.7C16.1,48.2,16.3,48.2,16.5,48.2L16.5,48.2z M12.2,47c0.4,0.2,0.9,0.4,1.4,0.6
			c0,0.6,0,1.3,0.1,1.9c-0.5-0.5-0.9-1.1-1.3-1.7c-0.2-0.4-0.5-0.7-0.7-1.1C11.8,46.8,12,46.9,12.2,47L12.2,47z M10.2,49.2
			c0.7,1.1,1.5,2,2.4,2.9C11.7,51.3,10.8,50.3,10.2,49.2L10.2,49.2z"/>
	</g>
	<g id="组_6" transform="translate(141.291 47.267)">
		<path id="路径_12" class="st3" d="M29,18.1c-1.7-3-3.7-5.9-6-8.5c-0.2-0.2-0.4-0.3-0.6-0.3c0-0.1,0-0.2,0-0.2
			c0-1.5-2.2-1.3-2.3,0.2c0.1,2.6,1.1,5.1,2.8,7c-3.8,0.1-7.6,0.4-11.4,0.2c0-0.1,0.1-0.1,0.1-0.2c1.4-2.9,2.9-5.8,4.2-8.8
			c0.1-0.3,0.1-0.6,0-0.9c0.3-0.3,0.6-0.7,0.9-1c1-1.1-0.8-2.5-1.7-1.4c-3.3,3.5-5.8,7.2-6.8,12c-0.3,0-0.6-0.1-0.9-0.1
			c-0.4-0.1-0.8,0.1-1,0.3c-0.6,0.4-0.7,1.2-0.3,1.7c0.1,0.1,0.2,0.2,0.4,0.3c5.8,3.4,13.2,2.7,19.4,0.7c0.2,0.2,0.4,0.3,0.6,0.5
			c0.3,0.3,0.8,0.3,1.2,0.1c0.6,0.3,1.3,0.1,1.6-0.5C29.2,18.9,29.2,18.5,29,18.1z"/>
		<path id="路径_13" class="st3" d="M24.4,32.7c1.1-3.5,1.2-7.3,0.2-10.8c-0.4-1.2-2-0.8-2.2,0.3c-3.2-0.5-6.4-0.4-9.5,0.4
			c-0.4-1-2.2-0.7-2.2,0.6c0,3.3-0.4,6.6-0.3,10c-1,0.1-1.6,1.7-0.4,2.1c4.6,1.9,9.6,1.4,14.1-0.5c0.6-0.3,0.9-1,0.6-1.6
			C24.7,33,24.5,32.8,24.4,32.7z M13.7,25.5c2.6,0,5.3-0.1,7.9-0.5c-0.7,2.3-0.9,4.7-0.7,7.1c-2.4-0.4-4.9-0.4-7.3-0.1
			C14,29.9,14.1,27.7,13.7,25.5L13.7,25.5z M14.9,34.1c1-0.1,1.9-0.1,2.9,0C16.9,34.2,15.9,34.2,14.9,34.1L14.9,34.1z"/>
	</g>
	<g id="组_121">
		<g id="组_1" transform="translate(286.797 42.898)">
			<path id="路径_2" class="st4" d="M47.4,27.5c0-0.3-0.1-0.6-0.3-0.8c0-0.5,0.1-1,0.1-1.4c0.4-13.7-11.4-21.6-23-21.3
				c-2.3,0.1-4.6,0.6-6.7,1.5c-4.8,0.5-8,4.1-9.8,8.8c-1.5,2.9-2.2,6.2-2,9.5C5.6,26.2,5.7,28.6,6,31c0.4,3.2,1.8,6.2,4,8.6
				c0.6,8.5,11.9,8.7,17.7,7.4c2.1-0.5,4.2-1.2,6.1-2.2C42,42.6,48.5,36.9,47.4,27.5z M20.8,20.7c0,0.1,0,0.3,0,0.4
				c-0.7,0.5-1.4,1.1-2,1.8c0-0.4,0.1-0.8,0.2-1.2C19.6,21.3,20.2,21,20.8,20.7L20.8,20.7z M24.6,15.8c-0.5,0.2-0.9,0.4-1.4,0.6
				c0-0.2,0-0.3,0-0.5C23.6,15.8,24,15.8,24.6,15.8C24.6,15.7,24.6,15.7,24.6,15.8L24.6,15.8z M41.4,27.1c-0.1,0-0.2,0.1-0.3,0.1
				c1-3.2,0.9-6.5-0.1-9.7c0.2,0.4,0.3,0.8,0.4,1.3C42.2,21.5,42.2,24.4,41.4,27.1L41.4,27.1z M21.4,8.8c0.4-0.2,0.9-0.2,1.3,0
				c-0.3,0.3-0.6,0.6-0.8,1c-1.3,0.4-2.5,1-3.6,2c-0.1,0-0.3,0.1-0.4,0.1c0.1-0.2,0.2-0.4,0.3-0.5C19.3,10.5,20.4,9.7,21.4,8.8
				L21.4,8.8z M18.4,35.4l0.2-0.1c0.1,0,0.2,0,0.3,0c0.4,0,0.7,0.1,1.1,0.1c-0.2,0.2-0.3,0.5-0.5,0.7C19.1,35.9,18.7,35.7,18.4,35.4
				L18.4,35.4z M27.7,8.9c-0.5-0.3-1-0.6-1.5-0.8c0,0,0,0,0-0.1c0.9,0.1,1.7,0.3,2.5,0.6C28.4,8.7,28,8.8,27.7,8.9L27.7,8.9z
				 M10.8,30.2c0.4,0.9,1,1.8,1.7,2.5c0.1,0.1,0.1,0.3,0.2,0.4C11.4,32.7,10.6,31.5,10.8,30.2L10.8,30.2z M24.3,40.8
				c3.6,0.5,7.3-0.1,10.6-1.7c-0.2,0.3-0.5,0.5-0.7,0.8C31.1,41.1,27.7,41.4,24.3,40.8z M39.3,36.8c0.1-0.4,0.3-0.8,0.4-1.2
				c0.6-0.7,1.2-1.4,1.7-2.2c-0.5,1.1-1.1,2.2-1.8,3.2C39.5,36.7,39.4,36.8,39.3,36.8L39.3,36.8z"/>
		</g>
		<g id="组_4" transform="translate(53.82 46.244)">
			<path id="路径_5" class="st3" d="M24.1,7c0-0.6-0.3-1.1-0.8-1.3c-0.2-0.6-0.8-1-1.4-0.8c-0.2,0.1-0.4,0.2-0.6,0.4
				c-3.5,4.5-8.7,8.5-14.6,8.9c-1.5,0.1-1.3,2.3,0.2,2.3c3.7,0,8.1-0.2,11.6-1.7c-1.7,4-6.3,6.6-10.4,7.5c-1,0.2-1.6,1.7-0.4,2.2
				c2.3,1,5,1.1,7.3,0.1c-0.5,4.7-1.2,9.3,1.5,13.6c0.4,0.5,1.1,0.6,1.6,0.2c0.2-0.2,0.4-0.4,0.4-0.7c1-5.1,0.8-10.3-0.7-15.3
				c1.6-1.9,2.7-4.1,3.3-6.5c0.2-0.5-0.1-1-0.5-1.2c0,0-0.1,0-0.1,0c-0.2-0.3-0.4-0.5-0.7-0.6C22.4,12.5,24,9.9,24.1,7z M16.9,32.7
				c-0.2-1.4-0.3-2.9-0.1-4.3C16.9,29.8,16.9,31.3,16.9,32.7z"/>
			<path id="路径_6" class="st3" d="M39.8,7c-0.2-0.6-0.9-0.9-1.5-0.7c-0.3,0.1-0.5,0.3-0.6,0.6c-1.4,2.6-1.9,5.5-1.6,8.3
				c-1.1,0-2.2-0.1-3.4-0.3c1.1-3.4,0.8-7.1-0.7-10.4c-0.6-1.3-2.7-0.6-2.1,0.8C30,5.4,30,5.6,30.1,5.7c-0.3,0.2-0.5,0.6-0.5,0.9
				c0,2.6-0.3,5.3-0.3,7.9c-0.8-0.1-1.6-0.2-2.4-0.3c0-1-0.1-2.1-0.3-3.1c0-0.2-0.1-0.4-0.3-0.6c0.1-1.4-2.1-1.8-2.2-0.3
				c-0.3,3.1-1,6.2-0.5,9.3c0.1,0.6,0.6,1.1,1.3,1c0.4,0,0.7-0.3,0.9-0.6c0.3-0.5,0.6-1.1,0.7-1.7c3.8,0,7.6,0.2,11.3,0.3
				c0.2,0,0.4-0.1,0.6-0.2c0.6,0.3,1.4,0.1,1.7-0.6c0.1-0.2,0.1-0.3,0.1-0.5C40.1,13.9,41.2,10.2,39.8,7z"/>
			<path id="路径_7" class="st3" d="M41,26.9c-2,1.3-3.9,2.7-5.7,4.2c-0.3-1.5-0.3-3.1-0.2-4.7c0-0.3-0.1-0.6-0.4-0.8
				c1.4-0.3,2.8-0.9,3.9-1.9c0.5-0.4,0.6-1.1,0.2-1.6c-0.2-0.2-0.4-0.4-0.7-0.4c-4.5-1.1-9.1-0.1-13.6,0c-0.6,0-1.1,0.6-1,1.2
				c0,0.3,0.1,0.6,0.4,0.7c0.1,0.4,0.4,0.8,0.8,0.9c1,0.3,2.1,0.6,3.3,0.9c-0.1,2.1-0.7,4.1-1.9,5.9c-0.2,0.3-0.9,1.4-1.5,1.2
				c-1.1-0.4-1.6-2.4-1.9-3.5c0,0,0-0.1,0-0.1c0,0,0,0,0,0c-0.1-0.5-0.6-0.8-1.2-0.7c0,0,0,0,0,0c-0.5,0-0.9,0.4-1,0.9
				c-0.5,3.3,1.2,10,5.7,8.4c3.7-1.3,3.9-8.1,3.9-11.3c0-0.1,0-0.2-0.1-0.3c0,0,0-0.1,0-0.1c0.6,0.1,1.2,0.1,1.7,0.1
				c-0.1,3.3-0.7,9.3,3.3,10c4.1,0.7,7.3-4.5,7.5-8.1C42.8,26.8,41.6,26.5,41,26.9z M26.2,34.6c-0.8,1.2-1.7,0.7-2.4-0.2
				c1,0.4,2.1,0.2,2.8-0.5C26.5,34.1,26.4,34.4,26.2,34.6L26.2,34.6z M33.9,23.4c-1,0.2-1.9,0.2-2.9,0.1
				C32,23.4,32.9,23.4,33.9,23.4z M35.6,33.6c1.3-0.9,2.6-2,3.8-2.9C38.4,32.4,36.9,34.2,35.6,33.6L35.6,33.6z"/>
			<path id="路径_8" class="st3" d="M55.6,26.4c-1.2,0-2.4-0.3-3.5-0.9c1.8-2.4,2.8-5.2,3.1-8.2c0.1-0.6-0.3-1.2-0.9-1.3
				c-2.3-0.6-4.6-0.8-7-0.8c-0.2-0.1-0.3-0.1-0.5-0.2h0c0.9-2.7,0.8-5.7-0.2-8.4c-0.2-0.6-0.9-0.9-1.5-0.6c-0.6,0.2-0.9,0.8-0.7,1.4
				c0.1,0.4,0.2,0.7,0.3,1.1c-0.2,0.2-0.4,0.4-0.4,0.7c-0.4,3.1-1.4,6.1-3.1,8.8c-0.7,1.2,1.1,2.1,1.9,1.1c0.3,0,0.6,0,0.8-0.2
				c0.5-0.4,1-0.9,1.4-1.4c0.5,0,0.9,0,1.4,0c1.2,0.5,2.3,1,3.4,1.5c-0.2,1.4-0.6,2.8-1.1,4.1c-0.7-0.9-1.2-2-1.4-3.2
				c0-0.3-0.3-0.6-0.5-0.7c-0.4-0.9-2.1-0.6-2.2,0.6c-0.1,2.5,0.8,5,2.4,6.9c-0.3,0.4-0.5,0.9-0.8,1.3c-0.1,0.1-0.1,0.2-0.2,0.3
				c-0.4,0.4-0.8,0.7-1.2,1c-1.1,0.9,0.2,2.8,1.3,1.9c1-0.8,2-1.7,2.9-2.6c1.6,1.2,3.6,2,5.6,2.3c1.4,0.2,1.8-2,0.4-2.2
				c-0.7-0.1-1.3-0.2-2-0.5c0.8,0.2,1.6,0.3,2.4,0.3C57.2,28.7,57,26.4,55.6,26.4z"/>
		</g>
		<g id="组_5" transform="translate(105.796 44.958)">
			<path id="路径_9" class="st3" d="M21.3,10.8C19.7,8.4,18,6.2,16,4.2c-0.3-0.4-0.9-0.4-1.3-0.1c0,0-0.1,0.1-0.1,0.1
				c-0.3-0.1-0.7-0.1-1,0.2c-2,1.6-4.1,3-6.4,4.1C7,8.6,6.8,8.8,6.7,9c-1.4,0.3-1.2,2.5,0.2,2.2c1.9-0.4,3.7-1.1,5.3-2.2
				c-0.4,2-0.4,4-0.2,6c0.1,0.6,0.6,1.1,1.3,1c0.4,0,0.7-0.3,0.9-0.6c0.6-2,1.1-3.9,1.6-6c1,1.5,2.6,2.7,4.4,3.1
				C21.2,12.8,21.7,11.6,21.3,10.8z"/>
			<path id="路径_10" class="st3" d="M39.9,10.6c-2.5-2.4-5.5-4-8.5-5.7c-0.4-0.3-1-0.2-1.3,0.2c0,0,0,0.1-0.1,0.1c0,0,0,0-0.1,0
				l-8,6.4c-1.1,0.9,0.1,2.6,1.2,1.9c0.3,0.3,0.7,0.5,1.2,0.3c1.8-0.5,3.5-1.4,5-2.7c-0.1,1.5-0.2,3.1-0.1,4.6
				c0.1,0.6,0.6,1.1,1.2,1c0.3,0,0.6-0.2,0.8-0.4c1.1-1.5,1.9-3.3,2.2-5.1c1.8,1.3,4,1.7,6.1,1.2c0.6-0.2,0.9-0.9,0.7-1.5
				C40.2,10.9,40.1,10.7,39.9,10.6z"/>
			<path id="路径_11" class="st3" d="M34,32.3c-1.4,0.8-5.9,6-7.5,3.9c-0.8-1-0.8-2.8-0.9-4c-0.1-0.8-0.1-1.6-0.1-2.5
				c3,0.1,6-0.4,8.8-1.5c0.6-0.2,0.9-0.9,0.7-1.5c-0.1-0.3-0.3-0.5-0.6-0.6c-4.1-1.3-8.4-1.9-12.6-1.7c0,0,0,0,0,0
				c0-0.2,0-0.4-0.1-0.6c0.1-0.3,0.2-0.6,0.3-1c2.8,0.1,5.5-1.2,7.3-3.5c0.4-0.5,0.3-1.2-0.2-1.6c-0.2-0.2-0.5-0.3-0.8-0.2
				c-5.1-0.2-10.3,0.7-15.4,0c-0.4-0.1-0.8,0.1-1.1,0.5c-0.5,0.3-0.6,1-0.3,1.6c0.1,0.2,0.3,0.3,0.4,0.4c2.2,1.2,4.6,2.1,7,2.6
				c0,0.7-0.1,1.3-0.2,2c-2.9,0.1-5.7,0.4-8.5,0.4c-0.1,0-0.1,0-0.2,0c-0.2,0-0.3,0-0.5,0c-1.5,0-1.3,2.3,0.2,2.3h0.3
				c2.3,0.5,4.6,1,7,1.5c-0.3,0.5-0.5,1-0.8,1.4c-0.8,1.5-2,2.8-3.5,3.8c-1.7,1-3.1-0.6-4-1.9c-0.4-0.5-1.1-0.6-1.6-0.2
				c-0.3,0.2-0.5,0.6-0.5,1c0,2,0.4,4.1,2.4,4.9c0.1,0,0.1,0,0.2,0.1c0.9,1.1,2.3,1.7,3.7,1.8c1.8,0.1,3.4-1.6,4.4-2.9
				c1.6-2.2,2.7-4.7,3.5-7.3c0.6,0.1,1.3,0.2,1.9,0.2c-0.5,0.1-0.9,0.6-0.8,1.1c0,3.3,1.1,9.6,5.2,10.3c4.2,0.7,8.2-3.7,8.7-7.6
				c0.1-0.6-0.3-1.2-1-1.3C34.6,32.1,34.3,32.1,34,32.3z M29.6,27.1c-0.5,0.1-1,0.2-1.5,0.2c0-0.2,0-0.3-0.1-0.5
				C28.5,26.9,29,27,29.6,27.1L29.6,27.1z M24.9,19.7l0.5,0c-0.2,0.1-0.3,0.2-0.5,0.2C24.9,19.9,24.9,19.8,24.9,19.7z M30.7,37.7
				c-0.5,0.5-1.2,0.8-1.8,1C29.5,38.5,30.1,38.1,30.7,37.7L30.7,37.7z"/>
		</g>
		<g id="组_8" transform="translate(165.63 36.114)">
			<path id="路径_14" class="st3" d="M12.6,14.5c-0.3-0.5-0.8-0.9-1.4-1.2c-0.5-0.3-1-0.5-1.5-0.7C8.5,12.3,7.1,12,6.1,13
				c-0.4,0.6-0.5,1.3-0.3,2c0.3,0.8,0.8,1.5,1.4,2.1c0.4,0.5,1.1,0.6,1.6,0.3c0.1-0.1,0.2-0.2,0.3-0.3c0.2,0.2,0.5,0.2,0.8,0.2
				c0.8,0,1.6-0.2,2.3-0.6C12.9,16.2,13.1,15.3,12.6,14.5z M8.9,14.8c0.1,0,0.1,0,0.2,0.1c0.2,0.1,0.3,0.1,0.5,0.2
				c-0.3,0.1-0.5,0.2-0.7,0.4c-0.2-0.3-0.4-0.6-0.6-0.9c0.1,0,0.2,0,0.3,0.1S8.8,14.8,8.9,14.8L8.9,14.8z"/>
			<path id="路径_15" class="st3" d="M11.8,23.6c-0.1,0-0.3,0-0.4,0c0-0.2-0.1-0.4-0.2-0.6c-0.3-0.6-0.8-1.1-1.3-1.6
				c-0.4-0.3-1-0.3-1.4-0.1c-2,1-2,3.7-0.6,5.2c0.7,0.8,1.7,1.2,2.8,1c1.2-0.3,1.7-1.7,2-2.7C12.9,24.3,12.5,23.7,11.8,23.6z
				 M10.3,25.2C10.2,25.3,10.2,25.3,10.3,25.2L10.3,25.2c-0.1,0.1-0.1,0.1-0.1,0.2l0,0l-0.1,0l0,0c0,0-0.1,0-0.1-0.1
				c-0.1,0-0.1-0.1-0.2-0.1h0c0,0,0,0,0,0c-0.1-0.1-0.2-0.2-0.2-0.4l0,0c0-0.1-0.1-0.1-0.1-0.2s-0.1-0.3-0.1-0.3c0-0.1,0-0.2,0-0.2
				c0,0.1,0.1,0.1,0.1,0.2c0.2,0.4,0.7,0.5,1.1,0.5c0,0.1-0.1,0.2-0.1,0.3C10.3,25.1,10.3,25.1,10.3,25.2L10.3,25.2z"/>
			<path id="路径_16" class="st3" d="M12.8,32c0.3-0.6,0.2-1.3-0.4-1.6c-0.2-0.1-0.4-0.2-0.6-0.2c-2.4,0.1-4.4,1.8-4.7,4.1
				c-0.1,0.5,0.2,1,0.6,1.2c2.4,1,4.8,0,5.3-2.7C13.1,32.5,13,32.2,12.8,32z M9.7,33.6c0.1-0.2,0.2-0.3,0.4-0.4c0,0,0,0,0,0
				c0.1,0.1,0.1,0.1,0.2,0.1C10.1,33.5,9.9,33.6,9.7,33.6L9.7,33.6z"/>
			<path id="路径_17" class="st3" d="M23.3,23.3c-0.6-0.1-1.2,0.3-1.3,0.9c-0.2,0.6-0.3,1.3-0.3,2c0,0,0,0,0,0
				c-0.6,0-1.2,0-1.8,0.1c1.5-2.1,2.6-4.5,3.2-7c0-0.2,0-0.4,0-0.6c0.6-1.2-1.4-2.1-2.1-0.9c-0.3,0.6-0.7,1.1-1.1,1.7
				c-0.2-0.2-0.4-0.4-0.6-0.5c-0.7-0.2-1.4-0.4-2.2-0.4c1.4-1.6,2.7-3.3,3.1-5.4c0.1-0.6-0.3-1.2-1-1.3c-0.6-0.1-1.1,0.3-1.3,0.8
				c-1.9,1.3-3.2,3.2-3.7,5.4c0,0.1-0.1,0.3,0,0.4h-0.3c-1.5,0-1.3,2.3,0.2,2.3c1.6-0.1,3.1,0.1,4.7,0.5c-0.9,1.4-1.6,2.9-2.2,4.6
				c-0.1,0.3-0.1,0.6,0.1,0.8c-0.3,0-0.6,0.1-0.9,0.1c-1.4,0.2-1.3,2.5,0.2,2.3c1.9-0.3,3.9-0.5,5.8-0.5c0.4,0,0.7-0.2,0.9-0.5
				c0.1,0,0.1,0,0.2,0c0.6-0.1,1.1-0.6,1-1.2c0-0.7,0.1-1.4,0.3-2.1C24.3,24,23.9,23.4,23.3,23.3C23.3,23.3,23.3,23.3,23.3,23.3z"/>
			<path id="路径_18" class="st3" d="M32.5,12.4c-1.5,0-2.9,0-4.4,0c0.1-0.1,0.1-0.2,0.2-0.3c0.8-2.5,0.4-5-0.2-7.5
				C27.8,3.2,25.6,4,26,5.4c0,0.1,0.1,0.2,0.1,0.3C26,5.9,25.9,6,25.9,6.1c-0.3,2.1-0.3,4.3,0,6.4c-1.2,0.1-2.3,0.2-3.5,0.4
				c-1.4,0.2-1.3,2.3,0,2.3c0.2,0.2,0.4,0.4,0.7,0.5c2.7,0.8,5.6,0.8,8.3,0c0.5-0.1,0.8-0.5,0.7-1h0.6C34.2,14.6,34,12.4,32.5,12.4z
				"/>
			<path id="路径_19" class="st3" d="M30.4,18c-1.9-0.2-3.7-0.3-5.6-0.3c-1.5,0-1.3,2.3,0.2,2.3c0.2,0,0.3,0,0.5,0
				c0.1,0.1,0.2,0.1,0.3,0.2c1.6,0.6,3.3,0.6,4.8,0c0.6-0.2,0.9-0.9,0.6-1.5C31.1,18.3,30.8,18.1,30.4,18z"/>
			<path id="路径_20" class="st3" d="M30.4,21.7c-1.6-0.3-3.2-0.3-4.8,0c-0.6,0.1-1.1,0.7-1,1.4c0.1,0.3,0.2,0.6,0.5,0.8
				c-0.1,0.6,0.3,1.1,0.9,1.1c0,0,0,0,0,0c1.8,0.4,3.7-0.2,5.1-1.5C31.7,22.9,31.2,21.8,30.4,21.7z"/>
			<g id="组_7" transform="translate(16.207 21.689)">
				<path id="路径_21" class="st3" d="M6,9.2L6,9.2C6,9.1,6,9,6,9.2z"/>
				<path id="路径_22" class="st3" d="M14.2,4.2C12.7,3.7,11,4,9.4,4C9,4,8.5,4.3,8.4,4.7C8.2,4.9,7.9,5.1,7.9,5.4
					C7.6,6.3,7.6,7.3,7.8,8.2C7.5,8,7.3,7.9,7,8C6.4,8,6,8.5,6,9.2l0,0l0,0c0,0,0,0,0,0c-0.4,0.5-0.4,1.2,0.1,1.6
					c0.5,0.4,1.2,0.4,1.6-0.1c0,0,0,0,0-0.1c0.3-0.4,0.5-0.9,0.5-1.4c0.3,0.5,0.8,0.9,1.3,1.1c1.8,0.8,4.2,0.2,5.9-0.5
					c0.6-0.2,0.8-0.8,0.7-1.4c0-0.1,0.1-0.2,0.1-0.3C16.4,6.5,16,4.9,14.2,4.2z M14,7.8C14,7.9,14,8,14,8C13,8.4,12,8.5,11.1,8.4
					C9.8,8.3,9.8,7.2,10,6.2c0.9-0.1,1.9-0.1,2.8,0C13.8,6.3,14.1,6.8,14,7.8z"/>
			</g>
			<path id="路径_23" class="st3" d="M42.5,23.1c-0.3,0.7-0.6,1.4-0.8,2.2c-0.2-0.1-0.4-0.2-0.7-0.2c-0.7,0-1.3,0-2,0
				c2-2.2,3.8-4.5,5.3-7.1c0.5-1-0.5-1.7-1.3-1.5c-0.4-0.4-1.2-0.4-1.6,0c0,0,0,0,0,0c-0.6,0.7-1.2,1.4-1.8,2.1
				C39.3,18.3,39,18,38.7,18c-0.3,0-0.6-0.1-0.9-0.1c1.6-1.9,2.4-4.3,2.1-6.8c-0.1-0.5-0.4-0.9-0.9-1c-0.5-0.4-1.2-0.4-1.6,0
				c-0.1,0.1-0.1,0.2-0.2,0.3c-1.1,2.1-2.1,4.4-2.9,6.6c0,0.1-0.1,0.2-0.1,0.4c-0.1,0-0.2,0-0.3,0c-1.5,0.1-1.2,2.2,0.2,2.3
				c1.4,0.1,2.8,0.2,4.2,0.5c-1.5,1.9-2.7,3.9-3.7,6.1c-0.2,0.6,0,1.2,0.6,1.5c0.5,0.2,1.2,0,1.5-0.5c0,0,0-0.1,0.1-0.1
				c1.5,0.2,3.1,0.3,4.6,0.2c0,0,0.1,0,0.1,0c0.2,0.6,0.9,0.9,1.5,0.7c0.4-0.1,0.7-0.4,0.7-0.8c0.2-1.1,0.5-2.2,1-3.2
				c0.3-0.6,0-1.2-0.6-1.5S42.7,22.6,42.5,23.1L42.5,23.1z"/>
			<path id="路径_24" class="st3" d="M36.8,49c-0.3-2.2-1.3-4.4-3.5-5.2c-1.8-0.4-3.8-0.3-5.5,0.4c0-0.5,0-1-0.1-1.6
				c1.6-0.4,3.2-0.7,4.8-1c0.7-0.1,1.1-0.8,1-1.5c0-0.1-0.1-0.2-0.1-0.3c0,0,0.1-0.1,0.1-0.2c0.5-1,0.9-2.1,1.1-3.2
				c0-0.1,0-0.2,0-0.3c0.5-0.4,0.6-1.1,0.2-1.7c-0.2-0.3-0.6-0.5-0.9-0.5c-3.4,0-6.7-0.5-10.1,0c-0.7,0.1-1.1,0.7-1,1.4
				c0,0.2,0.1,0.4,0.2,0.6c0,0.5,0.4,0.8,0.9,0.9c2.3,0.2,4.6,0.1,6.9,0.3c-0.1,0.6-0.2,1.2-0.3,1.8c-2.7,0.2-5.3,0.8-7.8,2
				c-1,0.5-0.4,1.8,0.5,2c0.2,0.4,0.6,0.6,1.1,0.6c0,1.2,0.1,2.3,0.1,3.5c0,1.4,2.1,1.3,2.2,0c0.1,0,0.2,0,0.2,0c0.1,0,0.2,0,0.4,0
				c2.5-0.6,5.4,0.1,5.8,3c0.3,2.2-0.9,4.2-2.8,5.2c0,0,0,0,0,0c-1-1.2-2.3-2.1-3.7-2.8c-0.6-0.3-1.2,0-1.5,0.6
				c-0.5,1.1-0.4,2.4,0.2,3.5c0.4,0.6,1,1.1,1.7,1.4c0,0.6,0.5,1,1.1,1c0,0,0.1,0,0.1,0C33.2,58.1,37.4,54.7,36.8,49z"/>
			<path id="路径_25" class="st3" d="M15.8,30.7C15.8,30.7,15.7,30.7,15.8,30.7c-0.1,0-0.2,0-0.3,0c-0.6,0-1,0.5-1,1.1
				c0,0.2,0.1,0.5,0.3,0.7c0.1,0.6,0.6,1.1,1.2,1c0.6-0.1,1.1-0.6,1-1.2v-0.5C17,31.1,16.4,30.7,15.8,30.7z"/>
			<path id="路径_26" class="st3" d="M20.4,29.6c-0.2-0.6-0.9-0.9-1.4-0.7c-0.6,0.2-0.9,0.9-0.7,1.4c0.1,0.2,0.2,0.5,0.3,0.7
				c0,0.1,0.1,0.2,0.1,0.3c0,0.1,0,0.2,0,0.1c0,0.1,0,0.2,0,0.2c0.1,0.6,0.6,1.1,1.2,1s1.1-0.6,1-1.2C20.9,30.8,20.7,30.2,20.4,29.6
				z"/>
			<path id="路径_27" class="st3" d="M37,29c-0.6-0.5-1.6-0.4-2.1,0.2c0,0,0,0,0,0c-0.4,0.6-0.7,1.2-0.9,1.8
				c-0.3,0.8,0,1.7,0.7,2.1c0.7,0.3,1.6,0,2-0.7c0,0,0,0,0,0c0.1-0.3,0.2-0.6,0.3-0.8c0-0.1,0.1-0.1,0.1-0.2c0,0,0.1-0.1,0.1-0.1
				C37.7,30.6,37.6,29.6,37,29z"/>
			<path id="路径_28" class="st3" d="M39.6,28.3c-0.7,0.1-1.2,0.7-1.2,1.4v0.6c0,0.7,0.7,1.3,1.4,1.2c0,0,0,0,0,0
				c0.7-0.1,1.2-0.7,1.2-1.4v-0.6C41,28.8,40.3,28.3,39.6,28.3C39.6,28.3,39.6,28.3,39.6,28.3z"/>
			<path id="路径_29" class="st3" d="M44.5,28.4c-2.6,0-2.2,3.9,0.3,3.9C47.4,32.3,47,28.4,44.5,28.4z"/>
		</g>
		<g id="组_11" transform="translate(364.442 33)">
			<path id="路径_30" class="st5" d="M18.6,49.4c-2.4-2.6-6.5-3.3-9-0.5c-0.1,0.1-0.1,0.1-0.2,0.2C8,49.4,6.7,50.4,6,51.7
				c-0.5,1.4-0.3,3,0.6,4.2c2.2,3.5,7,4.1,10.4,2.2S21.2,52.3,18.6,49.4z M15.7,52.1c0.3,0.1,0.5,0.4,0.3,0.9
				c-0.2,0.3-0.5,0.6-0.8,0.7c-0.1,0-0.2-0.1-0.3-0.1c0,0-0.1,0-0.1,0C15.2,53.1,15.5,52.6,15.7,52.1L15.7,52.1z M15,49.7
				c-0.1,0-0.2,0-0.2,0c-0.7,0-1,0.7-1,1.2c-0.1,1.8-1.9,0.6-2.2-0.6C12.4,49.4,13.8,49.1,15,49.7L15,49.7z M16.3,55.9
				c0-0.1,0-0.2,0-0.3c0.2-0.1,0.4-0.2,0.6-0.4c0.1,0,0.1-0.1,0.2-0.1C16.8,55.4,16.6,55.7,16.3,55.9L16.3,55.9z"/>
			<g id="组_10" transform="translate(1.666)">
				<g id="组_9">
					<path id="路径_31" class="st5" d="M21.3,21.9c-0.2-1.4-2.4-1.2-2.2,0.2c0.1,0.4,0.1,0.8,0.2,1.2c-0.3,0.1-0.5,0.4-0.6,0.7
						c-2.3,9.4-1.2,19.4-0.8,29c0.1,0.6,0.6,1,1.2,1c0.4,0,0.7-0.3,0.9-0.6C23.6,43.7,23,31.8,21.3,21.9z M19.8,45.7
						c-0.4-5.6-0.4-11.2,0.3-16.8C20.7,34.5,20.6,40.2,19.8,45.7L19.8,45.7z"/>
					<path id="路径_32" class="st5" d="M34.2,5c-0.1-0.7-0.6-1.2-1.3-1.1c-1.9,0.4-3.7,1.3-5.3,2.4c-0.8-0.2-1.6-0.2-2.4,0.1
						c-4.3,1.3-8.6,7.1-6.5,11.6c0.1,0.3,0.3,0.5,0.6,0.6c-0.1,0.2-0.2,0.3-0.2,0.5c-3-4.8-6.5-9.4-11.4-12.2C7,6.6,6.3,6.9,6,7.5
						C6,7.6,6,7.7,5.9,7.8c-1.7,5.9,6.2,15.1,12.4,14.9c0.1,0.1,0.2,0.3,0.2,0.4c0.3,0.5,1,0.7,1.6,0.3c0.2-0.2,0.4-0.4,0.5-0.7
						C27.6,20.4,34.7,12.4,34.2,5z M9.9,13.3c-0.2,0.2-0.2,0.5-0.2,0.7c-0.8-1.2-1.3-2.5-1.5-3.9c0.9,0.6,1.7,1.4,2.5,2.1
						C10.3,12.4,10,12.8,9.9,13.3L9.9,13.3z M22.7,11.9c-0.6,1-1.1,2.1-1.4,3.2C21.4,13.9,21.9,12.8,22.7,11.9L22.7,11.9z"/>
				</g>
				<path id="路径_33" class="st5" d="M21.9,44.8c0.6-2.6,0.3-5.2,0.3-7.8c0-0.7-0.4-1.2-1.1-1.3c0.1-0.4,0.1-0.9,0.2-1.3
					c0.3-1.9-2.7-2.5-3-0.5c-0.7,4.4-0.9,9,0.4,13.3c0.6,1.9,3.4,0.8,2.9-1c0-0.2-0.1-0.3-0.1-0.5C21.6,45.4,21.8,45.1,21.9,44.8z"
					/>
			</g>
		</g>
		<g id="组_12" transform="translate(209.105 49.571)">
			<path id="路径_34" class="st3" d="M34.7,11.1c-2.1-2.8-5.5-4.3-8.8-5.7c-0.8-0.8-1.8-1.3-3-1.5c-6.2,1.7-11.5,6.3-15.6,11
				c-0.4,0.5-0.3,1.3,0.2,1.7c0.2,0.2,0.5,0.3,0.8,0.3c3.4,0.1,6.8-1.9,9.6-3.7c2.1-1.3,4-2.9,5.7-4.6c2.7,2.8,6.3,4.3,10.1,4.4
				c0.7-0.1,1.1-0.6,1.1-1.3C34.9,11.4,34.8,11.2,34.7,11.1z M29.6,9.7c-0.7-0.3-1.4-0.7-2.1-1.1C28.2,9,28.9,9.3,29.6,9.7L29.6,9.7
				z"/>
			<path id="路径_35" class="st3" d="M32.7,25.1c0.7-2.8,0.4-5.6,0.8-8.4c0.1-0.6-0.3-1.2-0.9-1.3c-0.1,0-0.2,0-0.2,0
				c-0.2-0.6-0.9-1-1.5-0.8c-0.4,0.1-0.7,0.5-0.8,0.9c0,0.2-0.1,0.5-0.1,0.7c-1.6,0-3.1,0-4.7,0.1c0.1-0.2,0.2-0.4,0.2-0.7
				c0.1-1.2-0.4-2.3-1.3-3.1l0,0c-0.1-0.1-0.2-0.1-0.2-0.2c-0.2-0.1-0.4-0.1-0.6-0.1c0,0-0.1,0-0.1,0c0,0-0.1,0-0.1,0s-0.1,0-0.1,0
				c-0.1,0-0.1,0-0.1,0.1c0,0,0,0,0,0c-0.2,0.1-0.4,0.3-0.5,0.6c0,0,0,0.1,0,0.1c0,0,0,0,0,0c-0.3,0.9-0.6,1.8-0.6,2.7
				c0,0.3,0.1,0.5,0.3,0.7c-2,0.1-3.9,0.3-5.9,0.3c-1.3,0-1.4,1.7-0.4,2.2c-0.9,0.9-1.5,2-1.8,3.3c-0.6,2.4-1.1,5-1.9,7.3
				c-0.3,1-0.8,1.9-1.6,2.6c-0.8,0.6-2-1.1-2.4-1.5c-0.4-0.5-1.2-0.6-1.7-0.2c-0.4,0.3-0.6,0.8-0.4,1.3c0.4,1.9,1.4,3.9,3.6,4
				c1.9,0,3.6-2.1,4.5-3.5c1.6-2.3,2.8-4.8,3.6-7.5c4.1,0,8.1-0.3,12.2-0.5c0,0.7,0,1.3,0,2c-3.8,1-7.8,1.5-11.8,1.5
				c-0.4,0-0.8,0.3-1,0.7c-0.6,0.3-0.8,1.1-0.5,1.7c0.1,0.2,0.3,0.4,0.5,0.5c4.5,2.3,12.1,1.2,15.4-2.8c0.4-0.5,0.3-1.2-0.2-1.7
				c0,0-0.1-0.1-0.1-0.1v0C32.4,25.7,32.6,25.4,32.7,25.1z M29.7,21.8c-3.8-0.2-7.6-0.1-11.4,0.3c-0.1,0-0.1,0-0.2,0
				c0.1-0.7,0.1-1.4,0.1-2.1c0,0,0.1,0,0.1-0.1c1.9-0.9,4.4-0.6,6.4-0.6c1.7,0.1,3.4-0.1,5-0.4C29.7,19.8,29.7,20.8,29.7,21.8
				L29.7,21.8z"/>
			<path id="路径_36" class="st3" d="M32.7,32.1c-0.4-0.5-1.1-0.7-1.6-0.3c-0.3,0.2-0.4,0.4-0.5,0.7c-0.1,0-0.2,0.1-0.3,0.1
				c-0.2-0.1-0.4-0.2-0.6-0.2c-3-0.4-6,0.1-8.7,1.4c-0.1-0.2-0.2-0.4-0.3-0.6c-0.6-1.1-2-0.4-2.1,0.7c0,0.1-0.1,0.2-0.1,0.4
				c0,2.8,0,5.6-0.3,8.4c0,0.1,0,0.2,0,0.2c-1.1,0.4-1.2,2.2,0.1,2.3c4.5,0.3,9,0.8,13.2-1.2c0.3-0.1,0.5-0.3,0.6-0.6
				c0.3-0.1,0.5-0.3,0.6-0.6C34.7,39.4,34.7,35.3,32.7,32.1z M21.8,36.4c2.6-0.2,5.3-0.3,7.9-0.8v6.2C27,42,24.3,42,21.6,41.7
				C22,40,22.1,38.2,21.8,36.4z"/>
			<path id="路径_37" class="st3" d="M39.3,17.8c-0.2-0.6-0.9-0.9-1.6-0.7c-0.5,0.2-0.8,0.7-0.8,1.2c-0.2,0.2-0.3,0.5-0.3,0.8
				c-0.1,3.3,0.1,6.5,0.6,9.8c0.2,0.8,1,1.3,1.8,1.2c0.3-0.1,0.6-0.2,0.9-0.5C40.9,25.7,40.7,21.6,39.3,17.8z"/>
			<path id="路径_38" class="st3" d="M49.1,20.4c-0.1-2.9-0.5-6.3-2.1-8.8c-0.4-0.5-1.1-0.7-1.7-0.3c-0.2,0.1-0.3,0.3-0.4,0.4
				c0,0.1-0.1,0.2-0.1,0.2c-0.7-0.2-1.4,0.1-1.6,0.8c0,0.1-0.1,0.3-0.1,0.4c0.1,4.5,1.1,9.1,1.2,13.6c0.1,2.4,0.1,5.1-0.9,7.4
				c-0.9,2.1-3,0.8-4.3-0.2c-1-0.8-2.7,0.5-1.7,1.6c1.6,1.8,4.1,4,6.6,2.6c2.5-1.3,3.5-4.5,4.1-7C49,27.7,49.3,24.1,49.1,20.4z
				 M46.7,25.1c-0.1-1.7-0.2-3.4-0.4-5.2c-0.1-1.2-0.3-2.5-0.5-3.7c0.1-0.1,0.3-0.1,0.4-0.2c0.2,1.2,0.4,2.4,0.5,3.6
				C46.8,21.4,46.9,23.2,46.7,25.1L46.7,25.1z"/>
		</g>
		<g id="组_14" transform="translate(255.287 41.761)">
			<path id="路径_39" class="st3" d="M13.1,33.6c-2,1.3-4.3,2.1-6.6,2.5c-0.8,0.2-0.8,1.1-0.5,1.7c2.1,4.1,6.4,0.9,8.2-1.8
				c0.1-0.2,0.2-0.3,0.2-0.5c0,0,0.1-0.1,0.1-0.1c0.5-0.4,0.6-1.1,0.2-1.6C14.2,33.4,13.6,33.3,13.1,33.6z"/>
			<g id="组_13" transform="translate(4.56 0)">
				<path id="路径_40" class="st3" d="M30.7,18.8c-1.6-0.8-3.2-1.4-5-1.7c0.2-0.1,0.4-0.3,0.5-0.5c0.6-1.2,1-2.5,1-3.8
					c0.7,0,1.4,0,2.1-0.1c0.6-0.1,1.1-0.6,1-1.3c0-0.4-0.3-0.7-0.6-0.9c-2.8-1.4-5.8-2.3-8.9-2.6c0-0.3,0.1-0.5,0.2-0.8
					c0-0.1,0.2-0.3,0.2-0.5c0.1-0.2,0.1-0.5,0.2-0.7c0.1-1-0.6-1.9-1.6-2.1c-0.9-0.1-1.8,0.3-2.4,1c-0.7,0.7-1,1.7-1,2.7
					c-2.8-0.2-5.5,0.2-8.1,1.1c-1.3,0.1-1.6,2.1-0.2,2.2c1.3,0.1,2.7,0.3,4,0.4c-0.7,1.8-1,3.8-0.8,5.7C10,17,8.9,17.1,7.8,17.1
					c-0.4,0-0.7,0-1.1,0c-1.5,0.1-1.3,2.3,0.2,2.3c1.6,0,3.3,0.1,4.9,0.5c0.1,0.3,0.2,0.6,0.3,0.9c0.3,0.6,0.9,0.9,1.5,0.6
					c0.4-0.2,0.7-0.5,0.7-0.9c1.3,0.3,2.7,0.6,4.1,0.8c3.9,0.4,7.9,0.3,11.8-0.2c0.6-0.1,1.1-0.6,1-1.3C31.2,19.3,31,19,30.7,18.8z
					 M15.6,12c0-0.1,0-0.2,0-0.3c2.4,0.3,4.8,0.7,7.3,0.9c-0.1,1.3-0.3,2.5-0.5,3.8c0,0.1,0,0.1,0,0.2c-2.3-0.1-4.7-0.1-7,0.1
					C15.4,15.1,15.5,13.6,15.6,12L15.6,12z M18.2,18.8c-0.1,0-0.2,0-0.3,0c2.2-0.1,4.5,0,6.7,0.3C22.4,19.2,20.3,19.1,18.2,18.8
					L18.2,18.8z"/>
				<path id="路径_41" class="st3" d="M25,24c-0.1-0.1-0.2-0.2-0.3-0.3c-0.2-0.2-0.4-0.4-0.7-0.4c-3.6-0.6-7.5-0.8-10.9,0.3
					c-0.6,0.2-0.9,0.8-0.7,1.4c0.1,0.2,0.2,0.4,0.3,0.5c-0.6,1.9-0.9,3.8-0.7,5.8c-0.6,0.2-0.9,0.9-0.6,1.4c0.1,0.1,0.1,0.3,0.2,0.4
					c-0.4,0.5-0.4,1.3,0.1,1.7c0.1,0.1,0.3,0.2,0.5,0.3c0.4,0.4,1,0.4,1.5,0c3.3,0.1,6.5,0.3,9.7-0.6c0.2,0,0.3-0.1,0.5-0.3
					c0.3,0.1,0.7,0,0.9-0.2c0.6,0,1-0.5,0.9-1.1c0-0.1-0.1-0.3-0.1-0.4C26.8,29.7,26.5,26.6,25,24z M15.7,26.3
					c1.8-0.2,3.7-0.1,5.4,0.4c0.6,0.2,1,0.7,1.3,1.2c-2.3-0.2-4.5-0.7-6.7-0.9C15.7,26.8,15.7,26.5,15.7,26.3z M15.4,29.3
					c2.5,0.2,5,0.8,7.6,1c0.1,0.5,0.1,1,0.1,1.5c-2.7-0.1-5.4-0.3-8.1-0.4C15.2,30.6,15.3,30,15.4,29.3z"/>
				<path id="路径_42" class="st3" d="M28.5,40c-4.1,1.9-10.3,4.2-14.1,1.5C13.5,40.6,13,39.3,13,38c0-1.3-1.9-1.3-2.2-0.1
					C10.2,38,9.8,38.5,9.9,39c0,0.1,0,0.2,0.1,0.3c0.5,1.3,1.3,2.4,2.3,3.4c4.4,5.4,16.1,6.3,17.6-1.4c0.1-0.6-0.3-1.2-0.9-1.3
					C28.8,39.9,28.7,39.9,28.5,40z M21.4,44.7c1.7-0.3,3.4-0.8,5.1-1.4C25,44.4,23.2,44.9,21.4,44.7L21.4,44.7z"/>
				<path id="路径_43" class="st3" d="M21.5,39.1c0-0.3-0.1-0.6-0.2-0.9c0-0.2-0.1-0.5-0.1-0.7c-0.1-0.4-0.5-0.7-0.9-0.7
					c-0.3-0.2-0.7-0.2-1-0.2c-1,0.2-1.9,1-2.1,2c-0.1,0.7,0.2,1.4,0.7,1.8c0.5,0.5,1.2,0.8,1.9,0.8c0.7-0.1,1.3-0.5,1.5-1.2
					C21.4,39.8,21.5,39.4,21.5,39.1z"/>
				<path id="路径_44" class="st3" d="M28.3,36.8c0-0.3-0.1-0.6-0.2-0.9c-0.1-0.3-0.2-0.5-0.4-0.7c-0.3-0.5-0.9-0.7-1.4-0.5
					c-0.5,0.2-0.8,0.6-0.7,1.1l-0.8,0.8c-0.4,0.5-0.3,1.2,0.2,1.6c0.1,0.1,0.3,0.2,0.5,0.2c0,0,0.1,0,0.2,0c0,0.1,0.1,0.2,0.2,0.3
					c0.4,0.5,1.1,0.6,1.6,0.3c0.2-0.1,0.3-0.3,0.4-0.4c0.1-0.2,0.2-0.5,0.3-0.7c0.1-0.2,0.2-0.3,0.2-0.5
					C28.3,37.1,28.3,37,28.3,36.8z"/>
			</g>
		</g>
		<g id="组_15" transform="translate(326.74 40.62)">
			<path id="路径_45" class="st3" d="M11.4,16.1c-2.3,2.2-3,5.2-3.3,8.3h2.4c0-3.2,0.7-6.3,4-7.5c2.8-1,6.1-0.8,9-0.7
				c4.7,0.1,13.4,1.5,9.7,8l1.9-0.2c-1.6-1.6-1.3-4-2.2-6c-0.8-1.8-2.4-3-4.3-3.3c-2.1-0.2-4.2-0.2-6.3,0.1c-1.7,0.1-3.5,0-5.2,0.1
				c-2.9,0.1-6.2,0.4-8.7,2.1c-2.7,2-3,5.2-2.4,8.2c0.3,1.5,2.6,0.9,2.3-0.6c-1.4-6.9,5.7-7.4,10.8-7.3c2.9,0,6.3-0.8,9.2-0.1
				c3.7,0.9,2.7,6.1,5.1,8.6c0.5,0.5,1.3,0.5,1.7,0c0.1-0.1,0.1-0.1,0.2-0.2c1.7-3,2-6.4-0.9-8.8c-2.7-2.2-6.7-2.7-10-2.9
				c-3.7-0.2-8-0.4-11.4,1.2c-3.8,1.7-4.9,5.6-4.8,9.5c0,0.7,0.6,1.2,1.3,1.2c0.6,0,1.1-0.5,1.2-1.2c0.2-2.4,0.8-4.8,2.6-6.6
				C14.2,16.7,12.5,15,11.4,16.1L11.4,16.1z"/>
			<path id="路径_46" class="st3" d="M21.8,14.8l0.2-3c0.1-1.6-2.3-1.5-2.4,0l-0.2,3C19.3,16.3,21.7,16.3,21.8,14.8L21.8,14.8z"/>
			<path id="路径_47" class="st3" d="M21.5,9.6c-1.1,0.2-2.2-0.5-2.5-1.6c-0.3-1.2,0.9-1.9,2-1.8c0.7,0,1.3,0.6,1.4,1.3
				c0,0.9-0.9,1.1-1.7,1.1l1.2,1.5c0.2-0.6,0-1.3,0.3-1.8l-1.4,0.6c-0.8-0.3,0.1,0-0.1,0.1c0,0,0.2,0.3,0.2,0.3l-0.1-0.9
				c0.3-0.2,0.3-0.3,0.2-0.2c-0.1,0.1-0.3,0.1-0.4,0.2C20.2,8.5,20,8.7,19.9,9c-0.6,1.4,1.4,2.6,2.1,1.2c-0.1,0.3-0.4,0.3,0,0.1
				c0.2-0.1,0.4-0.2,0.6-0.4c0.4-0.4,0.6-1,0.5-1.5c-0.3-0.8-0.9-1.5-1.7-1.8c-0.5-0.1-1.1,0.1-1.4,0.6c-0.5,0.8-0.3,1.6-0.6,2.4
				c-0.2,0.7,0.2,1.3,0.9,1.5c0.1,0,0.2,0,0.3,0c2.1,0.1,4.1-1.1,4.1-3.4c0-2.1-1.7-3.7-3.8-3.8c-2.4-0.1-4.7,1.7-4.4,4.3
				c0.4,2.4,2.5,4.1,4.9,3.9C23,11.9,23,9.5,21.5,9.6L21.5,9.6z"/>
			<path id="路径_48" class="st3" d="M10.6,41.4c7.9,0,15.8,0,23.4-2.1L33.4,37c-6.5,2.5-14.1,3.9-21,2c-0.6-0.2-1.3,0.2-1.5,0.9
				c-0.1,0.6,0.2,1.2,0.8,1.4c7.2,1.9,15.4,0.6,22.2-2c0.6-0.2,1-0.9,0.8-1.5c-0.2-0.6-0.8-1-1.4-0.8c-7.5,2-15.1,2-22.8,2
				c-0.7,0-1.2,0.6-1.2,1.2C9.4,40.8,9.9,41.4,10.6,41.4L10.6,41.4z"/>
			<path id="路径_49" class="st3" d="M21,36c0.8,4.3,0.6,8.8,1.5,13.1c0.3,1.5,2.6,0.9,2.3-0.6c-0.8-4.3-0.6-8.8-1.5-13.1
				C23,33.8,20.7,34.5,21,36z"/>
			<path id="路径_50" class="st3" d="M20.6,36.9c-0.1,4.4-1.2,9.1,1,13.1c0.3,0.6,1.1,0.8,1.7,0.4c0.6-0.3,0.8-1.1,0.4-1.6
				c-2-3.5-0.8-8-0.7-11.9c0-0.7-0.6-1.2-1.3-1.2C21.1,35.7,20.6,36.3,20.6,36.9L20.6,36.9z"/>
			<path id="路径_51" class="st3" d="M21.8,40.8c0,2.3,0.5,4.7,0.6,7c0,0.7,0.6,1.2,1.3,1.2c0.6,0,1.1-0.5,1.2-1.2
				c0-2.3-0.5-4.7-0.6-7c0-0.7-0.6-1.2-1.2-1.2C22.3,39.7,21.8,40.2,21.8,40.8z"/>
			<path id="路径_52" class="st3" d="M20,43c-4,0.4-8.4,2.1-10.5,5.7C9.1,49.3,9.4,50,10,50.3c0.3,0.1,0.6,0.2,0.9,0.1
				c3-0.4,5.4-2.2,7.9-3.7c1.3-0.8,0.1-2.9-1.2-2.1c-2.3,1.5-4.6,3.1-7.3,3.5l1.4,1.8c1.6-2.9,5.3-4.2,8.4-4.5
				C21.5,45.2,21.5,42.8,20,43L20,43z"/>
			<path id="路径_53" class="st3" d="M27.6,44.8c3,0,5.9,0.3,8,2.7l0.9-2.1c-2.2-0.2-4.4-0.7-6.4-1.7c-1.4-0.6-2.6,1.5-1.2,2.1
				c2.4,1.1,5,1.8,7.6,2c0.7,0,1.2-0.6,1.2-1.3c0-0.3-0.1-0.6-0.3-0.8c-2.4-2.9-6.1-3.4-9.7-3.4c-0.7,0-1.2,0.6-1.2,1.3
				C26.4,44.3,26.9,44.8,27.6,44.8L27.6,44.8z"/>
			<path id="路径_54" class="st3" d="M17.3,19c-2.8,2.5-6.8,6.5-3.1,10c1.9,1.8,4.7,2.7,7.2,3.5c3.1,1,6.3,1.7,9.5,2.5l0.3-2.4
				c-4.4,0.1-8.8-0.7-12.9-2.3c-2.3-0.9-4.1-2.1-2.7-4.7c1.2-1.9,2.6-3.5,4.3-5c0.5-0.5,0.4-1.3-0.1-1.7c-0.5-0.4-1.2-0.4-1.6,0
				c-2.8,2.8-8.3,8-4,11.9c2.1,1.8,5.4,2.5,8,3.1c2.9,0.8,6,1.1,9,1c0.7,0,1.2-0.6,1.2-1.2c0-0.5-0.4-1-0.9-1.1
				c-4.1-1.1-8.4-1.9-12.4-3.5c-1.6-0.7-4.4-1.7-4-3.9c0.3-1.8,2.6-3.4,3.9-4.6C20.2,19.7,18.4,18,17.3,19L17.3,19z"/>
			<path id="路径_55" class="st3" d="M26.2,21.4c-2.8,5.8-6.7,11.3-12.6,14.2l1.2,2.1c6.3-3.1,12.4-8.4,13.6-15.6
				c0.3-1.5-2.1-2.2-2.3-0.6C25,28,19.3,32.7,13.6,35.5c-1.4,0.7-0.2,2.7,1.2,2.1c6.3-3,10.5-8.9,13.5-15C29,21.2,26.9,20,26.2,21.4
				L26.2,21.4z"/>
			<path id="路径_56" class="st3" d="M11.4,23.1c6.1,1.3,12.4,1.6,18.6,0.9l-1.2-2c-3.3,3.3-10.3,2.4-14.3,0.9
				c-1.5-0.5-2.1,1.8-0.6,2.3c4.9,1.8,12.7,2.5,16.7-1.5c0.9-0.9-0.1-2.2-1.2-2c-5.8,0.7-11.6,0.3-17.3-0.9
				C10.6,20.5,9.9,22.8,11.4,23.1L11.4,23.1z"/>
		</g>
	</g>
	<g id="组_17" transform="translate(290.841 42.738)">
		<g id="组_16">
			<path id="路径_57" class="st3" d="M9.8,13.5c2.5-2.2,7.6-1.6,10.6-1.1l-0.3-2c-2.7,1.3-6,1-8.9,1c-0.6,0-1.1,0.5-1.1,1.1
				s0.5,1.1,1.1,1.1l0,0c3.4,0,6.9,0.3,10-1.3c0.5-0.3,0.7-1,0.4-1.5c-0.1-0.2-0.4-0.4-0.6-0.5C17.1,9.6,11.5,9.1,8.3,12
				C7.2,12.9,8.8,14.5,9.8,13.5L9.8,13.5z"/>
			<path id="路径_58" class="st3" d="M8.2,20.4c4.7-2.5,11.3-1.8,16.4-1.2L24.3,17c-5.2,1.5-10.5,1.6-15.8,1.6
				c-0.6,0-1.1,0.5-1.1,1.1s0.5,1.1,1.1,1.1l0,0c5.5,0,11.1-0.1,16.4-1.7c0.6-0.2,0.9-0.8,0.7-1.4c-0.1-0.4-0.5-0.8-1-0.8
				c-5.5-0.7-12.4-1.2-17.5,1.5C5.8,19.1,6.9,21,8.2,20.4L8.2,20.4z"/>
			<path id="路径_59" class="st3" d="M13.8,5c-0.2,4-0.1,8,0.3,11.9c0,0.6,0.5,1.1,1.1,1.1c0.5,0,0.9-0.3,1-0.8
				c1.2-4,0.9-8.4,0.3-12.5c-0.2-1.4-2.3-0.8-2.1,0.6c0.5,3.7,0.8,7.7-0.3,11.4l2.2,0.3c-0.4-4-0.4-8-0.3-11.9
				c0-0.6-0.5-1.1-1.1-1.1S13.8,4.4,13.8,5L13.8,5z"/>
			<path id="路径_60" class="st3" d="M20.3,13.9C15.7,20.7,7.7,25,5.7,33.5c-0.1,0.6,0.2,1.2,0.8,1.3c0.4,0.1,0.7,0,1-0.3
				c6.9-5.5,11.2-13.6,16-20.8c0.8-1.2-1.1-2.3-1.9-1.1c-4.7,7-8.9,15-15.6,20.3l1.8,1.1c1.8-8.2,9.9-12.6,14.3-19.2
				C23,13.8,21.1,12.7,20.3,13.9L20.3,13.9z"/>
			<path id="路径_61" class="st3" d="M13.8,28c1.5-0.6,4.3-1.9,4.5,0.5c0.2,1.9-0.3,3.9-0.3,5.9c0,2.7,1.2,5.2,1.3,7.8
				c0.2,1.6-0.9,3.1-2.5,3.3c-0.6,0.1-1.3,0-1.8-0.3c-1.4-0.7-2.4-1.8-3-3.2l-1.2,1.6c2,0.5,4.7,1.3,6.5,0.1c2-1.3,2.1-4.3,2.1-6.4
				c0-2.8,0.5-5.6,0.5-8.4c0-2-0.2-4.5-2.4-5.2c-0.6-0.2-1.2,0.2-1.4,0.8c-0.2,0.6,0.2,1.2,0.8,1.4c2,0.6,0.3,9,0.3,10.6
				c0,1.4,0.4,4.2-0.9,5.3c-1.1,1-3.7,0-4.9-0.3c-0.6-0.1-1.2,0.2-1.3,0.8c-0.1,0.3,0,0.6,0.1,0.8c1.5,3.2,5.6,6,9,4
				c4.4-2.5,1.4-7.5,1.2-11.3c-0.2-2.8,1-6.1,0-8.8c-1.1-3.1-4.8-2-7.1-1.1C11.9,26.3,12.4,28.5,13.8,28L13.8,28z"/>
			<path id="路径_62" class="st3" d="M11.5,34.7c4.6,0.3,8.8,0,12.8-2.6l-1.7-1c-0.4,3.7-5.9,4.1-8.6,2.9
				c-1.3-0.6-2.4,1.3-1.1,1.9c4.3,2,11.3,0.7,11.9-4.8c0-0.6-0.5-1.1-1.1-1.1c-0.2,0-0.4,0.1-0.5,0.1c-3.6,2.5-7.4,2.6-11.7,2.3
				C10.1,32.4,10.1,34.6,11.5,34.7L11.5,34.7z"/>
			<path id="路径_63" class="st3" d="M28.6,13.6c-1.8,3.6-3,7.4-3.7,11.4c-0.2,1.4,1.9,2,2.1,0.6c0.6-3.8,1.8-7.4,3.5-10.8
				C31.1,13.4,29.2,12.3,28.6,13.6L28.6,13.6z"/>
			<path id="路径_64" class="st3" d="M29.6,13.8c-1.1,3.6-2.5,7.1-4.1,10.6c-0.6,1.3,1.3,2.4,1.9,1.1c1.7-3.6,3.1-7.3,4.3-11.1
				C32.2,13.1,30,12.5,29.6,13.8L29.6,13.8z"/>
			<path id="路径_65" class="st3" d="M28.5,25.1c4.3-3.3,6.5,2.7,4.9,6.1c-1.5,3-4.4,5.1-7.1,7l1.5,1.5
				c2.4-4.2,13.8-16.5,4.1-19.1c-0.6-0.2-1.2,0.2-1.4,0.8c-0.2,0.6,0.2,1.2,0.8,1.4c6.6,1.7-3.8,13-5.4,15.9
				c-0.5,0.9,0.6,2.2,1.5,1.5c3.9-2.7,9-6.5,8.9-11.8c-0.1-4.9-4.7-8.3-8.9-5.1C26.2,24,27.3,25.9,28.5,25.1L28.5,25.1z"/>
			<path id="路径_66" class="st3" d="M25.7,31.5c4.5,2,9.9,4.2,12.4,8.8l1-1.7c-4.7-0.2-9.6-4.6-12.8-7.7c-1-1-2.6,0.6-1.6,1.6
				c3.7,3.6,9,8.1,14.4,8.4c0.6,0,1.1-0.5,1.1-1.1c0-0.2-0.1-0.4-0.1-0.5c-2.7-4.9-8.3-7.4-13.2-9.6C25.5,29,24.4,30.9,25.7,31.5
				L25.7,31.5z"/>
			<path id="路径_67" class="st3" d="M28.5,33.1c2.5,1.2,4.8,2.6,7,4.3c1.1,0.9,2.6-0.7,1.6-1.6c-2.3-1.8-4.8-3.3-7.4-4.6
				C28.3,30.5,27.2,32.4,28.5,33.1L28.5,33.1z"/>
			<path id="路径_68" class="st3" d="M29.3,34.6c2.1,1.9,4.4,3.6,6.9,4.9c1.3,0.6,2.4-1.3,1.1-1.9c-2.3-1.2-4.5-2.7-6.4-4.5
				C29.8,32.1,28.3,33.7,29.3,34.6L29.3,34.6z"/>
		</g>
		<path id="路径_69" class="st3" d="M12.1,44.1c1.4,1.4,3.2,2.1,4.9,0.9c1.5-1.2,2.4-3,2.5-5c0.2-1.4-2-1.4-2.2,0
			c-0.1,1.1-0.5,2.1-1.2,2.9c-0.9,0.9-1.7,0.4-2.4-0.4C12.7,41.5,11.2,43,12.1,44.1L12.1,44.1z"/>
		<path id="路径_70" class="st3" d="M15.7,47.6c2.8-1.2,4.7-3.8,5-6.8c0.2-1.4-2-1.4-2.2,0c-0.3,2.2-1.8,4.1-3.9,4.9
			C13.3,46.3,14.4,48.2,15.7,47.6L15.7,47.6z"/>
		<path id="路径_71" class="st3" d="M27.4,23c2.5-0.7,6.9-1.7,8,1.7c0.9,2.9-1,6.2-2.7,8.4c-0.9,1.1,0.7,2.7,1.6,1.6
			c2.3-3,4.6-7.3,3-11.2c-1.8-4.2-6.9-3.7-10.5-2.6c-0.6,0.2-0.9,0.8-0.8,1.4C26.2,22.8,26.8,23.1,27.4,23L27.4,23L27.4,23z"/>
	</g>
</g>
</svg>
